<ttFont>
    <TTGlyph name=".notdef" xMin="130" yMin="-260" xMax="626" yMax="970">
      <contour>
        <pt x="130" y="970" on="1"/>
        <pt x="626" y="970" on="1"/>
        <pt x="626" y="-260" on="1"/>
        <pt x="130" y="-260" on="1"/>
      </contour>
      <contour>
        <pt x="240" y="-199" on="1"/>
        <pt x="515" y="-199" on="1"/>
        <pt x="515" y="911" on="1"/>
        <pt x="240" y="911" on="1"/>
      </contour>
    </TTGlyph>
    <TTGlyph name="A" xMin="-13" yMin="0" xMax="838" yMax="780">
      <contour>
        <pt x="501" y="233" on="1"/>
        <pt x="218" y="233" on="1"/>
        <pt x="171" y="127" on="0"/>
        <pt x="171" y="86" on="1"/>
        <pt x="171" y="56" on="0"/>
        <pt x="216" y="40" on="0"/>
        <pt x="261" y="40" on="1"/>
        <pt x="261" y="0" on="1"/>
        <pt x="-13" y="0" on="1"/>
        <pt x="-13" y="40" on="1"/>
        <pt x="11" y="43" on="0"/>
        <pt x="46" y="53" on="0"/>
        <pt x="73" y="71" on="0"/>
        <pt x="93" y="100" on="0"/>
        <pt x="102" y="121" on="1"/>
        <pt x="365" y="780" on="1"/>
        <pt x="439" y="780" on="1"/>
        <pt x="678" y="196" on="1"/>
        <pt x="699" y="145" on="0"/>
        <pt x="728" y="87" on="0"/>
        <pt x="761" y="56" on="0"/>
        <pt x="804" y="44" on="0"/>
        <pt x="838" y="41" on="1"/>
        <pt x="838" y="0" on="1"/>
        <pt x="460" y="0" on="1"/>
        <pt x="460" y="41" on="1"/>
        <pt x="508" y="43" on="0"/>
        <pt x="550" y="59" on="0"/>
        <pt x="550" y="83" on="1"/>
        <pt x="550" y="97" on="0"/>
        <pt x="536" y="141" on="0"/>
        <pt x="524" y="173" on="1"/>
      </contour>
      <contour>
        <pt x="241" y="293" on="1"/>
        <pt x="479" y="293" on="1"/>
        <pt x="364" y="596" on="1"/>
        <pt x="360" y="596" on="1"/>
      </contour>
    </TTGlyph>
    <TTGlyph name="AE" xMin="-22" yMin="0" xMax="1100" yMax="770">
      <contour>
        <pt x="406" y="41" on="1"/>
        <pt x="439" y="42" on="0"/>
        <pt x="481" y="52" on="0"/>
        <pt x="503" y="76" on="0"/>
        <pt x="511" y="120" on="0"/>
        <pt x="511" y="155" on="1"/>
        <pt x="511" y="274" on="1"/>
        <pt x="263" y="274" on="1"/>
        <pt x="230" y="214" on="0"/>
        <pt x="193" y="146" on="0"/>
        <pt x="176" y="109" on="0"/>
        <pt x="173" y="92" on="0"/>
        <pt x="173" y="83" on="1"/>
        <pt x="173" y="67" on="0"/>
        <pt x="187" y="51" on="0"/>
        <pt x="209" y="44" on="0"/>
        <pt x="236" y="42" on="0"/>
        <pt x="250" y="41" on="1"/>
        <pt x="250" y="0" on="1"/>
        <pt x="-22" y="0" on="1"/>
        <pt x="-22" y="41" on="1"/>
        <pt x="2" y="44" on="0"/>
        <pt x="38" y="54" on="0"/>
        <pt x="66" y="72" on="0"/>
        <pt x="91" y="101" on="0"/>
        <pt x="103" y="122" on="1"/>
        <pt x="113" y="139" on="0"/>
        <pt x="132" y="174" on="0"/>
        <pt x="160" y="224" on="0"/>
        <pt x="200" y="298" on="0"/>
        <pt x="261" y="410" on="0"/>
        <pt x="347" y="566" on="0"/>
        <pt x="406" y="674" on="1"/>
        <pt x="414" y="690" on="0"/>
        <pt x="414" y="699" on="1"/>
        <pt x="414" y="713" on="0"/>
        <pt x="375" y="722" on="0"/>
        <pt x="331" y="722" on="1"/>
        <pt x="331" y="770" on="1"/>
        <pt x="1054" y="770" on="1"/>
        <pt x="1054" y="574" on="1"/>
        <pt x="1012" y="574" on="1"/>
        <pt x="1006" y="617" on="0"/>
        <pt x="980" y="672" on="0"/>
        <pt x="934" y="704" on="0"/>
        <pt x="862" y="717" on="0"/>
        <pt x="810" y="717" on="1"/>
        <pt x="676" y="717" on="1"/>
        <pt x="658" y="717" on="0"/>
        <pt x="658" y="700" on="1"/>
        <pt x="658" y="426" on="1"/>
        <pt x="722" y="426" on="0"/>
        <pt x="800" y="434" on="0"/>
        <pt x="844" y="460" on="0"/>
        <pt x="861" y="508" on="0"/>
        <pt x="866" y="548" on="1"/>
        <pt x="903" y="548" on="1"/>
        <pt x="903" y="255" on="1"/>
        <pt x="866" y="255" on="1"/>
        <pt x="860" y="292" on="0"/>
        <pt x="842" y="339" on="0"/>
        <pt x="800" y="366" on="0"/>
        <pt x="723" y="376" on="0"/>
        <pt x="658" y="376" on="1"/>
        <pt x="658" y="167" on="1"/>
        <pt x="658" y="134" on="0"/>
        <pt x="675" y="91" on="0"/>
        <pt x="716" y="64" on="0"/>
        <pt x="783" y="53" on="0"/>
        <pt x="833" y="53" on="1"/>
        <pt x="887" y="53" on="0"/>
        <pt x="963" y="70" on="0"/>
        <pt x="1014" y="110" on="0"/>
        <pt x="1046" y="177" on="0"/>
        <pt x="1056" y="227" on="1"/>
        <pt x="1100" y="227" on="1"/>
        <pt x="1085" y="0" on="1"/>
        <pt x="406" y="0" on="1"/>
      </contour>
      <contour>
        <pt x="511" y="334" on="1"/>
        <pt x="511" y="721" on="1"/>
        <pt x="297" y="334" on="1"/>
      </contour>
    </TTGlyph>
    <TTGlyph name="AEacute" xMin="-22" yMin="0" xMax="1100" yMax="960">
      <contour>
        <pt x="406" y="41" on="1"/>
        <pt x="439" y="42" on="0"/>
        <pt x="481" y="52" on="0"/>
        <pt x="503" y="76" on="0"/>
        <pt x="511" y="120" on="0"/>
        <pt x="511" y="155" on="1"/>
        <pt x="511" y="274" on="1"/>
        <pt x="263" y="274" on="1"/>
        <pt x="230" y="214" on="0"/>
        <pt x="193" y="146" on="0"/>
        <pt x="176" y="109" on="0"/>
        <pt x="173" y="92" on="0"/>
        <pt x="173" y="83" on="1"/>
        <pt x="173" y="67" on="0"/>
        <pt x="187" y="51" on="0"/>
        <pt x="209" y="44" on="0"/>
        <pt x="236" y="42" on="0"/>
        <pt x="250" y="41" on="1"/>
        <pt x="250" y="0" on="1"/>
        <pt x="-22" y="0" on="1"/>
        <pt x="-22" y="41" on="1"/>
        <pt x="2" y="44" on="0"/>
        <pt x="38" y="54" on="0"/>
        <pt x="66" y="72" on="0"/>
        <pt x="91" y="101" on="0"/>
        <pt x="103" y="122" on="1"/>
        <pt x="113" y="139" on="0"/>
        <pt x="132" y="174" on="0"/>
        <pt x="160" y="224" on="0"/>
        <pt x="200" y="298" on="0"/>
        <pt x="261" y="410" on="0"/>
        <pt x="347" y="566" on="0"/>
        <pt x="406" y="674" on="1"/>
        <pt x="414" y="690" on="0"/>
        <pt x="414" y="699" on="1"/>
        <pt x="414" y="713" on="0"/>
        <pt x="375" y="722" on="0"/>
        <pt x="331" y="722" on="1"/>
        <pt x="331" y="770" on="1"/>
        <pt x="1054" y="770" on="1"/>
        <pt x="1054" y="574" on="1"/>
        <pt x="1012" y="574" on="1"/>
        <pt x="1006" y="617" on="0"/>
        <pt x="980" y="672" on="0"/>
        <pt x="934" y="704" on="0"/>
        <pt x="862" y="717" on="0"/>
        <pt x="810" y="717" on="1"/>
        <pt x="676" y="717" on="1"/>
        <pt x="658" y="717" on="0"/>
        <pt x="658" y="700" on="1"/>
        <pt x="658" y="426" on="1"/>
        <pt x="722" y="426" on="0"/>
        <pt x="800" y="434" on="0"/>
        <pt x="844" y="460" on="0"/>
        <pt x="861" y="508" on="0"/>
        <pt x="866" y="548" on="1"/>
        <pt x="903" y="548" on="1"/>
        <pt x="903" y="255" on="1"/>
        <pt x="866" y="255" on="1"/>
        <pt x="860" y="292" on="0"/>
        <pt x="842" y="339" on="0"/>
        <pt x="800" y="366" on="0"/>
        <pt x="723" y="376" on="0"/>
        <pt x="658" y="376" on="1"/>
        <pt x="658" y="167" on="1"/>
        <pt x="658" y="134" on="0"/>
        <pt x="675" y="91" on="0"/>
        <pt x="716" y="64" on="0"/>
        <pt x="783" y="53" on="0"/>
        <pt x="833" y="53" on="1"/>
        <pt x="887" y="53" on="0"/>
        <pt x="963" y="70" on="0"/>
        <pt x="1014" y="110" on="0"/>
        <pt x="1046" y="177" on="0"/>
        <pt x="1056" y="227" on="1"/>
        <pt x="1100" y="227" on="1"/>
        <pt x="1085" y="0" on="1"/>
        <pt x="406" y="0" on="1"/>
      </contour>
      <contour>
        <pt x="511" y="334" on="1"/>
        <pt x="511" y="721" on="1"/>
        <pt x="297" y="334" on="1"/>
      </contour>
      <contour>
        <pt x="539" y="830" on="1"/>
        <pt x="665" y="927" on="1"/>
        <pt x="685" y="942" on="0"/>
        <pt x="733" y="960" on="0"/>
        <pt x="759" y="960" on="1"/>
        <pt x="787" y="960" on="0"/>
        <pt x="816" y="940" on="0"/>
        <pt x="816" y="923" on="1"/>
        <pt x="816" y="900" on="0"/>
        <pt x="780" y="871" on="0"/>
        <pt x="728" y="858" on="1"/>
        <pt x="612" y="830" on="1"/>
      </contour>
    </TTGlyph>
    <TTGlyph name="Aacute" xMin="-13" yMin="0" xMax="838" yMax="960">
      <contour>
        <pt x="501" y="233" on="1"/>
        <pt x="218" y="233" on="1"/>
        <pt x="171" y="127" on="0"/>
        <pt x="171" y="86" on="1"/>
        <pt x="171" y="56" on="0"/>
        <pt x="216" y="40" on="0"/>
        <pt x="261" y="40" on="1"/>
        <pt x="261" y="0" on="1"/>
        <pt x="-13" y="0" on="1"/>
        <pt x="-13" y="40" on="1"/>
        <pt x="11" y="43" on="0"/>
        <pt x="46" y="53" on="0"/>
        <pt x="73" y="71" on="0"/>
        <pt x="93" y="100" on="0"/>
        <pt x="102" y="121" on="1"/>
        <pt x="365" y="780" on="1"/>
        <pt x="439" y="780" on="1"/>
        <pt x="678" y="196" on="1"/>
        <pt x="699" y="145" on="0"/>
        <pt x="728" y="87" on="0"/>
        <pt x="761" y="56" on="0"/>
        <pt x="804" y="44" on="0"/>
        <pt x="838" y="41" on="1"/>
        <pt x="838" y="0" on="1"/>
        <pt x="460" y="0" on="1"/>
        <pt x="460" y="41" on="1"/>
        <pt x="508" y="43" on="0"/>
        <pt x="550" y="59" on="0"/>
        <pt x="550" y="83" on="1"/>
        <pt x="550" y="97" on="0"/>
        <pt x="536" y="141" on="0"/>
        <pt x="524" y="173" on="1"/>
      </contour>
      <contour>
        <pt x="241" y="293" on="1"/>
        <pt x="479" y="293" on="1"/>
        <pt x="364" y="596" on="1"/>
        <pt x="360" y="596" on="1"/>
      </contour>
      <contour>
        <pt x="364" y="830" on="1"/>
        <pt x="490" y="927" on="1"/>
        <pt x="510" y="942" on="0"/>
        <pt x="558" y="960" on="0"/>
        <pt x="584" y="960" on="1"/>
        <pt x="612" y="960" on="0"/>
        <pt x="641" y="940" on="0"/>
        <pt x="641" y="923" on="1"/>
        <pt x="641" y="900" on="0"/>
        <pt x="605" y="871" on="0"/>
        <pt x="553" y="858" on="1"/>
        <pt x="437" y="830" on="1"/>
      </contour>
    </TTGlyph>
    <TTGlyph name="Abreve" xMin="-13" yMin="0" xMax="838" yMax="960">
      <contour>
        <pt x="501" y="233" on="1"/>
        <pt x="218" y="233" on="1"/>
        <pt x="171" y="127" on="0"/>
        <pt x="171" y="86" on="1"/>
        <pt x="171" y="56" on="0"/>
        <pt x="216" y="40" on="0"/>
        <pt x="261" y="40" on="1"/>
        <pt x="261" y="0" on="1"/>
        <pt x="-13" y="0" on="1"/>
        <pt x="-13" y="40" on="1"/>
        <pt x="11" y="43" on="0"/>
        <pt x="46" y="53" on="0"/>
        <pt x="73" y="71" on="0"/>
        <pt x="93" y="100" on="0"/>
        <pt x="102" y="121" on="1"/>
        <pt x="365" y="780" on="1"/>
        <pt x="439" y="780" on="1"/>
        <pt x="678" y="196" on="1"/>
        <pt x="699" y="145" on="0"/>
        <pt x="728" y="87" on="0"/>
        <pt x="761" y="56" on="0"/>
        <pt x="804" y="44" on="0"/>
        <pt x="838" y="41" on="1"/>
        <pt x="838" y="0" on="1"/>
        <pt x="460" y="0" on="1"/>
        <pt x="460" y="41" on="1"/>
        <pt x="508" y="43" on="0"/>
        <pt x="550" y="59" on="0"/>
        <pt x="550" y="83" on="1"/>
        <pt x="550" y="97" on="0"/>
        <pt x="536" y="141" on="0"/>
        <pt x="524" y="173" on="1"/>
      </contour>
      <contour>
        <pt x="241" y="293" on="1"/>
        <pt x="479" y="293" on="1"/>
        <pt x="364" y="596" on="1"/>
        <pt x="360" y="596" on="1"/>
      </contour>
      <contour>
        <pt x="548" y="960" on="1"/>
        <pt x="546" y="931" on="0"/>
        <pt x="522" y="884" on="0"/>
        <pt x="482" y="849" on="0"/>
        <pt x="429" y="830" on="0"/>
        <pt x="398" y="830" on="1"/>
        <pt x="366" y="830" on="0"/>
        <pt x="313" y="850" on="0"/>
        <pt x="273" y="884" on="0"/>
        <pt x="249" y="932" on="0"/>
        <pt x="248" y="960" on="1"/>
        <pt x="291" y="960" on="1"/>
        <pt x="300" y="941" on="0"/>
        <pt x="358" y="919" on="0"/>
        <pt x="397" y="919" on="1"/>
        <pt x="436" y="919" on="0"/>
        <pt x="495" y="941" on="0"/>
        <pt x="504" y="960" on="1"/>
      </contour>
    </TTGlyph>
    <TTGlyph name="Acircumflex" xMin="-13" yMin="0" xMax="838" yMax="960">
      <contour>
        <pt x="501" y="233" on="1"/>
        <pt x="218" y="233" on="1"/>
        <pt x="171" y="127" on="0"/>
        <pt x="171" y="86" on="1"/>
        <pt x="171" y="56" on="0"/>
        <pt x="216" y="40" on="0"/>
        <pt x="261" y="40" on="1"/>
        <pt x="261" y="0" on="1"/>
        <pt x="-13" y="0" on="1"/>
        <pt x="-13" y="40" on="1"/>
        <pt x="11" y="43" on="0"/>
        <pt x="46" y="53" on="0"/>
        <pt x="73" y="71" on="0"/>
        <pt x="93" y="100" on="0"/>
        <pt x="102" y="121" on="1"/>
        <pt x="365" y="780" on="1"/>
        <pt x="439" y="780" on="1"/>
        <pt x="678" y="196" on="1"/>
        <pt x="699" y="145" on="0"/>
        <pt x="728" y="87" on="0"/>
        <pt x="761" y="56" on="0"/>
        <pt x="804" y="44" on="0"/>
        <pt x="838" y="41" on="1"/>
        <pt x="838" y="0" on="1"/>
        <pt x="460" y="0" on="1"/>
        <pt x="460" y="41" on="1"/>
        <pt x="508" y="43" on="0"/>
        <pt x="550" y="59" on="0"/>
        <pt x="550" y="83" on="1"/>
        <pt x="550" y="97" on="0"/>
        <pt x="536" y="141" on="0"/>
        <pt x="524" y="173" on="1"/>
      </contour>
      <contour>
        <pt x="241" y="293" on="1"/>
        <pt x="479" y="293" on="1"/>
        <pt x="364" y="596" on="1"/>
        <pt x="360" y="596" on="1"/>
      </contour>
      <contour>
        <pt x="456" y="960" on="1"/>
        <pt x="580" y="830" on="1"/>
        <pt x="513" y="830" on="1"/>
        <pt x="398" y="879" on="1"/>
        <pt x="283" y="830" on="1"/>
        <pt x="216" y="830" on="1"/>
        <pt x="340" y="960" on="1"/>
      </contour>
    </TTGlyph>
    <TTGlyph name="Adieresis" xMin="-13" yMin="0" xMax="838" yMax="960">
      <contour>
        <pt x="501" y="233" on="1"/>
        <pt x="218" y="233" on="1"/>
        <pt x="171" y="127" on="0"/>
        <pt x="171" y="86" on="1"/>
        <pt x="171" y="56" on="0"/>
        <pt x="216" y="40" on="0"/>
        <pt x="261" y="40" on="1"/>
        <pt x="261" y="0" on="1"/>
        <pt x="-13" y="0" on="1"/>
        <pt x="-13" y="40" on="1"/>
        <pt x="11" y="43" on="0"/>
        <pt x="46" y="53" on="0"/>
        <pt x="73" y="71" on="0"/>
        <pt x="93" y="100" on="0"/>
        <pt x="102" y="121" on="1"/>
        <pt x="365" y="780" on="1"/>
        <pt x="439" y="780" on="1"/>
        <pt x="678" y="196" on="1"/>
        <pt x="699" y="145" on="0"/>
        <pt x="728" y="87" on="0"/>
        <pt x="761" y="56" on="0"/>
        <pt x="804" y="44" on="0"/>
        <pt x="838" y="41" on="1"/>
        <pt x="838" y="0" on="1"/>
        <pt x="460" y="0" on="1"/>
        <pt x="460" y="41" on="1"/>
        <pt x="508" y="43" on="0"/>
        <pt x="550" y="59" on="0"/>
        <pt x="550" y="83" on="1"/>
        <pt x="550" y="97" on="0"/>
        <pt x="536" y="141" on="0"/>
        <pt x="524" y="173" on="1"/>
      </contour>
      <contour>
        <pt x="241" y="293" on="1"/>
        <pt x="479" y="293" on="1"/>
        <pt x="364" y="596" on="1"/>
        <pt x="360" y="596" on="1"/>
      </contour>
      <contour>
        <pt x="235" y="903" on="1"/>
        <pt x="235" y="928" on="0"/>
        <pt x="269" y="960" on="0"/>
        <pt x="295" y="960" on="1"/>
        <pt x="322" y="960" on="0"/>
        <pt x="357" y="928" on="0"/>
        <pt x="357" y="903" on="1"/>
        <pt x="357" y="877" on="0"/>
        <pt x="322" y="844" on="0"/>
        <pt x="295" y="844" on="1"/>
        <pt x="269" y="844" on="0"/>
        <pt x="235" y="877" on="0"/>
      </contour>
      <contour>
        <pt x="452" y="903" on="1"/>
        <pt x="452" y="928" on="0"/>
        <pt x="487" y="960" on="0"/>
        <pt x="514" y="960" on="1"/>
        <pt x="539" y="960" on="0"/>
        <pt x="574" y="928" on="0"/>
        <pt x="574" y="903" on="1"/>
        <pt x="574" y="877" on="0"/>
        <pt x="539" y="844" on="0"/>
        <pt x="514" y="844" on="1"/>
        <pt x="487" y="844" on="0"/>
        <pt x="452" y="877" on="0"/>
      </contour>
    </TTGlyph>
    <TTGlyph name="Agrave" xMin="-13" yMin="0" xMax="838" yMax="960">
      <contour>
        <pt x="501" y="233" on="1"/>
        <pt x="218" y="233" on="1"/>
        <pt x="171" y="127" on="0"/>
        <pt x="171" y="86" on="1"/>
        <pt x="171" y="56" on="0"/>
        <pt x="216" y="40" on="0"/>
        <pt x="261" y="40" on="1"/>
        <pt x="261" y="0" on="1"/>
        <pt x="-13" y="0" on="1"/>
        <pt x="-13" y="40" on="1"/>
        <pt x="11" y="43" on="0"/>
        <pt x="46" y="53" on="0"/>
        <pt x="73" y="71" on="0"/>
        <pt x="93" y="100" on="0"/>
        <pt x="102" y="121" on="1"/>
        <pt x="365" y="780" on="1"/>
        <pt x="439" y="780" on="1"/>
        <pt x="678" y="196" on="1"/>
        <pt x="699" y="145" on="0"/>
        <pt x="728" y="87" on="0"/>
        <pt x="761" y="56" on="0"/>
        <pt x="804" y="44" on="0"/>
        <pt x="838" y="41" on="1"/>
        <pt x="838" y="0" on="1"/>
        <pt x="460" y="0" on="1"/>
        <pt x="460" y="41" on="1"/>
        <pt x="508" y="43" on="0"/>
        <pt x="550" y="59" on="0"/>
        <pt x="550" y="83" on="1"/>
        <pt x="550" y="97" on="0"/>
        <pt x="536" y="141" on="0"/>
        <pt x="524" y="173" on="1"/>
      </contour>
      <contour>
        <pt x="241" y="293" on="1"/>
        <pt x="479" y="293" on="1"/>
        <pt x="364" y="596" on="1"/>
        <pt x="360" y="596" on="1"/>
      </contour>
      <contour>
        <pt x="369" y="830" on="1"/>
        <pt x="253" y="858" on="1"/>
        <pt x="201" y="871" on="0"/>
        <pt x="165" y="900" on="0"/>
        <pt x="165" y="923" on="1"/>
        <pt x="165" y="940" on="0"/>
        <pt x="194" y="960" on="0"/>
        <pt x="222" y="960" on="1"/>
        <pt x="248" y="960" on="0"/>
        <pt x="296" y="942" on="0"/>
        <pt x="316" y="927" on="1"/>
        <pt x="442" y="830" on="1"/>
      </contour>
    </TTGlyph>
    <TTGlyph name="Amacron" xMin="-13" yMin="0" xMax="838" yMax="930">
      <contour>
        <pt x="501" y="233" on="1"/>
        <pt x="218" y="233" on="1"/>
        <pt x="171" y="127" on="0"/>
        <pt x="171" y="86" on="1"/>
        <pt x="171" y="56" on="0"/>
        <pt x="216" y="40" on="0"/>
        <pt x="261" y="40" on="1"/>
        <pt x="261" y="0" on="1"/>
        <pt x="-13" y="0" on="1"/>
        <pt x="-13" y="40" on="1"/>
        <pt x="11" y="43" on="0"/>
        <pt x="46" y="53" on="0"/>
        <pt x="73" y="71" on="0"/>
        <pt x="93" y="100" on="0"/>
        <pt x="102" y="121" on="1"/>
        <pt x="365" y="780" on="1"/>
        <pt x="439" y="780" on="1"/>
        <pt x="678" y="196" on="1"/>
        <pt x="699" y="145" on="0"/>
        <pt x="728" y="87" on="0"/>
        <pt x="761" y="56" on="0"/>
        <pt x="804" y="44" on="0"/>
        <pt x="838" y="41" on="1"/>
        <pt x="838" y="0" on="1"/>
        <pt x="460" y="0" on="1"/>
        <pt x="460" y="41" on="1"/>
        <pt x="508" y="43" on="0"/>
        <pt x="550" y="59" on="0"/>
        <pt x="550" y="83" on="1"/>
        <pt x="550" y="97" on="0"/>
        <pt x="536" y="141" on="0"/>
        <pt x="524" y="173" on="1"/>
      </contour>
      <contour>
        <pt x="241" y="293" on="1"/>
        <pt x="479" y="293" on="1"/>
        <pt x="364" y="596" on="1"/>
        <pt x="360" y="596" on="1"/>
      </contour>
      <contour>
        <pt x="256" y="865" on="1"/>
        <pt x="256" y="930" on="1"/>
        <pt x="540" y="930" on="1"/>
        <pt x="540" y="865" on="1"/>
      </contour>
    </TTGlyph>
    <TTGlyph name="Aogonek" xMin="-13" yMin="-239" xMax="838" yMax="780">
      <contour>
        <pt x="733" y="-152" on="1"/>
        <pt x="701" y="-194" on="0"/>
        <pt x="615" y="-239" on="0"/>
        <pt x="567" y="-239" on="1"/>
        <pt x="457" y="-239" on="0"/>
        <pt x="457" y="-151" on="1"/>
        <pt x="457" y="-106" on="0"/>
        <pt x="536" y="-29" on="0"/>
        <pt x="609" y="0" on="1"/>
        <pt x="460" y="0" on="1"/>
        <pt x="460" y="41" on="1"/>
        <pt x="508" y="43" on="0"/>
        <pt x="550" y="59" on="0"/>
        <pt x="550" y="83" on="1"/>
        <pt x="550" y="97" on="0"/>
        <pt x="536" y="141" on="0"/>
        <pt x="524" y="173" on="1"/>
        <pt x="501" y="233" on="1"/>
        <pt x="218" y="233" on="1"/>
        <pt x="171" y="127" on="0"/>
        <pt x="171" y="86" on="1"/>
        <pt x="171" y="56" on="0"/>
        <pt x="216" y="40" on="0"/>
        <pt x="261" y="40" on="1"/>
        <pt x="261" y="0" on="1"/>
        <pt x="-13" y="0" on="1"/>
        <pt x="-13" y="40" on="1"/>
        <pt x="11" y="43" on="0"/>
        <pt x="46" y="53" on="0"/>
        <pt x="73" y="71" on="0"/>
        <pt x="93" y="100" on="0"/>
        <pt x="102" y="121" on="1"/>
        <pt x="365" y="780" on="1"/>
        <pt x="439" y="780" on="1"/>
        <pt x="678" y="196" on="1"/>
        <pt x="699" y="145" on="0"/>
        <pt x="728" y="87" on="0"/>
        <pt x="761" y="56" on="0"/>
        <pt x="804" y="44" on="0"/>
        <pt x="838" y="41" on="1"/>
        <pt x="838" y="0" on="1"/>
        <pt x="684" y="0" on="1"/>
        <pt x="629" y="-24" on="0"/>
        <pt x="560" y="-93" on="0"/>
        <pt x="560" y="-124" on="1"/>
        <pt x="560" y="-144" on="0"/>
        <pt x="587" y="-169" on="0"/>
        <pt x="609" y="-169" on="1"/>
        <pt x="631" y="-169" on="0"/>
        <pt x="678" y="-141" on="0"/>
        <pt x="698" y="-116" on="1"/>
      </contour>
      <contour>
        <pt x="241" y="293" on="1"/>
        <pt x="479" y="293" on="1"/>
        <pt x="364" y="596" on="1"/>
        <pt x="360" y="596" on="1"/>
      </contour>
    </TTGlyph>
    <TTGlyph name="Aring" xMin="-13" yMin="0" xMax="838" yMax="960">
      <contour>
        <pt x="501" y="233" on="1"/>
        <pt x="218" y="233" on="1"/>
        <pt x="171" y="127" on="0"/>
        <pt x="171" y="86" on="1"/>
        <pt x="171" y="56" on="0"/>
        <pt x="216" y="40" on="0"/>
        <pt x="261" y="40" on="1"/>
        <pt x="261" y="0" on="1"/>
        <pt x="-13" y="0" on="1"/>
        <pt x="-13" y="40" on="1"/>
        <pt x="11" y="43" on="0"/>
        <pt x="46" y="53" on="0"/>
        <pt x="73" y="71" on="0"/>
        <pt x="93" y="100" on="0"/>
        <pt x="102" y="121" on="1"/>
        <pt x="365" y="780" on="1"/>
        <pt x="439" y="780" on="1"/>
        <pt x="678" y="196" on="1"/>
        <pt x="699" y="145" on="0"/>
        <pt x="728" y="87" on="0"/>
        <pt x="761" y="56" on="0"/>
        <pt x="804" y="44" on="0"/>
        <pt x="838" y="41" on="1"/>
        <pt x="838" y="0" on="1"/>
        <pt x="460" y="0" on="1"/>
        <pt x="460" y="41" on="1"/>
        <pt x="508" y="43" on="0"/>
        <pt x="550" y="59" on="0"/>
        <pt x="550" y="83" on="1"/>
        <pt x="550" y="97" on="0"/>
        <pt x="536" y="141" on="0"/>
        <pt x="524" y="173" on="1"/>
      </contour>
      <contour>
        <pt x="241" y="293" on="1"/>
        <pt x="479" y="293" on="1"/>
        <pt x="364" y="596" on="1"/>
        <pt x="360" y="596" on="1"/>
      </contour>
      <contour>
        <pt x="337" y="895" on="1"/>
        <pt x="337" y="923" on="0"/>
        <pt x="376" y="960" on="0"/>
        <pt x="405" y="960" on="1"/>
        <pt x="434" y="960" on="0"/>
        <pt x="473" y="923" on="0"/>
        <pt x="473" y="895" on="1"/>
        <pt x="473" y="867" on="0"/>
        <pt x="434" y="830" on="0"/>
        <pt x="405" y="830" on="1"/>
        <pt x="376" y="830" on="0"/>
        <pt x="337" y="867" on="0"/>
      </contour>
      <contour>
        <pt x="379" y="895" on="1"/>
        <pt x="379" y="884" on="0"/>
        <pt x="394" y="871" on="0"/>
        <pt x="405" y="871" on="1"/>
        <pt x="416" y="871" on="0"/>
        <pt x="430" y="884" on="0"/>
        <pt x="430" y="895" on="1"/>
        <pt x="430" y="905" on="0"/>
        <pt x="416" y="918" on="0"/>
        <pt x="405" y="918" on="1"/>
        <pt x="394" y="918" on="0"/>
        <pt x="379" y="905" on="0"/>
      </contour>
    </TTGlyph>
    <TTGlyph name="Aringacute" xMin="-14" yMin="0" xMax="817" yMax="970">
      <contour>
        <pt x="500" y="279" on="1"/>
        <pt x="226" y="279" on="1"/>
        <pt x="193" y="208" on="0"/>
        <pt x="159" y="107" on="0"/>
        <pt x="159" y="87" on="1"/>
        <pt x="159" y="59" on="0"/>
        <pt x="199" y="38" on="0"/>
        <pt x="241" y="38" on="1"/>
        <pt x="241" y="0" on="1"/>
        <pt x="-14" y="0" on="1"/>
        <pt x="-14" y="38" on="1"/>
        <pt x="10" y="41" on="0"/>
        <pt x="45" y="51" on="0"/>
        <pt x="71" y="69" on="0"/>
        <pt x="91" y="98" on="0"/>
        <pt x="101" y="119" on="1"/>
        <pt x="374" y="720" on="1"/>
        <pt x="419" y="720" on="1"/>
        <pt x="687" y="140" on="1"/>
        <pt x="713" y="83" on="0"/>
        <pt x="773" y="39" on="0"/>
        <pt x="817" y="39" on="1"/>
        <pt x="817" y="0" on="1"/>
        <pt x="474" y="0" on="1"/>
        <pt x="474" y="39" on="1"/>
        <pt x="527" y="39" on="0"/>
        <pt x="574" y="59" on="0"/>
        <pt x="574" y="86" on="1"/>
        <pt x="574" y="101" on="0"/>
        <pt x="564" y="134" on="0"/>
        <pt x="548" y="171" on="1"/>
      </contour>
      <contour>
        <pt x="250" y="329" on="1"/>
        <pt x="477" y="329" on="1"/>
        <pt x="368" y="574" on="1"/>
      </contour>
      <contour>
        <pt x="326" y="878" on="1"/>
        <pt x="326" y="914" on="0"/>
        <pt x="374" y="960" on="0"/>
        <pt x="409" y="960" on="1"/>
        <pt x="434" y="960" on="0"/>
        <pt x="457" y="947" on="1"/>
        <pt x="470" y="960" on="0"/>
        <pt x="493" y="970" on="0"/>
        <pt x="506" y="970" on="1"/>
        <pt x="520" y="970" on="0"/>
        <pt x="536" y="956" on="0"/>
        <pt x="536" y="944" on="1"/>
        <pt x="536" y="930" on="0"/>
        <pt x="512" y="905" on="0"/>
        <pt x="491" y="894" on="1"/>
        <pt x="493" y="884" on="0"/>
        <pt x="493" y="878" on="1"/>
        <pt x="493" y="845" on="0"/>
        <pt x="446" y="799" on="0"/>
        <pt x="409" y="799" on="1"/>
        <pt x="378" y="799" on="0"/>
        <pt x="356" y="816" on="1"/>
        <pt x="322" y="801" on="1"/>
        <pt x="266" y="801" on="1"/>
        <pt x="328" y="857" on="1"/>
        <pt x="326" y="862" on="0"/>
        <pt x="326" y="872" on="0"/>
      </contour>
      <contour>
        <pt x="365" y="878" on="1"/>
        <pt x="365" y="860" on="0"/>
        <pt x="389" y="837" on="0"/>
        <pt x="409" y="837" on="1"/>
        <pt x="429" y="837" on="0"/>
        <pt x="454" y="860" on="0"/>
        <pt x="454" y="878" on="1"/>
        <pt x="454" y="897" on="0"/>
        <pt x="429" y="920" on="0"/>
        <pt x="409" y="920" on="1"/>
        <pt x="389" y="920" on="0"/>
        <pt x="365" y="897" on="0"/>
      </contour>
    </TTGlyph>
    <TTGlyph name="Atilde" xMin="-13" yMin="0" xMax="838" yMax="962">
      <contour>
        <pt x="501" y="233" on="1"/>
        <pt x="218" y="233" on="1"/>
        <pt x="171" y="127" on="0"/>
        <pt x="171" y="86" on="1"/>
        <pt x="171" y="56" on="0"/>
        <pt x="216" y="40" on="0"/>
        <pt x="261" y="40" on="1"/>
        <pt x="261" y="0" on="1"/>
        <pt x="-13" y="0" on="1"/>
        <pt x="-13" y="40" on="1"/>
        <pt x="11" y="43" on="0"/>
        <pt x="46" y="53" on="0"/>
        <pt x="73" y="71" on="0"/>
        <pt x="93" y="100" on="0"/>
        <pt x="102" y="121" on="1"/>
        <pt x="365" y="780" on="1"/>
        <pt x="439" y="780" on="1"/>
        <pt x="678" y="196" on="1"/>
        <pt x="699" y="145" on="0"/>
        <pt x="728" y="87" on="0"/>
        <pt x="761" y="56" on="0"/>
        <pt x="804" y="44" on="0"/>
        <pt x="838" y="41" on="1"/>
        <pt x="838" y="0" on="1"/>
        <pt x="460" y="0" on="1"/>
        <pt x="460" y="41" on="1"/>
        <pt x="508" y="43" on="0"/>
        <pt x="550" y="59" on="0"/>
        <pt x="550" y="83" on="1"/>
        <pt x="550" y="97" on="0"/>
        <pt x="536" y="141" on="0"/>
        <pt x="524" y="173" on="1"/>
      </contour>
      <contour>
        <pt x="241" y="293" on="1"/>
        <pt x="479" y="293" on="1"/>
        <pt x="364" y="596" on="1"/>
        <pt x="360" y="596" on="1"/>
      </contour>
      <contour>
        <pt x="225" y="828" on="1"/>
        <pt x="235" y="887" on="0"/>
        <pt x="301" y="962" on="0"/>
        <pt x="344" y="962" on="1"/>
        <pt x="351" y="962" on="0"/>
        <pt x="366" y="960" on="0"/>
        <pt x="386" y="954" on="0"/>
        <pt x="412" y="945" on="0"/>
        <pt x="431" y="938" on="1"/>
        <pt x="462" y="926" on="0"/>
        <pt x="496" y="916" on="0"/>
        <pt x="510" y="916" on="1"/>
        <pt x="529" y="916" on="0"/>
        <pt x="551" y="935" on="0"/>
        <pt x="559" y="958" on="1"/>
        <pt x="604" y="958" on="1"/>
        <pt x="600" y="932" on="0"/>
        <pt x="576" y="876" on="0"/>
        <pt x="560" y="856" on="1"/>
        <pt x="530" y="820" on="0"/>
        <pt x="487" y="820" on="1"/>
        <pt x="469" y="820" on="0"/>
        <pt x="431" y="831" on="0"/>
        <pt x="402" y="845" on="1"/>
        <pt x="379" y="856" on="0"/>
        <pt x="332" y="868" on="0"/>
        <pt x="315" y="868" on="1"/>
        <pt x="298" y="868" on="0"/>
        <pt x="279" y="851" on="0"/>
        <pt x="271" y="828" on="1"/>
      </contour>
    </TTGlyph>
    <TTGlyph name="B" xMin="33" yMin="0" xMax="758" yMax="770">
      <contour>
        <pt x="33" y="0" on="1"/>
        <pt x="33" y="40" on="1"/>
        <pt x="67" y="41" on="0"/>
        <pt x="108" y="51" on="0"/>
        <pt x="131" y="75" on="0"/>
        <pt x="139" y="119" on="0"/>
        <pt x="139" y="154" on="1"/>
        <pt x="139" y="616" on="1"/>
        <pt x="139" y="651" on="0"/>
        <pt x="133" y="694" on="0"/>
        <pt x="114" y="719" on="0"/>
        <pt x="81" y="728" on="0"/>
        <pt x="54" y="730" on="1"/>
        <pt x="54" y="770" on="1"/>
        <pt x="375" y="770" on="1"/>
        <pt x="526" y="770" on="0"/>
        <pt x="689" y="673" on="0"/>
        <pt x="689" y="583" on="1"/>
        <pt x="689" y="464" on="0"/>
        <pt x="518" y="415" on="1"/>
        <pt x="518" y="411" on="1"/>
        <pt x="573" y="411" on="0"/>
        <pt x="662" y="380" on="0"/>
        <pt x="724" y="324" on="0"/>
        <pt x="758" y="248" on="0"/>
        <pt x="758" y="203" on="1"/>
        <pt x="758" y="152" on="0"/>
        <pt x="709" y="76" on="0"/>
        <pt x="663" y="50" on="1"/>
        <pt x="574" y="0" on="0"/>
        <pt x="418" y="0" on="1"/>
      </contour>
      <contour>
        <pt x="425" y="61" on="1"/>
        <pt x="586" y="61" on="0"/>
        <pt x="586" y="206" on="1"/>
        <pt x="586" y="295" on="0"/>
        <pt x="528" y="336" on="1"/>
        <pt x="498" y="357" on="0"/>
        <pt x="403" y="375" on="0"/>
        <pt x="334" y="375" on="1"/>
        <pt x="286" y="375" on="1"/>
        <pt x="286" y="175" on="1"/>
        <pt x="286" y="113" on="0"/>
        <pt x="350" y="61" on="0"/>
      </contour>
      <contour>
        <pt x="345" y="435" on="1"/>
        <pt x="390" y="435" on="0"/>
        <pt x="456" y="452" on="0"/>
        <pt x="479" y="468" on="1"/>
        <pt x="527" y="501" on="0"/>
        <pt x="527" y="571" on="1"/>
        <pt x="527" y="644" on="0"/>
        <pt x="455" y="709" on="0"/>
        <pt x="375" y="709" on="1"/>
        <pt x="304" y="709" on="1"/>
        <pt x="286" y="709" on="0"/>
        <pt x="286" y="692" on="1"/>
        <pt x="286" y="435" on="1"/>
      </contour>
    </TTGlyph>
    <TTGlyph name="C" xMin="47" yMin="-10" xMax="775" yMax="780">
      <contour>
        <pt x="707" y="770" on="1"/>
        <pt x="756" y="770" on="1"/>
        <pt x="736" y="517" on="1"/>
        <pt x="696" y="517" on="1"/>
        <pt x="675" y="609" on="0"/>
        <pt x="554" y="715" on="0"/>
        <pt x="468" y="715" on="1"/>
        <pt x="409" y="715" on="0"/>
        <pt x="317" y="668" on="0"/>
        <pt x="254" y="581" on="0"/>
        <pt x="221" y="456" on="0"/>
        <pt x="221" y="378" on="1"/>
        <pt x="221" y="223" on="0"/>
        <pt x="348" y="56" on="0"/>
        <pt x="472" y="56" on="1"/>
        <pt x="572" y="56" on="0"/>
        <pt x="703" y="164" on="0"/>
        <pt x="731" y="271" on="1"/>
        <pt x="775" y="271" on="1"/>
        <pt x="775" y="0" on="1"/>
        <pt x="728" y="0" on="1"/>
        <pt x="714" y="79" on="1"/>
        <pt x="604" y="-10" on="0"/>
        <pt x="447" y="-10" on="1"/>
        <pt x="356" y="-10" on="0"/>
        <pt x="208" y="44" on="0"/>
        <pt x="104" y="143" on="0"/>
        <pt x="47" y="285" on="0"/>
        <pt x="47" y="372" on="1"/>
        <pt x="47" y="463" on="0"/>
        <pt x="107" y="613" on="0"/>
        <pt x="216" y="721" on="0"/>
        <pt x="367" y="780" on="0"/>
        <pt x="459" y="780" on="1"/>
        <pt x="520" y="780" on="0"/>
        <pt x="626" y="746" on="0"/>
        <pt x="688" y="708" on="1"/>
      </contour>
    </TTGlyph>
    <TTGlyph name="Cacute" xMin="47" yMin="-10" xMax="775" yMax="960">
      <contour>
        <pt x="707" y="770" on="1"/>
        <pt x="756" y="770" on="1"/>
        <pt x="736" y="517" on="1"/>
        <pt x="696" y="517" on="1"/>
        <pt x="675" y="609" on="0"/>
        <pt x="554" y="715" on="0"/>
        <pt x="468" y="715" on="1"/>
        <pt x="409" y="715" on="0"/>
        <pt x="317" y="668" on="0"/>
        <pt x="254" y="581" on="0"/>
        <pt x="221" y="456" on="0"/>
        <pt x="221" y="378" on="1"/>
        <pt x="221" y="223" on="0"/>
        <pt x="348" y="56" on="0"/>
        <pt x="472" y="56" on="1"/>
        <pt x="572" y="56" on="0"/>
        <pt x="703" y="164" on="0"/>
        <pt x="731" y="271" on="1"/>
        <pt x="775" y="271" on="1"/>
        <pt x="775" y="0" on="1"/>
        <pt x="728" y="0" on="1"/>
        <pt x="714" y="79" on="1"/>
        <pt x="604" y="-10" on="0"/>
        <pt x="447" y="-10" on="1"/>
        <pt x="356" y="-10" on="0"/>
        <pt x="208" y="44" on="0"/>
        <pt x="104" y="143" on="0"/>
        <pt x="47" y="285" on="0"/>
        <pt x="47" y="372" on="1"/>
        <pt x="47" y="463" on="0"/>
        <pt x="107" y="613" on="0"/>
        <pt x="216" y="721" on="0"/>
        <pt x="367" y="780" on="0"/>
        <pt x="459" y="780" on="1"/>
        <pt x="520" y="780" on="0"/>
        <pt x="626" y="746" on="0"/>
        <pt x="688" y="708" on="1"/>
      </contour>
      <contour>
        <pt x="319" y="830" on="1"/>
        <pt x="445" y="927" on="1"/>
        <pt x="465" y="942" on="0"/>
        <pt x="513" y="960" on="0"/>
        <pt x="539" y="960" on="1"/>
        <pt x="567" y="960" on="0"/>
        <pt x="596" y="940" on="0"/>
        <pt x="596" y="923" on="1"/>
        <pt x="596" y="900" on="0"/>
        <pt x="560" y="871" on="0"/>
        <pt x="508" y="858" on="1"/>
        <pt x="392" y="830" on="1"/>
      </contour>
    </TTGlyph>
    <TTGlyph name="Ccaron" xMin="47" yMin="-10" xMax="775" yMax="960">
      <contour>
        <pt x="707" y="770" on="1"/>
        <pt x="756" y="770" on="1"/>
        <pt x="736" y="517" on="1"/>
        <pt x="696" y="517" on="1"/>
        <pt x="675" y="609" on="0"/>
        <pt x="554" y="715" on="0"/>
        <pt x="468" y="715" on="1"/>
        <pt x="409" y="715" on="0"/>
        <pt x="317" y="668" on="0"/>
        <pt x="254" y="581" on="0"/>
        <pt x="221" y="456" on="0"/>
        <pt x="221" y="378" on="1"/>
        <pt x="221" y="223" on="0"/>
        <pt x="348" y="56" on="0"/>
        <pt x="472" y="56" on="1"/>
        <pt x="572" y="56" on="0"/>
        <pt x="703" y="164" on="0"/>
        <pt x="731" y="271" on="1"/>
        <pt x="775" y="271" on="1"/>
        <pt x="775" y="0" on="1"/>
        <pt x="728" y="0" on="1"/>
        <pt x="714" y="79" on="1"/>
        <pt x="604" y="-10" on="0"/>
        <pt x="447" y="-10" on="1"/>
        <pt x="356" y="-10" on="0"/>
        <pt x="208" y="44" on="0"/>
        <pt x="104" y="143" on="0"/>
        <pt x="47" y="285" on="0"/>
        <pt x="47" y="372" on="1"/>
        <pt x="47" y="463" on="0"/>
        <pt x="107" y="613" on="0"/>
        <pt x="216" y="721" on="0"/>
        <pt x="367" y="780" on="0"/>
        <pt x="459" y="780" on="1"/>
        <pt x="520" y="780" on="0"/>
        <pt x="626" y="746" on="0"/>
        <pt x="688" y="708" on="1"/>
      </contour>
      <contour>
        <pt x="400" y="830" on="1"/>
        <pt x="276" y="960" on="1"/>
        <pt x="343" y="960" on="1"/>
        <pt x="458" y="911" on="1"/>
        <pt x="573" y="960" on="1"/>
        <pt x="640" y="960" on="1"/>
        <pt x="516" y="830" on="1"/>
      </contour>
    </TTGlyph>
    <TTGlyph name="Ccedilla" xMin="47" yMin="-260" xMax="775" yMax="780">
      <contour>
        <pt x="707" y="770" on="1"/>
        <pt x="756" y="770" on="1"/>
        <pt x="736" y="517" on="1"/>
        <pt x="696" y="517" on="1"/>
        <pt x="675" y="609" on="0"/>
        <pt x="554" y="715" on="0"/>
        <pt x="468" y="715" on="1"/>
        <pt x="409" y="715" on="0"/>
        <pt x="317" y="668" on="0"/>
        <pt x="254" y="581" on="0"/>
        <pt x="221" y="456" on="0"/>
        <pt x="221" y="378" on="1"/>
        <pt x="221" y="223" on="0"/>
        <pt x="348" y="56" on="0"/>
        <pt x="472" y="56" on="1"/>
        <pt x="572" y="56" on="0"/>
        <pt x="703" y="164" on="0"/>
        <pt x="731" y="271" on="1"/>
        <pt x="775" y="271" on="1"/>
        <pt x="775" y="0" on="1"/>
        <pt x="728" y="0" on="1"/>
        <pt x="714" y="79" on="1"/>
        <pt x="610" y="-5" on="0"/>
        <pt x="464" y="-10" on="1"/>
        <pt x="442" y="-62" on="1"/>
        <pt x="505" y="-62" on="0"/>
        <pt x="577" y="-112" on="0"/>
        <pt x="577" y="-155" on="1"/>
        <pt x="577" y="-202" on="0"/>
        <pt x="498" y="-260" on="0"/>
        <pt x="435" y="-260" on="1"/>
        <pt x="378" y="-260" on="0"/>
        <pt x="304" y="-212" on="0"/>
        <pt x="304" y="-174" on="1"/>
        <pt x="304" y="-154" on="0"/>
        <pt x="323" y="-133" on="0"/>
        <pt x="340" y="-133" on="1"/>
        <pt x="354" y="-133" on="0"/>
        <pt x="372" y="-149" on="0"/>
        <pt x="381" y="-170" on="1"/>
        <pt x="391" y="-194" on="0"/>
        <pt x="410" y="-212" on="0"/>
        <pt x="427" y="-212" on="1"/>
        <pt x="447" y="-212" on="0"/>
        <pt x="471" y="-187" on="0"/>
        <pt x="471" y="-167" on="1"/>
        <pt x="471" y="-113" on="0"/>
        <pt x="395" y="-113" on="1"/>
        <pt x="387" y="-113" on="0"/>
        <pt x="363" y="-114" on="0"/>
        <pt x="356" y="-115" on="1"/>
        <pt x="354" y="-112" on="1"/>
        <pt x="400" y="-8" on="1"/>
        <pt x="319" y="-1" on="0"/>
        <pt x="188" y="58" on="0"/>
        <pt x="97" y="156" on="0"/>
        <pt x="47" y="290" on="0"/>
        <pt x="47" y="372" on="1"/>
        <pt x="47" y="463" on="0"/>
        <pt x="107" y="613" on="0"/>
        <pt x="216" y="721" on="0"/>
        <pt x="367" y="780" on="0"/>
        <pt x="459" y="780" on="1"/>
        <pt x="520" y="780" on="0"/>
        <pt x="626" y="746" on="0"/>
        <pt x="688" y="708" on="1"/>
      </contour>
    </TTGlyph>
    <TTGlyph name="Ccircumflex" xMin="47" yMin="-10" xMax="775" yMax="960">
      <contour>
        <pt x="707" y="770" on="1"/>
        <pt x="756" y="770" on="1"/>
        <pt x="736" y="517" on="1"/>
        <pt x="696" y="517" on="1"/>
        <pt x="675" y="609" on="0"/>
        <pt x="554" y="715" on="0"/>
        <pt x="468" y="715" on="1"/>
        <pt x="409" y="715" on="0"/>
        <pt x="317" y="668" on="0"/>
        <pt x="254" y="581" on="0"/>
        <pt x="221" y="456" on="0"/>
        <pt x="221" y="378" on="1"/>
        <pt x="221" y="223" on="0"/>
        <pt x="348" y="56" on="0"/>
        <pt x="472" y="56" on="1"/>
        <pt x="572" y="56" on="0"/>
        <pt x="703" y="164" on="0"/>
        <pt x="731" y="271" on="1"/>
        <pt x="775" y="271" on="1"/>
        <pt x="775" y="0" on="1"/>
        <pt x="728" y="0" on="1"/>
        <pt x="714" y="79" on="1"/>
        <pt x="604" y="-10" on="0"/>
        <pt x="447" y="-10" on="1"/>
        <pt x="356" y="-10" on="0"/>
        <pt x="208" y="44" on="0"/>
        <pt x="104" y="143" on="0"/>
        <pt x="47" y="285" on="0"/>
        <pt x="47" y="372" on="1"/>
        <pt x="47" y="463" on="0"/>
        <pt x="107" y="613" on="0"/>
        <pt x="216" y="721" on="0"/>
        <pt x="367" y="780" on="0"/>
        <pt x="459" y="780" on="1"/>
        <pt x="520" y="780" on="0"/>
        <pt x="626" y="746" on="0"/>
        <pt x="688" y="708" on="1"/>
      </contour>
      <contour>
        <pt x="514" y="960" on="1"/>
        <pt x="638" y="830" on="1"/>
        <pt x="571" y="830" on="1"/>
        <pt x="456" y="879" on="1"/>
        <pt x="341" y="830" on="1"/>
        <pt x="274" y="830" on="1"/>
        <pt x="398" y="960" on="1"/>
      </contour>
    </TTGlyph>
    <TTGlyph name="Cdotaccent" xMin="47" yMin="-10" xMax="775" yMax="959">
      <contour>
        <pt x="707" y="770" on="1"/>
        <pt x="756" y="770" on="1"/>
        <pt x="736" y="517" on="1"/>
        <pt x="696" y="517" on="1"/>
        <pt x="675" y="609" on="0"/>
        <pt x="554" y="715" on="0"/>
        <pt x="468" y="715" on="1"/>
        <pt x="409" y="715" on="0"/>
        <pt x="317" y="668" on="0"/>
        <pt x="254" y="581" on="0"/>
        <pt x="221" y="456" on="0"/>
        <pt x="221" y="378" on="1"/>
        <pt x="221" y="223" on="0"/>
        <pt x="348" y="56" on="0"/>
        <pt x="472" y="56" on="1"/>
        <pt x="572" y="56" on="0"/>
        <pt x="703" y="164" on="0"/>
        <pt x="731" y="271" on="1"/>
        <pt x="775" y="271" on="1"/>
        <pt x="775" y="0" on="1"/>
        <pt x="728" y="0" on="1"/>
        <pt x="714" y="79" on="1"/>
        <pt x="604" y="-10" on="0"/>
        <pt x="447" y="-10" on="1"/>
        <pt x="356" y="-10" on="0"/>
        <pt x="208" y="44" on="0"/>
        <pt x="104" y="143" on="0"/>
        <pt x="47" y="285" on="0"/>
        <pt x="47" y="372" on="1"/>
        <pt x="47" y="463" on="0"/>
        <pt x="107" y="613" on="0"/>
        <pt x="216" y="721" on="0"/>
        <pt x="367" y="780" on="0"/>
        <pt x="459" y="780" on="1"/>
        <pt x="520" y="780" on="0"/>
        <pt x="626" y="746" on="0"/>
        <pt x="688" y="708" on="1"/>
      </contour>
      <contour>
        <pt x="392" y="893" on="1"/>
        <pt x="392" y="921" on="0"/>
        <pt x="432" y="959" on="0"/>
        <pt x="458" y="959" on="1"/>
        <pt x="487" y="959" on="0"/>
        <pt x="528" y="921" on="0"/>
        <pt x="528" y="893" on="1"/>
        <pt x="528" y="867" on="0"/>
        <pt x="487" y="830" on="0"/>
        <pt x="458" y="830" on="1"/>
        <pt x="432" y="830" on="0"/>
        <pt x="392" y="867" on="0"/>
      </contour>
    </TTGlyph>
    <TTGlyph name="D" xMin="35" yMin="0" xMax="873" yMax="770">
      <contour>
        <pt x="35" y="0" on="1"/>
        <pt x="35" y="40" on="1"/>
        <pt x="68" y="41" on="0"/>
        <pt x="109" y="50" on="0"/>
        <pt x="132" y="75" on="0"/>
        <pt x="140" y="118" on="0"/>
        <pt x="140" y="154" on="1"/>
        <pt x="140" y="616" on="1"/>
        <pt x="140" y="651" on="0"/>
        <pt x="134" y="694" on="0"/>
        <pt x="114" y="719" on="0"/>
        <pt x="79" y="728" on="0"/>
        <pt x="51" y="730" on="1"/>
        <pt x="51" y="770" on="1"/>
        <pt x="431" y="770" on="1"/>
        <pt x="527" y="770" on="0"/>
        <pt x="689" y="710" on="0"/>
        <pt x="807" y="604" on="0"/>
        <pt x="873" y="458" on="0"/>
        <pt x="873" y="372" on="1"/>
        <pt x="873" y="290" on="0"/>
        <pt x="811" y="153" on="0"/>
        <pt x="700" y="55" on="0"/>
        <pt x="545" y="0" on="0"/>
        <pt x="452" y="0" on="1"/>
      </contour>
      <contour>
        <pt x="304" y="709" on="1"/>
        <pt x="287" y="709" on="0"/>
        <pt x="287" y="692" on="1"/>
        <pt x="287" y="175" on="1"/>
        <pt x="287" y="117" on="0"/>
        <pt x="359" y="61" on="0"/>
        <pt x="434" y="61" on="1"/>
        <pt x="565" y="61" on="0"/>
        <pt x="706" y="219" on="0"/>
        <pt x="706" y="370" on="1"/>
        <pt x="706" y="450" on="0"/>
        <pt x="668" y="576" on="0"/>
        <pt x="596" y="663" on="0"/>
        <pt x="493" y="709" on="0"/>
        <pt x="429" y="709" on="1"/>
      </contour>
    </TTGlyph>
    <TTGlyph name="Dcaron" xMin="35" yMin="0" xMax="873" yMax="960">
      <contour>
        <pt x="35" y="0" on="1"/>
        <pt x="35" y="40" on="1"/>
        <pt x="68" y="41" on="0"/>
        <pt x="109" y="50" on="0"/>
        <pt x="132" y="75" on="0"/>
        <pt x="140" y="118" on="0"/>
        <pt x="140" y="154" on="1"/>
        <pt x="140" y="616" on="1"/>
        <pt x="140" y="651" on="0"/>
        <pt x="134" y="694" on="0"/>
        <pt x="114" y="719" on="0"/>
        <pt x="79" y="728" on="0"/>
        <pt x="51" y="730" on="1"/>
        <pt x="51" y="770" on="1"/>
        <pt x="431" y="770" on="1"/>
        <pt x="527" y="770" on="0"/>
        <pt x="689" y="710" on="0"/>
        <pt x="807" y="604" on="0"/>
        <pt x="873" y="458" on="0"/>
        <pt x="873" y="372" on="1"/>
        <pt x="873" y="290" on="0"/>
        <pt x="811" y="153" on="0"/>
        <pt x="700" y="55" on="0"/>
        <pt x="545" y="0" on="0"/>
        <pt x="452" y="0" on="1"/>
      </contour>
      <contour>
        <pt x="304" y="709" on="1"/>
        <pt x="287" y="709" on="0"/>
        <pt x="287" y="692" on="1"/>
        <pt x="287" y="175" on="1"/>
        <pt x="287" y="117" on="0"/>
        <pt x="359" y="61" on="0"/>
        <pt x="434" y="61" on="1"/>
        <pt x="565" y="61" on="0"/>
        <pt x="706" y="219" on="0"/>
        <pt x="706" y="370" on="1"/>
        <pt x="706" y="450" on="0"/>
        <pt x="668" y="576" on="0"/>
        <pt x="596" y="663" on="0"/>
        <pt x="493" y="709" on="0"/>
        <pt x="429" y="709" on="1"/>
      </contour>
      <contour>
        <pt x="395" y="830" on="1"/>
        <pt x="271" y="960" on="1"/>
        <pt x="338" y="960" on="1"/>
        <pt x="453" y="911" on="1"/>
        <pt x="568" y="960" on="1"/>
        <pt x="635" y="960" on="1"/>
        <pt x="511" y="830" on="1"/>
      </contour>
    </TTGlyph>
    <TTGlyph name="Dcroat" xMin="36" yMin="0" xMax="874" yMax="770">
      <contour>
        <pt x="36" y="0" on="1"/>
        <pt x="36" y="40" on="1"/>
        <pt x="69" y="41" on="0"/>
        <pt x="110" y="50" on="0"/>
        <pt x="133" y="75" on="0"/>
        <pt x="141" y="118" on="0"/>
        <pt x="141" y="154" on="1"/>
        <pt x="141" y="370" on="1"/>
        <pt x="54" y="370" on="1"/>
        <pt x="54" y="430" on="1"/>
        <pt x="141" y="430" on="1"/>
        <pt x="141" y="616" on="1"/>
        <pt x="141" y="651" on="0"/>
        <pt x="135" y="694" on="0"/>
        <pt x="115" y="719" on="0"/>
        <pt x="80" y="728" on="0"/>
        <pt x="52" y="730" on="1"/>
        <pt x="52" y="770" on="1"/>
        <pt x="432" y="770" on="1"/>
        <pt x="528" y="770" on="0"/>
        <pt x="690" y="710" on="0"/>
        <pt x="808" y="604" on="0"/>
        <pt x="874" y="458" on="0"/>
        <pt x="874" y="372" on="1"/>
        <pt x="874" y="290" on="0"/>
        <pt x="812" y="153" on="0"/>
        <pt x="701" y="55" on="0"/>
        <pt x="546" y="0" on="0"/>
        <pt x="453" y="0" on="1"/>
      </contour>
      <contour>
        <pt x="305" y="709" on="1"/>
        <pt x="288" y="709" on="0"/>
        <pt x="288" y="692" on="1"/>
        <pt x="288" y="430" on="1"/>
        <pt x="421" y="430" on="1"/>
        <pt x="421" y="370" on="1"/>
        <pt x="288" y="370" on="1"/>
        <pt x="288" y="175" on="1"/>
        <pt x="288" y="117" on="0"/>
        <pt x="360" y="61" on="0"/>
        <pt x="435" y="61" on="1"/>
        <pt x="566" y="61" on="0"/>
        <pt x="707" y="219" on="0"/>
        <pt x="707" y="370" on="1"/>
        <pt x="707" y="450" on="0"/>
        <pt x="669" y="576" on="0"/>
        <pt x="597" y="663" on="0"/>
        <pt x="494" y="709" on="0"/>
        <pt x="430" y="709" on="1"/>
      </contour>
    </TTGlyph>
    <TTGlyph name="Ddotbelow" xMin="35" yMin="-242" xMax="873" yMax="770">
      <contour>
        <pt x="35" y="0" on="1"/>
        <pt x="35" y="40" on="1"/>
        <pt x="68" y="41" on="0"/>
        <pt x="109" y="50" on="0"/>
        <pt x="132" y="75" on="0"/>
        <pt x="140" y="118" on="0"/>
        <pt x="140" y="154" on="1"/>
        <pt x="140" y="616" on="1"/>
        <pt x="140" y="651" on="0"/>
        <pt x="134" y="694" on="0"/>
        <pt x="114" y="719" on="0"/>
        <pt x="79" y="728" on="0"/>
        <pt x="51" y="730" on="1"/>
        <pt x="51" y="770" on="1"/>
        <pt x="431" y="770" on="1"/>
        <pt x="527" y="770" on="0"/>
        <pt x="689" y="710" on="0"/>
        <pt x="807" y="604" on="0"/>
        <pt x="873" y="458" on="0"/>
        <pt x="873" y="372" on="1"/>
        <pt x="873" y="290" on="0"/>
        <pt x="811" y="153" on="0"/>
        <pt x="700" y="55" on="0"/>
        <pt x="545" y="0" on="0"/>
        <pt x="452" y="0" on="1"/>
      </contour>
      <contour>
        <pt x="304" y="709" on="1"/>
        <pt x="287" y="709" on="0"/>
        <pt x="287" y="692" on="1"/>
        <pt x="287" y="175" on="1"/>
        <pt x="287" y="117" on="0"/>
        <pt x="359" y="61" on="0"/>
        <pt x="434" y="61" on="1"/>
        <pt x="565" y="61" on="0"/>
        <pt x="706" y="219" on="0"/>
        <pt x="706" y="370" on="1"/>
        <pt x="706" y="450" on="0"/>
        <pt x="668" y="576" on="0"/>
        <pt x="596" y="663" on="0"/>
        <pt x="493" y="709" on="0"/>
        <pt x="429" y="709" on="1"/>
      </contour>
      <contour>
        <pt x="371" y="-165" on="1"/>
        <pt x="371" y="-132" on="0"/>
        <pt x="416" y="-87" on="0"/>
        <pt x="448" y="-87" on="1"/>
        <pt x="481" y="-87" on="0"/>
        <pt x="526" y="-132" on="0"/>
        <pt x="526" y="-165" on="1"/>
        <pt x="526" y="-197" on="0"/>
        <pt x="481" y="-242" on="0"/>
        <pt x="448" y="-242" on="1"/>
        <pt x="416" y="-242" on="0"/>
        <pt x="371" y="-197" on="0"/>
      </contour>
    </TTGlyph>
    <TTGlyph name="E" xMin="35" yMin="0" xMax="729" yMax="770">
      <contour>
        <pt x="287" y="426" on="1"/>
        <pt x="351" y="426" on="0"/>
        <pt x="429" y="434" on="0"/>
        <pt x="472" y="459" on="0"/>
        <pt x="490" y="507" on="0"/>
        <pt x="495" y="548" on="1"/>
        <pt x="532" y="548" on="1"/>
        <pt x="532" y="255" on="1"/>
        <pt x="495" y="255" on="1"/>
        <pt x="489" y="295" on="0"/>
        <pt x="469" y="343" on="0"/>
        <pt x="425" y="368" on="0"/>
        <pt x="350" y="375" on="0"/>
        <pt x="287" y="375" on="1"/>
        <pt x="287" y="169" on="1"/>
        <pt x="287" y="137" on="0"/>
        <pt x="304" y="93" on="0"/>
        <pt x="344" y="66" on="0"/>
        <pt x="410" y="55" on="0"/>
        <pt x="458" y="55" on="1"/>
        <pt x="515" y="55" on="0"/>
        <pt x="594" y="71" on="0"/>
        <pt x="646" y="111" on="0"/>
        <pt x="678" y="178" on="0"/>
        <pt x="689" y="229" on="1"/>
        <pt x="729" y="229" on="1"/>
        <pt x="713" y="0" on="1"/>
        <pt x="35" y="0" on="1"/>
        <pt x="35" y="40" on="1"/>
        <pt x="68" y="41" on="0"/>
        <pt x="110" y="51" on="0"/>
        <pt x="132" y="75" on="0"/>
        <pt x="140" y="119" on="0"/>
        <pt x="140" y="154" on="1"/>
        <pt x="140" y="616" on="1"/>
        <pt x="140" y="651" on="0"/>
        <pt x="133" y="694" on="0"/>
        <pt x="113" y="719" on="0"/>
        <pt x="76" y="728" on="0"/>
        <pt x="46" y="730" on="1"/>
        <pt x="46" y="770" on="1"/>
        <pt x="678" y="770" on="1"/>
        <pt x="685" y="574" on="1"/>
        <pt x="642" y="574" on="1"/>
        <pt x="636" y="616" on="0"/>
        <pt x="610" y="671" on="0"/>
        <pt x="564" y="704" on="0"/>
        <pt x="491" y="717" on="0"/>
        <pt x="438" y="717" on="1"/>
        <pt x="325" y="717" on="1"/>
        <pt x="299" y="717" on="0"/>
        <pt x="287" y="704" on="0"/>
        <pt x="287" y="680" on="1"/>
      </contour>
    </TTGlyph>
    <TTGlyph name="Eacute" xMin="35" yMin="0" xMax="729" yMax="960">
      <contour>
        <pt x="287" y="426" on="1"/>
        <pt x="351" y="426" on="0"/>
        <pt x="429" y="434" on="0"/>
        <pt x="472" y="459" on="0"/>
        <pt x="490" y="507" on="0"/>
        <pt x="495" y="548" on="1"/>
        <pt x="532" y="548" on="1"/>
        <pt x="532" y="255" on="1"/>
        <pt x="495" y="255" on="1"/>
        <pt x="489" y="295" on="0"/>
        <pt x="469" y="343" on="0"/>
        <pt x="425" y="368" on="0"/>
        <pt x="350" y="375" on="0"/>
        <pt x="287" y="375" on="1"/>
        <pt x="287" y="169" on="1"/>
        <pt x="287" y="137" on="0"/>
        <pt x="304" y="93" on="0"/>
        <pt x="344" y="66" on="0"/>
        <pt x="410" y="55" on="0"/>
        <pt x="458" y="55" on="1"/>
        <pt x="515" y="55" on="0"/>
        <pt x="594" y="71" on="0"/>
        <pt x="646" y="111" on="0"/>
        <pt x="678" y="178" on="0"/>
        <pt x="689" y="229" on="1"/>
        <pt x="729" y="229" on="1"/>
        <pt x="713" y="0" on="1"/>
        <pt x="35" y="0" on="1"/>
        <pt x="35" y="40" on="1"/>
        <pt x="68" y="41" on="0"/>
        <pt x="110" y="51" on="0"/>
        <pt x="132" y="75" on="0"/>
        <pt x="140" y="119" on="0"/>
        <pt x="140" y="154" on="1"/>
        <pt x="140" y="616" on="1"/>
        <pt x="140" y="651" on="0"/>
        <pt x="133" y="694" on="0"/>
        <pt x="113" y="719" on="0"/>
        <pt x="76" y="728" on="0"/>
        <pt x="46" y="730" on="1"/>
        <pt x="46" y="770" on="1"/>
        <pt x="678" y="770" on="1"/>
        <pt x="685" y="574" on="1"/>
        <pt x="642" y="574" on="1"/>
        <pt x="636" y="616" on="0"/>
        <pt x="610" y="671" on="0"/>
        <pt x="564" y="704" on="0"/>
        <pt x="491" y="717" on="0"/>
        <pt x="438" y="717" on="1"/>
        <pt x="325" y="717" on="1"/>
        <pt x="299" y="717" on="0"/>
        <pt x="287" y="704" on="0"/>
        <pt x="287" y="680" on="1"/>
      </contour>
      <contour>
        <pt x="318" y="830" on="1"/>
        <pt x="444" y="927" on="1"/>
        <pt x="464" y="942" on="0"/>
        <pt x="512" y="960" on="0"/>
        <pt x="538" y="960" on="1"/>
        <pt x="566" y="960" on="0"/>
        <pt x="595" y="940" on="0"/>
        <pt x="595" y="923" on="1"/>
        <pt x="595" y="900" on="0"/>
        <pt x="559" y="871" on="0"/>
        <pt x="507" y="858" on="1"/>
        <pt x="391" y="830" on="1"/>
      </contour>
    </TTGlyph>
    <TTGlyph name="Ebreve" xMin="35" yMin="0" xMax="729" yMax="960">
      <contour>
        <pt x="287" y="426" on="1"/>
        <pt x="351" y="426" on="0"/>
        <pt x="429" y="434" on="0"/>
        <pt x="472" y="459" on="0"/>
        <pt x="490" y="507" on="0"/>
        <pt x="495" y="548" on="1"/>
        <pt x="532" y="548" on="1"/>
        <pt x="532" y="255" on="1"/>
        <pt x="495" y="255" on="1"/>
        <pt x="489" y="295" on="0"/>
        <pt x="469" y="343" on="0"/>
        <pt x="425" y="368" on="0"/>
        <pt x="350" y="375" on="0"/>
        <pt x="287" y="375" on="1"/>
        <pt x="287" y="169" on="1"/>
        <pt x="287" y="137" on="0"/>
        <pt x="304" y="93" on="0"/>
        <pt x="344" y="66" on="0"/>
        <pt x="410" y="55" on="0"/>
        <pt x="458" y="55" on="1"/>
        <pt x="515" y="55" on="0"/>
        <pt x="594" y="71" on="0"/>
        <pt x="646" y="111" on="0"/>
        <pt x="678" y="178" on="0"/>
        <pt x="689" y="229" on="1"/>
        <pt x="729" y="229" on="1"/>
        <pt x="713" y="0" on="1"/>
        <pt x="35" y="0" on="1"/>
        <pt x="35" y="40" on="1"/>
        <pt x="68" y="41" on="0"/>
        <pt x="110" y="51" on="0"/>
        <pt x="132" y="75" on="0"/>
        <pt x="140" y="119" on="0"/>
        <pt x="140" y="154" on="1"/>
        <pt x="140" y="616" on="1"/>
        <pt x="140" y="651" on="0"/>
        <pt x="133" y="694" on="0"/>
        <pt x="113" y="719" on="0"/>
        <pt x="76" y="728" on="0"/>
        <pt x="46" y="730" on="1"/>
        <pt x="46" y="770" on="1"/>
        <pt x="678" y="770" on="1"/>
        <pt x="685" y="574" on="1"/>
        <pt x="642" y="574" on="1"/>
        <pt x="636" y="616" on="0"/>
        <pt x="610" y="671" on="0"/>
        <pt x="564" y="704" on="0"/>
        <pt x="491" y="717" on="0"/>
        <pt x="438" y="717" on="1"/>
        <pt x="325" y="717" on="1"/>
        <pt x="299" y="717" on="0"/>
        <pt x="287" y="704" on="0"/>
        <pt x="287" y="680" on="1"/>
      </contour>
      <contour>
        <pt x="553" y="960" on="1"/>
        <pt x="551" y="931" on="0"/>
        <pt x="527" y="884" on="0"/>
        <pt x="487" y="849" on="0"/>
        <pt x="434" y="830" on="0"/>
        <pt x="403" y="830" on="1"/>
        <pt x="371" y="830" on="0"/>
        <pt x="318" y="850" on="0"/>
        <pt x="278" y="884" on="0"/>
        <pt x="254" y="932" on="0"/>
        <pt x="253" y="960" on="1"/>
        <pt x="296" y="960" on="1"/>
        <pt x="305" y="941" on="0"/>
        <pt x="363" y="919" on="0"/>
        <pt x="402" y="919" on="1"/>
        <pt x="441" y="919" on="0"/>
        <pt x="500" y="941" on="0"/>
        <pt x="509" y="960" on="1"/>
      </contour>
    </TTGlyph>
    <TTGlyph name="Ecaron" xMin="35" yMin="0" xMax="729" yMax="960">
      <contour>
        <pt x="287" y="426" on="1"/>
        <pt x="351" y="426" on="0"/>
        <pt x="429" y="434" on="0"/>
        <pt x="472" y="459" on="0"/>
        <pt x="490" y="507" on="0"/>
        <pt x="495" y="548" on="1"/>
        <pt x="532" y="548" on="1"/>
        <pt x="532" y="255" on="1"/>
        <pt x="495" y="255" on="1"/>
        <pt x="489" y="295" on="0"/>
        <pt x="469" y="343" on="0"/>
        <pt x="425" y="368" on="0"/>
        <pt x="350" y="375" on="0"/>
        <pt x="287" y="375" on="1"/>
        <pt x="287" y="169" on="1"/>
        <pt x="287" y="137" on="0"/>
        <pt x="304" y="93" on="0"/>
        <pt x="344" y="66" on="0"/>
        <pt x="410" y="55" on="0"/>
        <pt x="458" y="55" on="1"/>
        <pt x="515" y="55" on="0"/>
        <pt x="594" y="71" on="0"/>
        <pt x="646" y="111" on="0"/>
        <pt x="678" y="178" on="0"/>
        <pt x="689" y="229" on="1"/>
        <pt x="729" y="229" on="1"/>
        <pt x="713" y="0" on="1"/>
        <pt x="35" y="0" on="1"/>
        <pt x="35" y="40" on="1"/>
        <pt x="68" y="41" on="0"/>
        <pt x="110" y="51" on="0"/>
        <pt x="132" y="75" on="0"/>
        <pt x="140" y="119" on="0"/>
        <pt x="140" y="154" on="1"/>
        <pt x="140" y="616" on="1"/>
        <pt x="140" y="651" on="0"/>
        <pt x="133" y="694" on="0"/>
        <pt x="113" y="719" on="0"/>
        <pt x="76" y="728" on="0"/>
        <pt x="46" y="730" on="1"/>
        <pt x="46" y="770" on="1"/>
        <pt x="678" y="770" on="1"/>
        <pt x="685" y="574" on="1"/>
        <pt x="642" y="574" on="1"/>
        <pt x="636" y="616" on="0"/>
        <pt x="610" y="671" on="0"/>
        <pt x="564" y="704" on="0"/>
        <pt x="491" y="717" on="0"/>
        <pt x="438" y="717" on="1"/>
        <pt x="325" y="717" on="1"/>
        <pt x="299" y="717" on="0"/>
        <pt x="287" y="704" on="0"/>
        <pt x="287" y="680" on="1"/>
      </contour>
      <contour>
        <pt x="344" y="830" on="1"/>
        <pt x="220" y="960" on="1"/>
        <pt x="287" y="960" on="1"/>
        <pt x="402" y="911" on="1"/>
        <pt x="517" y="960" on="1"/>
        <pt x="584" y="960" on="1"/>
        <pt x="460" y="830" on="1"/>
      </contour>
    </TTGlyph>
    <TTGlyph name="Ecircumflex" xMin="35" yMin="0" xMax="729" yMax="960">
      <contour>
        <pt x="287" y="426" on="1"/>
        <pt x="351" y="426" on="0"/>
        <pt x="429" y="434" on="0"/>
        <pt x="472" y="459" on="0"/>
        <pt x="490" y="507" on="0"/>
        <pt x="495" y="548" on="1"/>
        <pt x="532" y="548" on="1"/>
        <pt x="532" y="255" on="1"/>
        <pt x="495" y="255" on="1"/>
        <pt x="489" y="295" on="0"/>
        <pt x="469" y="343" on="0"/>
        <pt x="425" y="368" on="0"/>
        <pt x="350" y="375" on="0"/>
        <pt x="287" y="375" on="1"/>
        <pt x="287" y="169" on="1"/>
        <pt x="287" y="137" on="0"/>
        <pt x="304" y="93" on="0"/>
        <pt x="344" y="66" on="0"/>
        <pt x="410" y="55" on="0"/>
        <pt x="458" y="55" on="1"/>
        <pt x="515" y="55" on="0"/>
        <pt x="594" y="71" on="0"/>
        <pt x="646" y="111" on="0"/>
        <pt x="678" y="178" on="0"/>
        <pt x="689" y="229" on="1"/>
        <pt x="729" y="229" on="1"/>
        <pt x="713" y="0" on="1"/>
        <pt x="35" y="0" on="1"/>
        <pt x="35" y="40" on="1"/>
        <pt x="68" y="41" on="0"/>
        <pt x="110" y="51" on="0"/>
        <pt x="132" y="75" on="0"/>
        <pt x="140" y="119" on="0"/>
        <pt x="140" y="154" on="1"/>
        <pt x="140" y="616" on="1"/>
        <pt x="140" y="651" on="0"/>
        <pt x="133" y="694" on="0"/>
        <pt x="113" y="719" on="0"/>
        <pt x="76" y="728" on="0"/>
        <pt x="46" y="730" on="1"/>
        <pt x="46" y="770" on="1"/>
        <pt x="678" y="770" on="1"/>
        <pt x="685" y="574" on="1"/>
        <pt x="642" y="574" on="1"/>
        <pt x="636" y="616" on="0"/>
        <pt x="610" y="671" on="0"/>
        <pt x="564" y="704" on="0"/>
        <pt x="491" y="717" on="0"/>
        <pt x="438" y="717" on="1"/>
        <pt x="325" y="717" on="1"/>
        <pt x="299" y="717" on="0"/>
        <pt x="287" y="704" on="0"/>
        <pt x="287" y="680" on="1"/>
      </contour>
      <contour>
        <pt x="460" y="960" on="1"/>
        <pt x="584" y="830" on="1"/>
        <pt x="517" y="830" on="1"/>
        <pt x="402" y="879" on="1"/>
        <pt x="287" y="830" on="1"/>
        <pt x="220" y="830" on="1"/>
        <pt x="344" y="960" on="1"/>
      </contour>
    </TTGlyph>
    <TTGlyph name="Edieresis" xMin="35" yMin="0" xMax="729" yMax="960">
      <contour>
        <pt x="287" y="426" on="1"/>
        <pt x="351" y="426" on="0"/>
        <pt x="429" y="434" on="0"/>
        <pt x="472" y="459" on="0"/>
        <pt x="490" y="507" on="0"/>
        <pt x="495" y="548" on="1"/>
        <pt x="532" y="548" on="1"/>
        <pt x="532" y="255" on="1"/>
        <pt x="495" y="255" on="1"/>
        <pt x="489" y="295" on="0"/>
        <pt x="469" y="343" on="0"/>
        <pt x="425" y="368" on="0"/>
        <pt x="350" y="375" on="0"/>
        <pt x="287" y="375" on="1"/>
        <pt x="287" y="169" on="1"/>
        <pt x="287" y="137" on="0"/>
        <pt x="304" y="93" on="0"/>
        <pt x="344" y="66" on="0"/>
        <pt x="410" y="55" on="0"/>
        <pt x="458" y="55" on="1"/>
        <pt x="515" y="55" on="0"/>
        <pt x="594" y="71" on="0"/>
        <pt x="646" y="111" on="0"/>
        <pt x="678" y="178" on="0"/>
        <pt x="689" y="229" on="1"/>
        <pt x="729" y="229" on="1"/>
        <pt x="713" y="0" on="1"/>
        <pt x="35" y="0" on="1"/>
        <pt x="35" y="40" on="1"/>
        <pt x="68" y="41" on="0"/>
        <pt x="110" y="51" on="0"/>
        <pt x="132" y="75" on="0"/>
        <pt x="140" y="119" on="0"/>
        <pt x="140" y="154" on="1"/>
        <pt x="140" y="616" on="1"/>
        <pt x="140" y="651" on="0"/>
        <pt x="133" y="694" on="0"/>
        <pt x="113" y="719" on="0"/>
        <pt x="76" y="728" on="0"/>
        <pt x="46" y="730" on="1"/>
        <pt x="46" y="770" on="1"/>
        <pt x="678" y="770" on="1"/>
        <pt x="685" y="574" on="1"/>
        <pt x="642" y="574" on="1"/>
        <pt x="636" y="616" on="0"/>
        <pt x="610" y="671" on="0"/>
        <pt x="564" y="704" on="0"/>
        <pt x="491" y="717" on="0"/>
        <pt x="438" y="717" on="1"/>
        <pt x="325" y="717" on="1"/>
        <pt x="299" y="717" on="0"/>
        <pt x="287" y="704" on="0"/>
        <pt x="287" y="680" on="1"/>
      </contour>
      <contour>
        <pt x="219" y="903" on="1"/>
        <pt x="219" y="928" on="0"/>
        <pt x="253" y="960" on="0"/>
        <pt x="279" y="960" on="1"/>
        <pt x="306" y="960" on="0"/>
        <pt x="341" y="928" on="0"/>
        <pt x="341" y="903" on="1"/>
        <pt x="341" y="877" on="0"/>
        <pt x="306" y="844" on="0"/>
        <pt x="279" y="844" on="1"/>
        <pt x="253" y="844" on="0"/>
        <pt x="219" y="877" on="0"/>
      </contour>
      <contour>
        <pt x="436" y="903" on="1"/>
        <pt x="436" y="928" on="0"/>
        <pt x="471" y="960" on="0"/>
        <pt x="498" y="960" on="1"/>
        <pt x="523" y="960" on="0"/>
        <pt x="558" y="928" on="0"/>
        <pt x="558" y="903" on="1"/>
        <pt x="558" y="877" on="0"/>
        <pt x="523" y="844" on="0"/>
        <pt x="498" y="844" on="1"/>
        <pt x="471" y="844" on="0"/>
        <pt x="436" y="877" on="0"/>
      </contour>
    </TTGlyph>
    <TTGlyph name="Edotaccent" xMin="35" yMin="0" xMax="729" yMax="959">
      <contour>
        <pt x="287" y="426" on="1"/>
        <pt x="351" y="426" on="0"/>
        <pt x="429" y="434" on="0"/>
        <pt x="472" y="459" on="0"/>
        <pt x="490" y="507" on="0"/>
        <pt x="495" y="548" on="1"/>
        <pt x="532" y="548" on="1"/>
        <pt x="532" y="255" on="1"/>
        <pt x="495" y="255" on="1"/>
        <pt x="489" y="295" on="0"/>
        <pt x="469" y="343" on="0"/>
        <pt x="425" y="368" on="0"/>
        <pt x="350" y="375" on="0"/>
        <pt x="287" y="375" on="1"/>
        <pt x="287" y="169" on="1"/>
        <pt x="287" y="137" on="0"/>
        <pt x="304" y="93" on="0"/>
        <pt x="344" y="66" on="0"/>
        <pt x="410" y="55" on="0"/>
        <pt x="458" y="55" on="1"/>
        <pt x="515" y="55" on="0"/>
        <pt x="594" y="71" on="0"/>
        <pt x="646" y="111" on="0"/>
        <pt x="678" y="178" on="0"/>
        <pt x="689" y="229" on="1"/>
        <pt x="729" y="229" on="1"/>
        <pt x="713" y="0" on="1"/>
        <pt x="35" y="0" on="1"/>
        <pt x="35" y="40" on="1"/>
        <pt x="68" y="41" on="0"/>
        <pt x="110" y="51" on="0"/>
        <pt x="132" y="75" on="0"/>
        <pt x="140" y="119" on="0"/>
        <pt x="140" y="154" on="1"/>
        <pt x="140" y="616" on="1"/>
        <pt x="140" y="651" on="0"/>
        <pt x="133" y="694" on="0"/>
        <pt x="113" y="719" on="0"/>
        <pt x="76" y="728" on="0"/>
        <pt x="46" y="730" on="1"/>
        <pt x="46" y="770" on="1"/>
        <pt x="678" y="770" on="1"/>
        <pt x="685" y="574" on="1"/>
        <pt x="642" y="574" on="1"/>
        <pt x="636" y="616" on="0"/>
        <pt x="610" y="671" on="0"/>
        <pt x="564" y="704" on="0"/>
        <pt x="491" y="717" on="0"/>
        <pt x="438" y="717" on="1"/>
        <pt x="325" y="717" on="1"/>
        <pt x="299" y="717" on="0"/>
        <pt x="287" y="704" on="0"/>
        <pt x="287" y="680" on="1"/>
      </contour>
      <contour>
        <pt x="314" y="893" on="1"/>
        <pt x="314" y="921" on="0"/>
        <pt x="354" y="959" on="0"/>
        <pt x="380" y="959" on="1"/>
        <pt x="409" y="959" on="0"/>
        <pt x="450" y="921" on="0"/>
        <pt x="450" y="893" on="1"/>
        <pt x="450" y="867" on="0"/>
        <pt x="409" y="830" on="0"/>
        <pt x="380" y="830" on="1"/>
        <pt x="354" y="830" on="0"/>
        <pt x="314" y="867" on="0"/>
      </contour>
    </TTGlyph>
    <TTGlyph name="Edotbelow" xMin="35" yMin="-242" xMax="729" yMax="770">
      <contour>
        <pt x="287" y="426" on="1"/>
        <pt x="351" y="426" on="0"/>
        <pt x="429" y="434" on="0"/>
        <pt x="472" y="459" on="0"/>
        <pt x="490" y="507" on="0"/>
        <pt x="495" y="548" on="1"/>
        <pt x="532" y="548" on="1"/>
        <pt x="532" y="255" on="1"/>
        <pt x="495" y="255" on="1"/>
        <pt x="489" y="295" on="0"/>
        <pt x="469" y="343" on="0"/>
        <pt x="425" y="368" on="0"/>
        <pt x="350" y="375" on="0"/>
        <pt x="287" y="375" on="1"/>
        <pt x="287" y="169" on="1"/>
        <pt x="287" y="137" on="0"/>
        <pt x="304" y="93" on="0"/>
        <pt x="344" y="66" on="0"/>
        <pt x="410" y="55" on="0"/>
        <pt x="458" y="55" on="1"/>
        <pt x="515" y="55" on="0"/>
        <pt x="594" y="71" on="0"/>
        <pt x="646" y="111" on="0"/>
        <pt x="678" y="178" on="0"/>
        <pt x="689" y="229" on="1"/>
        <pt x="729" y="229" on="1"/>
        <pt x="713" y="0" on="1"/>
        <pt x="35" y="0" on="1"/>
        <pt x="35" y="40" on="1"/>
        <pt x="68" y="41" on="0"/>
        <pt x="110" y="51" on="0"/>
        <pt x="132" y="75" on="0"/>
        <pt x="140" y="119" on="0"/>
        <pt x="140" y="154" on="1"/>
        <pt x="140" y="616" on="1"/>
        <pt x="140" y="651" on="0"/>
        <pt x="133" y="694" on="0"/>
        <pt x="113" y="719" on="0"/>
        <pt x="76" y="728" on="0"/>
        <pt x="46" y="730" on="1"/>
        <pt x="46" y="770" on="1"/>
        <pt x="678" y="770" on="1"/>
        <pt x="685" y="574" on="1"/>
        <pt x="642" y="574" on="1"/>
        <pt x="636" y="616" on="0"/>
        <pt x="610" y="671" on="0"/>
        <pt x="564" y="704" on="0"/>
        <pt x="491" y="717" on="0"/>
        <pt x="438" y="717" on="1"/>
        <pt x="325" y="717" on="1"/>
        <pt x="299" y="717" on="0"/>
        <pt x="287" y="704" on="0"/>
        <pt x="287" y="680" on="1"/>
      </contour>
      <contour>
        <pt x="325" y="-165" on="1"/>
        <pt x="325" y="-132" on="0"/>
        <pt x="370" y="-87" on="0"/>
        <pt x="402" y="-87" on="1"/>
        <pt x="435" y="-87" on="0"/>
        <pt x="480" y="-132" on="0"/>
        <pt x="480" y="-165" on="1"/>
        <pt x="480" y="-197" on="0"/>
        <pt x="435" y="-242" on="0"/>
        <pt x="402" y="-242" on="1"/>
        <pt x="370" y="-242" on="0"/>
        <pt x="325" y="-197" on="0"/>
      </contour>
    </TTGlyph>
    <TTGlyph name="Egrave" xMin="35" yMin="0" xMax="729" yMax="960">
      <contour>
        <pt x="287" y="426" on="1"/>
        <pt x="351" y="426" on="0"/>
        <pt x="429" y="434" on="0"/>
        <pt x="472" y="459" on="0"/>
        <pt x="490" y="507" on="0"/>
        <pt x="495" y="548" on="1"/>
        <pt x="532" y="548" on="1"/>
        <pt x="532" y="255" on="1"/>
        <pt x="495" y="255" on="1"/>
        <pt x="489" y="295" on="0"/>
        <pt x="469" y="343" on="0"/>
        <pt x="425" y="368" on="0"/>
        <pt x="350" y="375" on="0"/>
        <pt x="287" y="375" on="1"/>
        <pt x="287" y="169" on="1"/>
        <pt x="287" y="137" on="0"/>
        <pt x="304" y="93" on="0"/>
        <pt x="344" y="66" on="0"/>
        <pt x="410" y="55" on="0"/>
        <pt x="458" y="55" on="1"/>
        <pt x="515" y="55" on="0"/>
        <pt x="594" y="71" on="0"/>
        <pt x="646" y="111" on="0"/>
        <pt x="678" y="178" on="0"/>
        <pt x="689" y="229" on="1"/>
        <pt x="729" y="229" on="1"/>
        <pt x="713" y="0" on="1"/>
        <pt x="35" y="0" on="1"/>
        <pt x="35" y="40" on="1"/>
        <pt x="68" y="41" on="0"/>
        <pt x="110" y="51" on="0"/>
        <pt x="132" y="75" on="0"/>
        <pt x="140" y="119" on="0"/>
        <pt x="140" y="154" on="1"/>
        <pt x="140" y="616" on="1"/>
        <pt x="140" y="651" on="0"/>
        <pt x="133" y="694" on="0"/>
        <pt x="113" y="719" on="0"/>
        <pt x="76" y="728" on="0"/>
        <pt x="46" y="730" on="1"/>
        <pt x="46" y="770" on="1"/>
        <pt x="678" y="770" on="1"/>
        <pt x="685" y="574" on="1"/>
        <pt x="642" y="574" on="1"/>
        <pt x="636" y="616" on="0"/>
        <pt x="610" y="671" on="0"/>
        <pt x="564" y="704" on="0"/>
        <pt x="491" y="717" on="0"/>
        <pt x="438" y="717" on="1"/>
        <pt x="325" y="717" on="1"/>
        <pt x="299" y="717" on="0"/>
        <pt x="287" y="704" on="0"/>
        <pt x="287" y="680" on="1"/>
      </contour>
      <contour>
        <pt x="422" y="830" on="1"/>
        <pt x="306" y="858" on="1"/>
        <pt x="254" y="871" on="0"/>
        <pt x="218" y="900" on="0"/>
        <pt x="218" y="923" on="1"/>
        <pt x="218" y="940" on="0"/>
        <pt x="247" y="960" on="0"/>
        <pt x="275" y="960" on="1"/>
        <pt x="301" y="960" on="0"/>
        <pt x="349" y="942" on="0"/>
        <pt x="369" y="927" on="1"/>
        <pt x="495" y="830" on="1"/>
      </contour>
    </TTGlyph>
    <TTGlyph name="Emacron" xMin="35" yMin="0" xMax="729" yMax="930">
      <contour>
        <pt x="287" y="426" on="1"/>
        <pt x="351" y="426" on="0"/>
        <pt x="429" y="434" on="0"/>
        <pt x="472" y="459" on="0"/>
        <pt x="490" y="507" on="0"/>
        <pt x="495" y="548" on="1"/>
        <pt x="532" y="548" on="1"/>
        <pt x="532" y="255" on="1"/>
        <pt x="495" y="255" on="1"/>
        <pt x="489" y="295" on="0"/>
        <pt x="469" y="343" on="0"/>
        <pt x="425" y="368" on="0"/>
        <pt x="350" y="375" on="0"/>
        <pt x="287" y="375" on="1"/>
        <pt x="287" y="169" on="1"/>
        <pt x="287" y="137" on="0"/>
        <pt x="304" y="93" on="0"/>
        <pt x="344" y="66" on="0"/>
        <pt x="410" y="55" on="0"/>
        <pt x="458" y="55" on="1"/>
        <pt x="515" y="55" on="0"/>
        <pt x="594" y="71" on="0"/>
        <pt x="646" y="111" on="0"/>
        <pt x="678" y="178" on="0"/>
        <pt x="689" y="229" on="1"/>
        <pt x="729" y="229" on="1"/>
        <pt x="713" y="0" on="1"/>
        <pt x="35" y="0" on="1"/>
        <pt x="35" y="40" on="1"/>
        <pt x="68" y="41" on="0"/>
        <pt x="110" y="51" on="0"/>
        <pt x="132" y="75" on="0"/>
        <pt x="140" y="119" on="0"/>
        <pt x="140" y="154" on="1"/>
        <pt x="140" y="616" on="1"/>
        <pt x="140" y="651" on="0"/>
        <pt x="133" y="694" on="0"/>
        <pt x="113" y="719" on="0"/>
        <pt x="76" y="728" on="0"/>
        <pt x="46" y="730" on="1"/>
        <pt x="46" y="770" on="1"/>
        <pt x="678" y="770" on="1"/>
        <pt x="685" y="574" on="1"/>
        <pt x="642" y="574" on="1"/>
        <pt x="636" y="616" on="0"/>
        <pt x="610" y="671" on="0"/>
        <pt x="564" y="704" on="0"/>
        <pt x="491" y="717" on="0"/>
        <pt x="438" y="717" on="1"/>
        <pt x="325" y="717" on="1"/>
        <pt x="299" y="717" on="0"/>
        <pt x="287" y="704" on="0"/>
        <pt x="287" y="680" on="1"/>
      </contour>
      <contour>
        <pt x="261" y="865" on="1"/>
        <pt x="261" y="930" on="1"/>
        <pt x="545" y="930" on="1"/>
        <pt x="545" y="865" on="1"/>
      </contour>
    </TTGlyph>
    <TTGlyph name="Eng" xMin="30" yMin="-260" xMax="919" yMax="770">
      <contour>
        <pt x="804" y="-10" on="1"/>
        <pt x="804" y="-132" on="0"/>
        <pt x="686" y="-260" on="0"/>
        <pt x="578" y="-260" on="1"/>
        <pt x="505" y="-260" on="0"/>
        <pt x="416" y="-201" on="0"/>
        <pt x="416" y="-153" on="1"/>
        <pt x="416" y="-127" on="0"/>
        <pt x="443" y="-100" on="0"/>
        <pt x="467" y="-100" on="1"/>
        <pt x="486" y="-100" on="0"/>
        <pt x="508" y="-120" on="0"/>
        <pt x="524" y="-147" on="1"/>
        <pt x="544" y="-180" on="0"/>
        <pt x="573" y="-202" on="0"/>
        <pt x="596" y="-202" on="1"/>
        <pt x="653" y="-202" on="0"/>
        <pt x="720" y="-130" on="0"/>
        <pt x="725" y="-64" on="1"/>
        <pt x="227" y="631" on="1"/>
        <pt x="223" y="631" on="1"/>
        <pt x="223" y="191" on="1"/>
        <pt x="223" y="141" on="0"/>
        <pt x="230" y="83" on="0"/>
        <pt x="253" y="51" on="0"/>
        <pt x="294" y="41" on="0"/>
        <pt x="327" y="40" on="1"/>
        <pt x="327" y="0" on="1"/>
        <pt x="30" y="0" on="1"/>
        <pt x="30" y="40" on="1"/>
        <pt x="67" y="41" on="0"/>
        <pt x="112" y="52" on="0"/>
        <pt x="137" y="82" on="0"/>
        <pt x="145" y="137" on="0"/>
        <pt x="145" y="184" on="1"/>
        <pt x="145" y="586" on="1"/>
        <pt x="145" y="628" on="0"/>
        <pt x="137" y="683" on="0"/>
        <pt x="115" y="715" on="0"/>
        <pt x="74" y="728" on="0"/>
        <pt x="40" y="730" on="1"/>
        <pt x="40" y="770" on="1"/>
        <pt x="319" y="770" on="1"/>
        <pt x="722" y="192" on="1"/>
        <pt x="726" y="192" on="1"/>
        <pt x="726" y="579" on="1"/>
        <pt x="726" y="628" on="0"/>
        <pt x="719" y="687" on="0"/>
        <pt x="696" y="719" on="0"/>
        <pt x="655" y="729" on="0"/>
        <pt x="622" y="730" on="1"/>
        <pt x="622" y="770" on="1"/>
        <pt x="919" y="770" on="1"/>
        <pt x="919" y="730" on="1"/>
        <pt x="882" y="729" on="0"/>
        <pt x="837" y="719" on="0"/>
        <pt x="812" y="689" on="0"/>
        <pt x="804" y="634" on="0"/>
        <pt x="804" y="588" on="1"/>
      </contour>
    </TTGlyph>
    <TTGlyph name="Eogonek" xMin="35" yMin="-239" xMax="729" yMax="770">
      <contour>
        <pt x="511" y="-152" on="1"/>
        <pt x="479" y="-194" on="0"/>
        <pt x="393" y="-239" on="0"/>
        <pt x="345" y="-239" on="1"/>
        <pt x="235" y="-239" on="0"/>
        <pt x="235" y="-151" on="1"/>
        <pt x="235" y="-106" on="0"/>
        <pt x="314" y="-29" on="0"/>
        <pt x="387" y="0" on="1"/>
        <pt x="35" y="0" on="1"/>
        <pt x="35" y="40" on="1"/>
        <pt x="68" y="41" on="0"/>
        <pt x="110" y="51" on="0"/>
        <pt x="132" y="75" on="0"/>
        <pt x="140" y="119" on="0"/>
        <pt x="140" y="154" on="1"/>
        <pt x="140" y="616" on="1"/>
        <pt x="140" y="651" on="0"/>
        <pt x="133" y="694" on="0"/>
        <pt x="113" y="719" on="0"/>
        <pt x="76" y="728" on="0"/>
        <pt x="46" y="730" on="1"/>
        <pt x="46" y="770" on="1"/>
        <pt x="678" y="770" on="1"/>
        <pt x="685" y="574" on="1"/>
        <pt x="642" y="574" on="1"/>
        <pt x="636" y="616" on="0"/>
        <pt x="610" y="671" on="0"/>
        <pt x="564" y="704" on="0"/>
        <pt x="491" y="717" on="0"/>
        <pt x="438" y="717" on="1"/>
        <pt x="325" y="717" on="1"/>
        <pt x="299" y="717" on="0"/>
        <pt x="287" y="704" on="0"/>
        <pt x="287" y="680" on="1"/>
        <pt x="287" y="426" on="1"/>
        <pt x="351" y="426" on="0"/>
        <pt x="429" y="434" on="0"/>
        <pt x="472" y="459" on="0"/>
        <pt x="490" y="507" on="0"/>
        <pt x="495" y="548" on="1"/>
        <pt x="532" y="548" on="1"/>
        <pt x="532" y="255" on="1"/>
        <pt x="495" y="255" on="1"/>
        <pt x="489" y="295" on="0"/>
        <pt x="469" y="343" on="0"/>
        <pt x="425" y="368" on="0"/>
        <pt x="350" y="375" on="0"/>
        <pt x="287" y="375" on="1"/>
        <pt x="287" y="169" on="1"/>
        <pt x="287" y="137" on="0"/>
        <pt x="304" y="93" on="0"/>
        <pt x="344" y="66" on="0"/>
        <pt x="410" y="55" on="0"/>
        <pt x="458" y="55" on="1"/>
        <pt x="515" y="55" on="0"/>
        <pt x="594" y="71" on="0"/>
        <pt x="646" y="111" on="0"/>
        <pt x="678" y="178" on="0"/>
        <pt x="689" y="229" on="1"/>
        <pt x="729" y="229" on="1"/>
        <pt x="713" y="0" on="1"/>
        <pt x="462" y="0" on="1"/>
        <pt x="407" y="-24" on="0"/>
        <pt x="338" y="-93" on="0"/>
        <pt x="338" y="-124" on="1"/>
        <pt x="338" y="-144" on="0"/>
        <pt x="365" y="-169" on="0"/>
        <pt x="387" y="-169" on="1"/>
        <pt x="409" y="-169" on="0"/>
        <pt x="456" y="-141" on="0"/>
        <pt x="476" y="-116" on="1"/>
      </contour>
    </TTGlyph>
    <TTGlyph name="Eth" xMin="36" yMin="0" xMax="874" yMax="770">
      <contour>
        <pt x="36" y="0" on="1"/>
        <pt x="36" y="40" on="1"/>
        <pt x="69" y="41" on="0"/>
        <pt x="110" y="50" on="0"/>
        <pt x="133" y="75" on="0"/>
        <pt x="141" y="118" on="0"/>
        <pt x="141" y="154" on="1"/>
        <pt x="141" y="376" on="1"/>
        <pt x="54" y="376" on="1"/>
        <pt x="54" y="436" on="1"/>
        <pt x="141" y="436" on="1"/>
        <pt x="141" y="616" on="1"/>
        <pt x="141" y="651" on="0"/>
        <pt x="135" y="694" on="0"/>
        <pt x="115" y="719" on="0"/>
        <pt x="80" y="728" on="0"/>
        <pt x="52" y="730" on="1"/>
        <pt x="52" y="770" on="1"/>
        <pt x="432" y="770" on="1"/>
        <pt x="528" y="770" on="0"/>
        <pt x="690" y="710" on="0"/>
        <pt x="808" y="604" on="0"/>
        <pt x="874" y="458" on="0"/>
        <pt x="874" y="372" on="1"/>
        <pt x="874" y="290" on="0"/>
        <pt x="812" y="153" on="0"/>
        <pt x="701" y="55" on="0"/>
        <pt x="546" y="0" on="0"/>
        <pt x="453" y="0" on="1"/>
      </contour>
      <contour>
        <pt x="305" y="709" on="1"/>
        <pt x="288" y="709" on="0"/>
        <pt x="288" y="692" on="1"/>
        <pt x="288" y="436" on="1"/>
        <pt x="421" y="436" on="1"/>
        <pt x="421" y="376" on="1"/>
        <pt x="288" y="376" on="1"/>
        <pt x="288" y="175" on="1"/>
        <pt x="288" y="117" on="0"/>
        <pt x="360" y="61" on="0"/>
        <pt x="435" y="61" on="1"/>
        <pt x="566" y="61" on="0"/>
        <pt x="707" y="219" on="0"/>
        <pt x="707" y="370" on="1"/>
        <pt x="707" y="450" on="0"/>
        <pt x="669" y="576" on="0"/>
        <pt x="597" y="663" on="0"/>
        <pt x="494" y="709" on="0"/>
        <pt x="430" y="709" on="1"/>
      </contour>
    </TTGlyph>
    <TTGlyph name="Etilde" xMin="35" yMin="0" xMax="729" yMax="962">
      <contour>
        <pt x="287" y="426" on="1"/>
        <pt x="351" y="426" on="0"/>
        <pt x="429" y="434" on="0"/>
        <pt x="472" y="459" on="0"/>
        <pt x="490" y="507" on="0"/>
        <pt x="495" y="548" on="1"/>
        <pt x="532" y="548" on="1"/>
        <pt x="532" y="255" on="1"/>
        <pt x="495" y="255" on="1"/>
        <pt x="489" y="295" on="0"/>
        <pt x="469" y="343" on="0"/>
        <pt x="425" y="368" on="0"/>
        <pt x="350" y="375" on="0"/>
        <pt x="287" y="375" on="1"/>
        <pt x="287" y="169" on="1"/>
        <pt x="287" y="137" on="0"/>
        <pt x="304" y="93" on="0"/>
        <pt x="344" y="66" on="0"/>
        <pt x="410" y="55" on="0"/>
        <pt x="458" y="55" on="1"/>
        <pt x="515" y="55" on="0"/>
        <pt x="594" y="71" on="0"/>
        <pt x="646" y="111" on="0"/>
        <pt x="678" y="178" on="0"/>
        <pt x="689" y="229" on="1"/>
        <pt x="729" y="229" on="1"/>
        <pt x="713" y="0" on="1"/>
        <pt x="35" y="0" on="1"/>
        <pt x="35" y="40" on="1"/>
        <pt x="68" y="41" on="0"/>
        <pt x="110" y="51" on="0"/>
        <pt x="132" y="75" on="0"/>
        <pt x="140" y="119" on="0"/>
        <pt x="140" y="154" on="1"/>
        <pt x="140" y="616" on="1"/>
        <pt x="140" y="651" on="0"/>
        <pt x="133" y="694" on="0"/>
        <pt x="113" y="719" on="0"/>
        <pt x="76" y="728" on="0"/>
        <pt x="46" y="730" on="1"/>
        <pt x="46" y="770" on="1"/>
        <pt x="678" y="770" on="1"/>
        <pt x="685" y="574" on="1"/>
        <pt x="642" y="574" on="1"/>
        <pt x="636" y="616" on="0"/>
        <pt x="610" y="671" on="0"/>
        <pt x="564" y="704" on="0"/>
        <pt x="491" y="717" on="0"/>
        <pt x="438" y="717" on="1"/>
        <pt x="325" y="717" on="1"/>
        <pt x="299" y="717" on="0"/>
        <pt x="287" y="704" on="0"/>
        <pt x="287" y="680" on="1"/>
      </contour>
      <contour>
        <pt x="213" y="828" on="1"/>
        <pt x="223" y="887" on="0"/>
        <pt x="289" y="962" on="0"/>
        <pt x="332" y="962" on="1"/>
        <pt x="339" y="962" on="0"/>
        <pt x="354" y="960" on="0"/>
        <pt x="374" y="954" on="0"/>
        <pt x="400" y="945" on="0"/>
        <pt x="419" y="938" on="1"/>
        <pt x="450" y="926" on="0"/>
        <pt x="484" y="916" on="0"/>
        <pt x="498" y="916" on="1"/>
        <pt x="517" y="916" on="0"/>
        <pt x="539" y="935" on="0"/>
        <pt x="547" y="958" on="1"/>
        <pt x="592" y="958" on="1"/>
        <pt x="588" y="932" on="0"/>
        <pt x="564" y="876" on="0"/>
        <pt x="548" y="856" on="1"/>
        <pt x="518" y="820" on="0"/>
        <pt x="475" y="820" on="1"/>
        <pt x="457" y="820" on="0"/>
        <pt x="419" y="831" on="0"/>
        <pt x="390" y="845" on="1"/>
        <pt x="367" y="856" on="0"/>
        <pt x="320" y="868" on="0"/>
        <pt x="303" y="868" on="1"/>
        <pt x="286" y="868" on="0"/>
        <pt x="267" y="851" on="0"/>
        <pt x="259" y="828" on="1"/>
      </contour>
    </TTGlyph>
    <TTGlyph name="Euro" xMin="37" yMin="-10" xMax="694" yMax="780">
      <contour>
        <pt x="520" y="298" on="1"/>
        <pt x="298" y="298" on="1"/>
        <pt x="298" y="242" on="0"/>
        <pt x="322" y="150" on="0"/>
        <pt x="365" y="84" on="0"/>
        <pt x="424" y="48" on="0"/>
        <pt x="460" y="48" on="1"/>
        <pt x="496" y="48" on="0"/>
        <pt x="558" y="80" on="0"/>
        <pt x="604" y="139" on="0"/>
        <pt x="634" y="220" on="0"/>
        <pt x="639" y="270" on="1"/>
        <pt x="694" y="270" on="1"/>
        <pt x="694" y="0" on="1"/>
        <pt x="648" y="0" on="1"/>
        <pt x="636" y="69" on="1"/>
        <pt x="564" y="-10" on="0"/>
        <pt x="452" y="-10" on="1"/>
        <pt x="389" y="-10" on="0"/>
        <pt x="282" y="33" on="0"/>
        <pt x="198" y="113" on="0"/>
        <pt x="140" y="227" on="0"/>
        <pt x="128" y="298" on="1"/>
        <pt x="38" y="298" on="1"/>
        <pt x="38" y="358" on="1"/>
        <pt x="123" y="358" on="1"/>
        <pt x="122" y="366" on="0"/>
        <pt x="122" y="380" on="0"/>
        <pt x="122" y="388" on="1"/>
        <pt x="122" y="409" on="0"/>
        <pt x="125" y="430" on="1"/>
        <pt x="37" y="430" on="1"/>
        <pt x="37" y="490" on="1"/>
        <pt x="131" y="490" on="1"/>
        <pt x="160" y="631" on="0"/>
        <pt x="336" y="780" on="0"/>
        <pt x="464" y="780" on="1"/>
        <pt x="488" y="780" on="0"/>
        <pt x="526" y="775" on="0"/>
        <pt x="562" y="761" on="0"/>
        <pt x="599" y="738" on="0"/>
        <pt x="621" y="719" on="1"/>
        <pt x="639" y="770" on="1"/>
        <pt x="678" y="770" on="1"/>
        <pt x="678" y="534" on="1"/>
        <pt x="623" y="534" on="1"/>
        <pt x="606" y="625" on="0"/>
        <pt x="527" y="722" on="0"/>
        <pt x="468" y="722" on="1"/>
        <pt x="399" y="722" on="0"/>
        <pt x="314" y="607" on="0"/>
        <pt x="300" y="490" on="1"/>
        <pt x="520" y="490" on="1"/>
        <pt x="520" y="430" on="1"/>
        <pt x="297" y="430" on="1"/>
        <pt x="294" y="409" on="0"/>
        <pt x="294" y="387" on="1"/>
        <pt x="295" y="379" on="0"/>
        <pt x="295" y="365" on="0"/>
        <pt x="295" y="358" on="1"/>
        <pt x="520" y="358" on="1"/>
      </contour>
    </TTGlyph>
    <TTGlyph name="F" xMin="35" yMin="0" xMax="670" yMax="770">
      <contour>
        <pt x="287" y="161" on="1"/>
        <pt x="287" y="123" on="0"/>
        <pt x="297" y="76" on="0"/>
        <pt x="328" y="51" on="0"/>
        <pt x="385" y="41" on="0"/>
        <pt x="433" y="40" on="1"/>
        <pt x="433" y="0" on="1"/>
        <pt x="35" y="0" on="1"/>
        <pt x="35" y="40" on="1"/>
        <pt x="68" y="41" on="0"/>
        <pt x="110" y="51" on="0"/>
        <pt x="132" y="75" on="0"/>
        <pt x="140" y="119" on="0"/>
        <pt x="140" y="154" on="1"/>
        <pt x="140" y="616" on="1"/>
        <pt x="140" y="651" on="0"/>
        <pt x="133" y="694" on="0"/>
        <pt x="113" y="719" on="0"/>
        <pt x="76" y="728" on="0"/>
        <pt x="46" y="730" on="1"/>
        <pt x="46" y="770" on="1"/>
        <pt x="658" y="770" on="1"/>
        <pt x="670" y="559" on="1"/>
        <pt x="628" y="559" on="1"/>
        <pt x="622" y="602" on="0"/>
        <pt x="599" y="661" on="0"/>
        <pt x="557" y="698" on="0"/>
        <pt x="491" y="714" on="0"/>
        <pt x="443" y="714" on="1"/>
        <pt x="305" y="714" on="1"/>
        <pt x="287" y="714" on="0"/>
        <pt x="287" y="697" on="1"/>
        <pt x="287" y="408" on="1"/>
        <pt x="348" y="408" on="0"/>
        <pt x="425" y="418" on="0"/>
        <pt x="471" y="447" on="0"/>
        <pt x="491" y="497" on="0"/>
        <pt x="495" y="538" on="1"/>
        <pt x="532" y="538" on="1"/>
        <pt x="532" y="225" on="1"/>
        <pt x="495" y="225" on="1"/>
        <pt x="489" y="267" on="0"/>
        <pt x="467" y="318" on="0"/>
        <pt x="422" y="345" on="0"/>
        <pt x="346" y="355" on="0"/>
        <pt x="287" y="355" on="1"/>
      </contour>
    </TTGlyph>
    <TTGlyph name="G" xMin="47" yMin="-10" xMax="861" yMax="780">
      <contour>
        <pt x="438" y="-10" on="1"/>
        <pt x="348" y="-10" on="0"/>
        <pt x="203" y="43" on="0"/>
        <pt x="102" y="142" on="0"/>
        <pt x="47" y="283" on="0"/>
        <pt x="47" y="371" on="1"/>
        <pt x="47" y="462" on="0"/>
        <pt x="106" y="613" on="0"/>
        <pt x="212" y="721" on="0"/>
        <pt x="360" y="780" on="0"/>
        <pt x="450" y="780" on="1"/>
        <pt x="512" y="780" on="0"/>
        <pt x="624" y="746" on="0"/>
        <pt x="689" y="708" on="1"/>
        <pt x="708" y="770" on="1"/>
        <pt x="744" y="770" on="1"/>
        <pt x="744" y="517" on="1"/>
        <pt x="694" y="517" on="1"/>
        <pt x="674" y="611" on="0"/>
        <pt x="553" y="715" on="0"/>
        <pt x="462" y="715" on="1"/>
        <pt x="347" y="715" on="0"/>
        <pt x="220" y="538" on="0"/>
        <pt x="220" y="379" on="1"/>
        <pt x="220" y="223" on="0"/>
        <pt x="344" y="57" on="0"/>
        <pt x="462" y="57" on="1"/>
        <pt x="547" y="57" on="0"/>
        <pt x="642" y="144" on="0"/>
        <pt x="642" y="221" on="1"/>
        <pt x="642" y="267" on="0"/>
        <pt x="594" y="310" on="0"/>
        <pt x="537" y="315" on="1"/>
        <pt x="537" y="355" on="1"/>
        <pt x="861" y="355" on="1"/>
        <pt x="861" y="315" on="1"/>
        <pt x="812" y="315" on="0"/>
        <pt x="774" y="272" on="0"/>
        <pt x="774" y="216" on="1"/>
        <pt x="774" y="83" on="1"/>
        <pt x="752" y="83" on="0"/>
        <pt x="722" y="80" on="0"/>
        <pt x="693" y="71" on="0"/>
        <pt x="657" y="51" on="0"/>
        <pt x="630" y="35" on="1"/>
        <pt x="553" y="-10" on="0"/>
      </contour>
    </TTGlyph>
    <TTGlyph name="Gbreve" xMin="47" yMin="-10" xMax="861" yMax="960">
      <contour>
        <pt x="438" y="-10" on="1"/>
        <pt x="348" y="-10" on="0"/>
        <pt x="203" y="43" on="0"/>
        <pt x="102" y="142" on="0"/>
        <pt x="47" y="283" on="0"/>
        <pt x="47" y="371" on="1"/>
        <pt x="47" y="462" on="0"/>
        <pt x="106" y="613" on="0"/>
        <pt x="212" y="721" on="0"/>
        <pt x="360" y="780" on="0"/>
        <pt x="450" y="780" on="1"/>
        <pt x="512" y="780" on="0"/>
        <pt x="624" y="746" on="0"/>
        <pt x="689" y="708" on="1"/>
        <pt x="708" y="770" on="1"/>
        <pt x="744" y="770" on="1"/>
        <pt x="744" y="517" on="1"/>
        <pt x="694" y="517" on="1"/>
        <pt x="674" y="611" on="0"/>
        <pt x="553" y="715" on="0"/>
        <pt x="462" y="715" on="1"/>
        <pt x="347" y="715" on="0"/>
        <pt x="220" y="538" on="0"/>
        <pt x="220" y="379" on="1"/>
        <pt x="220" y="223" on="0"/>
        <pt x="344" y="57" on="0"/>
        <pt x="462" y="57" on="1"/>
        <pt x="547" y="57" on="0"/>
        <pt x="642" y="144" on="0"/>
        <pt x="642" y="221" on="1"/>
        <pt x="642" y="267" on="0"/>
        <pt x="594" y="310" on="0"/>
        <pt x="537" y="315" on="1"/>
        <pt x="537" y="355" on="1"/>
        <pt x="861" y="355" on="1"/>
        <pt x="861" y="315" on="1"/>
        <pt x="812" y="315" on="0"/>
        <pt x="774" y="272" on="0"/>
        <pt x="774" y="216" on="1"/>
        <pt x="774" y="83" on="1"/>
        <pt x="752" y="83" on="0"/>
        <pt x="722" y="80" on="0"/>
        <pt x="693" y="71" on="0"/>
        <pt x="657" y="51" on="0"/>
        <pt x="630" y="35" on="1"/>
        <pt x="553" y="-10" on="0"/>
      </contour>
      <contour>
        <pt x="605" y="960" on="1"/>
        <pt x="603" y="931" on="0"/>
        <pt x="579" y="884" on="0"/>
        <pt x="539" y="849" on="0"/>
        <pt x="486" y="830" on="0"/>
        <pt x="455" y="830" on="1"/>
        <pt x="423" y="830" on="0"/>
        <pt x="370" y="850" on="0"/>
        <pt x="330" y="884" on="0"/>
        <pt x="306" y="932" on="0"/>
        <pt x="305" y="960" on="1"/>
        <pt x="348" y="960" on="1"/>
        <pt x="357" y="941" on="0"/>
        <pt x="415" y="919" on="0"/>
        <pt x="454" y="919" on="1"/>
        <pt x="493" y="919" on="0"/>
        <pt x="552" y="941" on="0"/>
        <pt x="561" y="960" on="1"/>
      </contour>
    </TTGlyph>
    <TTGlyph name="Gcircumflex" xMin="47" yMin="-10" xMax="861" yMax="960">
      <contour>
        <pt x="438" y="-10" on="1"/>
        <pt x="348" y="-10" on="0"/>
        <pt x="203" y="43" on="0"/>
        <pt x="102" y="142" on="0"/>
        <pt x="47" y="283" on="0"/>
        <pt x="47" y="371" on="1"/>
        <pt x="47" y="462" on="0"/>
        <pt x="106" y="613" on="0"/>
        <pt x="212" y="721" on="0"/>
        <pt x="360" y="780" on="0"/>
        <pt x="450" y="780" on="1"/>
        <pt x="512" y="780" on="0"/>
        <pt x="624" y="746" on="0"/>
        <pt x="689" y="708" on="1"/>
        <pt x="708" y="770" on="1"/>
        <pt x="744" y="770" on="1"/>
        <pt x="744" y="517" on="1"/>
        <pt x="694" y="517" on="1"/>
        <pt x="674" y="611" on="0"/>
        <pt x="553" y="715" on="0"/>
        <pt x="462" y="715" on="1"/>
        <pt x="347" y="715" on="0"/>
        <pt x="220" y="538" on="0"/>
        <pt x="220" y="379" on="1"/>
        <pt x="220" y="223" on="0"/>
        <pt x="344" y="57" on="0"/>
        <pt x="462" y="57" on="1"/>
        <pt x="547" y="57" on="0"/>
        <pt x="642" y="144" on="0"/>
        <pt x="642" y="221" on="1"/>
        <pt x="642" y="267" on="0"/>
        <pt x="594" y="310" on="0"/>
        <pt x="537" y="315" on="1"/>
        <pt x="537" y="355" on="1"/>
        <pt x="861" y="355" on="1"/>
        <pt x="861" y="315" on="1"/>
        <pt x="812" y="315" on="0"/>
        <pt x="774" y="272" on="0"/>
        <pt x="774" y="216" on="1"/>
        <pt x="774" y="83" on="1"/>
        <pt x="752" y="83" on="0"/>
        <pt x="722" y="80" on="0"/>
        <pt x="693" y="71" on="0"/>
        <pt x="657" y="51" on="0"/>
        <pt x="630" y="35" on="1"/>
        <pt x="553" y="-10" on="0"/>
      </contour>
      <contour>
        <pt x="513" y="960" on="1"/>
        <pt x="637" y="830" on="1"/>
        <pt x="570" y="830" on="1"/>
        <pt x="455" y="879" on="1"/>
        <pt x="340" y="830" on="1"/>
        <pt x="273" y="830" on="1"/>
        <pt x="397" y="960" on="1"/>
      </contour>
    </TTGlyph>
    <TTGlyph name="Gcommaaccent" xMin="47" yMin="-250" xMax="861" yMax="780">
      <contour>
        <pt x="438" y="-10" on="1"/>
        <pt x="348" y="-10" on="0"/>
        <pt x="203" y="43" on="0"/>
        <pt x="102" y="142" on="0"/>
        <pt x="47" y="283" on="0"/>
        <pt x="47" y="371" on="1"/>
        <pt x="47" y="462" on="0"/>
        <pt x="106" y="613" on="0"/>
        <pt x="212" y="721" on="0"/>
        <pt x="360" y="780" on="0"/>
        <pt x="450" y="780" on="1"/>
        <pt x="512" y="780" on="0"/>
        <pt x="624" y="746" on="0"/>
        <pt x="689" y="708" on="1"/>
        <pt x="708" y="770" on="1"/>
        <pt x="744" y="770" on="1"/>
        <pt x="744" y="517" on="1"/>
        <pt x="694" y="517" on="1"/>
        <pt x="674" y="611" on="0"/>
        <pt x="553" y="715" on="0"/>
        <pt x="462" y="715" on="1"/>
        <pt x="347" y="715" on="0"/>
        <pt x="220" y="538" on="0"/>
        <pt x="220" y="379" on="1"/>
        <pt x="220" y="223" on="0"/>
        <pt x="344" y="57" on="0"/>
        <pt x="462" y="57" on="1"/>
        <pt x="547" y="57" on="0"/>
        <pt x="642" y="144" on="0"/>
        <pt x="642" y="221" on="1"/>
        <pt x="642" y="267" on="0"/>
        <pt x="594" y="310" on="0"/>
        <pt x="537" y="315" on="1"/>
        <pt x="537" y="355" on="1"/>
        <pt x="861" y="355" on="1"/>
        <pt x="861" y="315" on="1"/>
        <pt x="812" y="315" on="0"/>
        <pt x="774" y="272" on="0"/>
        <pt x="774" y="216" on="1"/>
        <pt x="774" y="83" on="1"/>
        <pt x="752" y="83" on="0"/>
        <pt x="722" y="80" on="0"/>
        <pt x="693" y="71" on="0"/>
        <pt x="657" y="51" on="0"/>
        <pt x="630" y="35" on="1"/>
        <pt x="553" y="-10" on="0"/>
      </contour>
      <contour>
        <pt x="387" y="-219" on="1"/>
        <pt x="445" y="-187" on="0"/>
        <pt x="445" y="-147" on="1"/>
        <pt x="435" y="-155" on="0"/>
        <pt x="418" y="-155" on="1"/>
        <pt x="399" y="-155" on="0"/>
        <pt x="372" y="-128" on="0"/>
        <pt x="372" y="-105" on="1"/>
        <pt x="372" y="-82" on="0"/>
        <pt x="412" y="-45" on="0"/>
        <pt x="444" y="-45" on="1"/>
        <pt x="476" y="-45" on="0"/>
        <pt x="510" y="-86" on="0"/>
        <pt x="510" y="-124" on="1"/>
        <pt x="510" y="-158" on="0"/>
        <pt x="467" y="-221" on="0"/>
        <pt x="415" y="-250" on="1"/>
      </contour>
    </TTGlyph>
    <TTGlyph name="Gdotaccent" xMin="47" yMin="-10" xMax="861" yMax="959">
      <contour>
        <pt x="438" y="-10" on="1"/>
        <pt x="348" y="-10" on="0"/>
        <pt x="203" y="43" on="0"/>
        <pt x="102" y="142" on="0"/>
        <pt x="47" y="283" on="0"/>
        <pt x="47" y="371" on="1"/>
        <pt x="47" y="462" on="0"/>
        <pt x="106" y="613" on="0"/>
        <pt x="212" y="721" on="0"/>
        <pt x="360" y="780" on="0"/>
        <pt x="450" y="780" on="1"/>
        <pt x="512" y="780" on="0"/>
        <pt x="624" y="746" on="0"/>
        <pt x="689" y="708" on="1"/>
        <pt x="708" y="770" on="1"/>
        <pt x="744" y="770" on="1"/>
        <pt x="744" y="517" on="1"/>
        <pt x="694" y="517" on="1"/>
        <pt x="674" y="611" on="0"/>
        <pt x="553" y="715" on="0"/>
        <pt x="462" y="715" on="1"/>
        <pt x="347" y="715" on="0"/>
        <pt x="220" y="538" on="0"/>
        <pt x="220" y="379" on="1"/>
        <pt x="220" y="223" on="0"/>
        <pt x="344" y="57" on="0"/>
        <pt x="462" y="57" on="1"/>
        <pt x="547" y="57" on="0"/>
        <pt x="642" y="144" on="0"/>
        <pt x="642" y="221" on="1"/>
        <pt x="642" y="267" on="0"/>
        <pt x="594" y="310" on="0"/>
        <pt x="537" y="315" on="1"/>
        <pt x="537" y="355" on="1"/>
        <pt x="861" y="355" on="1"/>
        <pt x="861" y="315" on="1"/>
        <pt x="812" y="315" on="0"/>
        <pt x="774" y="272" on="0"/>
        <pt x="774" y="216" on="1"/>
        <pt x="774" y="83" on="1"/>
        <pt x="752" y="83" on="0"/>
        <pt x="722" y="80" on="0"/>
        <pt x="693" y="71" on="0"/>
        <pt x="657" y="51" on="0"/>
        <pt x="630" y="35" on="1"/>
        <pt x="553" y="-10" on="0"/>
      </contour>
      <contour>
        <pt x="374" y="893" on="1"/>
        <pt x="374" y="921" on="0"/>
        <pt x="414" y="959" on="0"/>
        <pt x="440" y="959" on="1"/>
        <pt x="469" y="959" on="0"/>
        <pt x="510" y="921" on="0"/>
        <pt x="510" y="893" on="1"/>
        <pt x="510" y="867" on="0"/>
        <pt x="469" y="830" on="0"/>
        <pt x="440" y="830" on="1"/>
        <pt x="414" y="830" on="0"/>
        <pt x="374" y="867" on="0"/>
      </contour>
    </TTGlyph>
    <TTGlyph name="H" xMin="35" yMin="0" xMax="910" yMax="770">
      <contour>
        <pt x="805" y="161" on="1"/>
        <pt x="805" y="123" on="0"/>
        <pt x="812" y="76" on="0"/>
        <pt x="835" y="51" on="0"/>
        <pt x="876" y="41" on="0"/>
        <pt x="910" y="40" on="1"/>
        <pt x="910" y="0" on="1"/>
        <pt x="543" y="0" on="1"/>
        <pt x="543" y="40" on="1"/>
        <pt x="580" y="41" on="0"/>
        <pt x="625" y="51" on="0"/>
        <pt x="650" y="75" on="0"/>
        <pt x="658" y="119" on="0"/>
        <pt x="658" y="154" on="1"/>
        <pt x="658" y="363" on="1"/>
        <pt x="287" y="363" on="1"/>
        <pt x="287" y="161" on="1"/>
        <pt x="287" y="123" on="0"/>
        <pt x="295" y="76" on="0"/>
        <pt x="319" y="51" on="0"/>
        <pt x="364" y="41" on="0"/>
        <pt x="401" y="40" on="1"/>
        <pt x="401" y="0" on="1"/>
        <pt x="35" y="0" on="1"/>
        <pt x="35" y="40" on="1"/>
        <pt x="69" y="41" on="0"/>
        <pt x="110" y="51" on="0"/>
        <pt x="132" y="75" on="0"/>
        <pt x="140" y="119" on="0"/>
        <pt x="140" y="154" on="1"/>
        <pt x="140" y="616" on="1"/>
        <pt x="140" y="651" on="0"/>
        <pt x="133" y="694" on="0"/>
        <pt x="113" y="719" on="0"/>
        <pt x="76" y="728" on="0"/>
        <pt x="46" y="730" on="1"/>
        <pt x="46" y="770" on="1"/>
        <pt x="391" y="770" on="1"/>
        <pt x="391" y="730" on="1"/>
        <pt x="357" y="729" on="0"/>
        <pt x="316" y="719" on="0"/>
        <pt x="294" y="693" on="0"/>
        <pt x="287" y="647" on="0"/>
        <pt x="287" y="609" on="1"/>
        <pt x="287" y="425" on="1"/>
        <pt x="658" y="425" on="1"/>
        <pt x="658" y="616" on="1"/>
        <pt x="658" y="651" on="0"/>
        <pt x="650" y="694" on="0"/>
        <pt x="628" y="719" on="0"/>
        <pt x="587" y="728" on="0"/>
        <pt x="553" y="730" on="1"/>
        <pt x="553" y="770" on="1"/>
        <pt x="899" y="770" on="1"/>
        <pt x="899" y="730" on="1"/>
        <pt x="869" y="729" on="0"/>
        <pt x="832" y="719" on="0"/>
        <pt x="812" y="693" on="0"/>
        <pt x="805" y="647" on="0"/>
        <pt x="805" y="609" on="1"/>
      </contour>
    </TTGlyph>
    <TTGlyph name="Hbar" xMin="37" yMin="0" xMax="912" yMax="770">
      <contour>
        <pt x="807" y="601" on="1"/>
        <pt x="882" y="601" on="1"/>
        <pt x="882" y="541" on="1"/>
        <pt x="807" y="541" on="1"/>
        <pt x="807" y="161" on="1"/>
        <pt x="807" y="123" on="0"/>
        <pt x="814" y="76" on="0"/>
        <pt x="837" y="51" on="0"/>
        <pt x="878" y="41" on="0"/>
        <pt x="912" y="40" on="1"/>
        <pt x="912" y="0" on="1"/>
        <pt x="545" y="0" on="1"/>
        <pt x="545" y="40" on="1"/>
        <pt x="582" y="41" on="0"/>
        <pt x="627" y="51" on="0"/>
        <pt x="652" y="75" on="0"/>
        <pt x="660" y="119" on="0"/>
        <pt x="660" y="154" on="1"/>
        <pt x="660" y="363" on="1"/>
        <pt x="289" y="363" on="1"/>
        <pt x="289" y="161" on="1"/>
        <pt x="289" y="123" on="0"/>
        <pt x="297" y="76" on="0"/>
        <pt x="321" y="51" on="0"/>
        <pt x="366" y="41" on="0"/>
        <pt x="403" y="40" on="1"/>
        <pt x="403" y="0" on="1"/>
        <pt x="37" y="0" on="1"/>
        <pt x="37" y="40" on="1"/>
        <pt x="71" y="41" on="0"/>
        <pt x="112" y="51" on="0"/>
        <pt x="134" y="75" on="0"/>
        <pt x="142" y="119" on="0"/>
        <pt x="142" y="154" on="1"/>
        <pt x="142" y="541" on="1"/>
        <pt x="70" y="541" on="1"/>
        <pt x="70" y="601" on="1"/>
        <pt x="142" y="601" on="1"/>
        <pt x="142" y="616" on="1"/>
        <pt x="142" y="651" on="0"/>
        <pt x="135" y="694" on="0"/>
        <pt x="115" y="719" on="0"/>
        <pt x="78" y="728" on="0"/>
        <pt x="48" y="730" on="1"/>
        <pt x="48" y="770" on="1"/>
        <pt x="393" y="770" on="1"/>
        <pt x="393" y="730" on="1"/>
        <pt x="359" y="729" on="0"/>
        <pt x="318" y="719" on="0"/>
        <pt x="296" y="693" on="0"/>
        <pt x="289" y="647" on="0"/>
        <pt x="289" y="609" on="1"/>
        <pt x="289" y="601" on="1"/>
        <pt x="660" y="601" on="1"/>
        <pt x="660" y="616" on="1"/>
        <pt x="660" y="651" on="0"/>
        <pt x="652" y="694" on="0"/>
        <pt x="630" y="719" on="0"/>
        <pt x="589" y="728" on="0"/>
        <pt x="555" y="730" on="1"/>
        <pt x="555" y="770" on="1"/>
        <pt x="901" y="770" on="1"/>
        <pt x="901" y="730" on="1"/>
        <pt x="871" y="729" on="0"/>
        <pt x="834" y="719" on="0"/>
        <pt x="814" y="693" on="0"/>
        <pt x="807" y="647" on="0"/>
        <pt x="807" y="609" on="1"/>
      </contour>
      <contour>
        <pt x="660" y="425" on="1"/>
        <pt x="660" y="541" on="1"/>
        <pt x="289" y="541" on="1"/>
        <pt x="289" y="425" on="1"/>
      </contour>
    </TTGlyph>
    <TTGlyph name="Hcircumflex" xMin="35" yMin="0" xMax="910" yMax="960">
      <contour>
        <pt x="805" y="161" on="1"/>
        <pt x="805" y="123" on="0"/>
        <pt x="812" y="76" on="0"/>
        <pt x="835" y="51" on="0"/>
        <pt x="876" y="41" on="0"/>
        <pt x="910" y="40" on="1"/>
        <pt x="910" y="0" on="1"/>
        <pt x="543" y="0" on="1"/>
        <pt x="543" y="40" on="1"/>
        <pt x="580" y="41" on="0"/>
        <pt x="625" y="51" on="0"/>
        <pt x="650" y="75" on="0"/>
        <pt x="658" y="119" on="0"/>
        <pt x="658" y="154" on="1"/>
        <pt x="658" y="363" on="1"/>
        <pt x="287" y="363" on="1"/>
        <pt x="287" y="161" on="1"/>
        <pt x="287" y="123" on="0"/>
        <pt x="295" y="76" on="0"/>
        <pt x="319" y="51" on="0"/>
        <pt x="364" y="41" on="0"/>
        <pt x="401" y="40" on="1"/>
        <pt x="401" y="0" on="1"/>
        <pt x="35" y="0" on="1"/>
        <pt x="35" y="40" on="1"/>
        <pt x="69" y="41" on="0"/>
        <pt x="110" y="51" on="0"/>
        <pt x="132" y="75" on="0"/>
        <pt x="140" y="119" on="0"/>
        <pt x="140" y="154" on="1"/>
        <pt x="140" y="616" on="1"/>
        <pt x="140" y="651" on="0"/>
        <pt x="133" y="694" on="0"/>
        <pt x="113" y="719" on="0"/>
        <pt x="76" y="728" on="0"/>
        <pt x="46" y="730" on="1"/>
        <pt x="46" y="770" on="1"/>
        <pt x="391" y="770" on="1"/>
        <pt x="391" y="730" on="1"/>
        <pt x="357" y="729" on="0"/>
        <pt x="316" y="719" on="0"/>
        <pt x="294" y="693" on="0"/>
        <pt x="287" y="647" on="0"/>
        <pt x="287" y="609" on="1"/>
        <pt x="287" y="425" on="1"/>
        <pt x="658" y="425" on="1"/>
        <pt x="658" y="616" on="1"/>
        <pt x="658" y="651" on="0"/>
        <pt x="650" y="694" on="0"/>
        <pt x="628" y="719" on="0"/>
        <pt x="587" y="728" on="0"/>
        <pt x="553" y="730" on="1"/>
        <pt x="553" y="770" on="1"/>
        <pt x="899" y="770" on="1"/>
        <pt x="899" y="730" on="1"/>
        <pt x="869" y="729" on="0"/>
        <pt x="832" y="719" on="0"/>
        <pt x="812" y="693" on="0"/>
        <pt x="805" y="647" on="0"/>
        <pt x="805" y="609" on="1"/>
      </contour>
      <contour>
        <pt x="529" y="960" on="1"/>
        <pt x="653" y="830" on="1"/>
        <pt x="586" y="830" on="1"/>
        <pt x="471" y="879" on="1"/>
        <pt x="356" y="830" on="1"/>
        <pt x="289" y="830" on="1"/>
        <pt x="413" y="960" on="1"/>
      </contour>
    </TTGlyph>
    <TTGlyph name="Hdotbelow" xMin="35" yMin="-242" xMax="910" yMax="770">
      <contour>
        <pt x="805" y="161" on="1"/>
        <pt x="805" y="123" on="0"/>
        <pt x="812" y="76" on="0"/>
        <pt x="835" y="51" on="0"/>
        <pt x="876" y="41" on="0"/>
        <pt x="910" y="40" on="1"/>
        <pt x="910" y="0" on="1"/>
        <pt x="543" y="0" on="1"/>
        <pt x="543" y="40" on="1"/>
        <pt x="580" y="41" on="0"/>
        <pt x="625" y="51" on="0"/>
        <pt x="650" y="75" on="0"/>
        <pt x="658" y="119" on="0"/>
        <pt x="658" y="154" on="1"/>
        <pt x="658" y="363" on="1"/>
        <pt x="287" y="363" on="1"/>
        <pt x="287" y="161" on="1"/>
        <pt x="287" y="123" on="0"/>
        <pt x="295" y="76" on="0"/>
        <pt x="319" y="51" on="0"/>
        <pt x="364" y="41" on="0"/>
        <pt x="401" y="40" on="1"/>
        <pt x="401" y="0" on="1"/>
        <pt x="35" y="0" on="1"/>
        <pt x="35" y="40" on="1"/>
        <pt x="69" y="41" on="0"/>
        <pt x="110" y="51" on="0"/>
        <pt x="132" y="75" on="0"/>
        <pt x="140" y="119" on="0"/>
        <pt x="140" y="154" on="1"/>
        <pt x="140" y="616" on="1"/>
        <pt x="140" y="651" on="0"/>
        <pt x="133" y="694" on="0"/>
        <pt x="113" y="719" on="0"/>
        <pt x="76" y="728" on="0"/>
        <pt x="46" y="730" on="1"/>
        <pt x="46" y="770" on="1"/>
        <pt x="391" y="770" on="1"/>
        <pt x="391" y="730" on="1"/>
        <pt x="357" y="729" on="0"/>
        <pt x="316" y="719" on="0"/>
        <pt x="294" y="693" on="0"/>
        <pt x="287" y="647" on="0"/>
        <pt x="287" y="609" on="1"/>
        <pt x="287" y="425" on="1"/>
        <pt x="658" y="425" on="1"/>
        <pt x="658" y="616" on="1"/>
        <pt x="658" y="651" on="0"/>
        <pt x="650" y="694" on="0"/>
        <pt x="628" y="719" on="0"/>
        <pt x="587" y="728" on="0"/>
        <pt x="553" y="730" on="1"/>
        <pt x="553" y="770" on="1"/>
        <pt x="899" y="770" on="1"/>
        <pt x="899" y="730" on="1"/>
        <pt x="869" y="729" on="0"/>
        <pt x="832" y="719" on="0"/>
        <pt x="812" y="693" on="0"/>
        <pt x="805" y="647" on="0"/>
        <pt x="805" y="609" on="1"/>
      </contour>
      <contour>
        <pt x="420" y="-165" on="1"/>
        <pt x="420" y="-132" on="0"/>
        <pt x="465" y="-87" on="0"/>
        <pt x="497" y="-87" on="1"/>
        <pt x="530" y="-87" on="0"/>
        <pt x="575" y="-132" on="0"/>
        <pt x="575" y="-165" on="1"/>
        <pt x="575" y="-197" on="0"/>
        <pt x="530" y="-242" on="0"/>
        <pt x="497" y="-242" on="1"/>
        <pt x="465" y="-242" on="0"/>
        <pt x="420" y="-197" on="0"/>
      </contour>
    </TTGlyph>
    <TTGlyph name="I" xMin="36" yMin="0" xMax="393" yMax="770">
      <contour>
        <pt x="393" y="0" on="1"/>
        <pt x="36" y="0" on="1"/>
        <pt x="36" y="40" on="1"/>
        <pt x="70" y="41" on="0"/>
        <pt x="111" y="52" on="0"/>
        <pt x="133" y="82" on="0"/>
        <pt x="141" y="137" on="0"/>
        <pt x="141" y="184" on="1"/>
        <pt x="141" y="586" on="1"/>
        <pt x="141" y="628" on="0"/>
        <pt x="134" y="683" on="0"/>
        <pt x="114" y="715" on="0"/>
        <pt x="77" y="728" on="0"/>
        <pt x="46" y="730" on="1"/>
        <pt x="46" y="770" on="1"/>
        <pt x="383" y="770" on="1"/>
        <pt x="383" y="730" on="1"/>
        <pt x="352" y="728" on="0"/>
        <pt x="315" y="715" on="0"/>
        <pt x="295" y="683" on="0"/>
        <pt x="288" y="628" on="0"/>
        <pt x="288" y="586" on="1"/>
        <pt x="288" y="184" on="1"/>
        <pt x="288" y="137" on="0"/>
        <pt x="295" y="82" on="0"/>
        <pt x="318" y="52" on="0"/>
        <pt x="359" y="41" on="0"/>
        <pt x="393" y="40" on="1"/>
      </contour>
    </TTGlyph>
    <TTGlyph name="IJ" xMin="36" yMin="-260" xMax="801" yMax="770">
      <contour>
        <pt x="393" y="0" on="1"/>
        <pt x="36" y="0" on="1"/>
        <pt x="36" y="40" on="1"/>
        <pt x="70" y="41" on="0"/>
        <pt x="111" y="52" on="0"/>
        <pt x="133" y="82" on="0"/>
        <pt x="141" y="137" on="0"/>
        <pt x="141" y="184" on="1"/>
        <pt x="141" y="586" on="1"/>
        <pt x="141" y="628" on="0"/>
        <pt x="134" y="683" on="0"/>
        <pt x="114" y="715" on="0"/>
        <pt x="77" y="728" on="0"/>
        <pt x="46" y="730" on="1"/>
        <pt x="46" y="770" on="1"/>
        <pt x="383" y="770" on="1"/>
        <pt x="383" y="730" on="1"/>
        <pt x="352" y="728" on="0"/>
        <pt x="315" y="715" on="0"/>
        <pt x="295" y="683" on="0"/>
        <pt x="288" y="628" on="0"/>
        <pt x="288" y="586" on="1"/>
        <pt x="288" y="184" on="1"/>
        <pt x="288" y="137" on="0"/>
        <pt x="295" y="82" on="0"/>
        <pt x="318" y="52" on="0"/>
        <pt x="359" y="41" on="0"/>
        <pt x="393" y="40" on="1"/>
      </contour>
      <contour>
        <pt x="559" y="616" on="1"/>
        <pt x="559" y="651" on="0"/>
        <pt x="552" y="694" on="0"/>
        <pt x="532" y="719" on="0"/>
        <pt x="495" y="728" on="0"/>
        <pt x="464" y="730" on="1"/>
        <pt x="464" y="770" on="1"/>
        <pt x="801" y="770" on="1"/>
        <pt x="801" y="730" on="1"/>
        <pt x="770" y="729" on="0"/>
        <pt x="732" y="719" on="0"/>
        <pt x="712" y="693" on="0"/>
        <pt x="706" y="647" on="0"/>
        <pt x="706" y="609" on="1"/>
        <pt x="706" y="-2" on="1"/>
        <pt x="706" y="-128" on="0"/>
        <pt x="578" y="-260" on="0"/>
        <pt x="451" y="-260" on="1"/>
        <pt x="360" y="-260" on="0"/>
        <pt x="261" y="-198" on="0"/>
        <pt x="261" y="-150" on="1"/>
        <pt x="261" y="-121" on="0"/>
        <pt x="298" y="-90" on="0"/>
        <pt x="325" y="-90" on="1"/>
        <pt x="348" y="-90" on="0"/>
        <pt x="375" y="-114" on="0"/>
        <pt x="395" y="-147" on="1"/>
        <pt x="415" y="-180" on="0"/>
        <pt x="447" y="-202" on="0"/>
        <pt x="470" y="-202" on="1"/>
        <pt x="513" y="-202" on="0"/>
        <pt x="559" y="-108" on="0"/>
        <pt x="559" y="-23" on="1"/>
      </contour>
    </TTGlyph>
    <TTGlyph name="Iacute" xMin="36" yMin="0" xMax="398" yMax="960">
      <contour>
        <pt x="393" y="0" on="1"/>
        <pt x="36" y="0" on="1"/>
        <pt x="36" y="40" on="1"/>
        <pt x="70" y="41" on="0"/>
        <pt x="111" y="52" on="0"/>
        <pt x="133" y="82" on="0"/>
        <pt x="141" y="137" on="0"/>
        <pt x="141" y="184" on="1"/>
        <pt x="141" y="586" on="1"/>
        <pt x="141" y="628" on="0"/>
        <pt x="134" y="683" on="0"/>
        <pt x="114" y="715" on="0"/>
        <pt x="77" y="728" on="0"/>
        <pt x="46" y="730" on="1"/>
        <pt x="46" y="770" on="1"/>
        <pt x="383" y="770" on="1"/>
        <pt x="383" y="730" on="1"/>
        <pt x="352" y="728" on="0"/>
        <pt x="315" y="715" on="0"/>
        <pt x="295" y="683" on="0"/>
        <pt x="288" y="628" on="0"/>
        <pt x="288" y="586" on="1"/>
        <pt x="288" y="184" on="1"/>
        <pt x="288" y="137" on="0"/>
        <pt x="295" y="82" on="0"/>
        <pt x="318" y="52" on="0"/>
        <pt x="359" y="41" on="0"/>
        <pt x="393" y="40" on="1"/>
      </contour>
      <contour>
        <pt x="121" y="830" on="1"/>
        <pt x="247" y="927" on="1"/>
        <pt x="267" y="942" on="0"/>
        <pt x="315" y="960" on="0"/>
        <pt x="341" y="960" on="1"/>
        <pt x="369" y="960" on="0"/>
        <pt x="398" y="940" on="0"/>
        <pt x="398" y="923" on="1"/>
        <pt x="398" y="900" on="0"/>
        <pt x="362" y="871" on="0"/>
        <pt x="310" y="858" on="1"/>
        <pt x="194" y="830" on="1"/>
      </contour>
    </TTGlyph>
    <TTGlyph name="Ibreve" xMin="36" yMin="0" xMax="393" yMax="960">
      <contour>
        <pt x="393" y="0" on="1"/>
        <pt x="36" y="0" on="1"/>
        <pt x="36" y="40" on="1"/>
        <pt x="70" y="41" on="0"/>
        <pt x="111" y="52" on="0"/>
        <pt x="133" y="82" on="0"/>
        <pt x="141" y="137" on="0"/>
        <pt x="141" y="184" on="1"/>
        <pt x="141" y="586" on="1"/>
        <pt x="141" y="628" on="0"/>
        <pt x="134" y="683" on="0"/>
        <pt x="114" y="715" on="0"/>
        <pt x="77" y="728" on="0"/>
        <pt x="46" y="730" on="1"/>
        <pt x="46" y="770" on="1"/>
        <pt x="383" y="770" on="1"/>
        <pt x="383" y="730" on="1"/>
        <pt x="352" y="728" on="0"/>
        <pt x="315" y="715" on="0"/>
        <pt x="295" y="683" on="0"/>
        <pt x="288" y="628" on="0"/>
        <pt x="288" y="586" on="1"/>
        <pt x="288" y="184" on="1"/>
        <pt x="288" y="137" on="0"/>
        <pt x="295" y="82" on="0"/>
        <pt x="318" y="52" on="0"/>
        <pt x="359" y="41" on="0"/>
        <pt x="393" y="40" on="1"/>
      </contour>
      <contour>
        <pt x="364" y="960" on="1"/>
        <pt x="362" y="931" on="0"/>
        <pt x="338" y="884" on="0"/>
        <pt x="298" y="849" on="0"/>
        <pt x="245" y="830" on="0"/>
        <pt x="214" y="830" on="1"/>
        <pt x="182" y="830" on="0"/>
        <pt x="129" y="850" on="0"/>
        <pt x="89" y="884" on="0"/>
        <pt x="65" y="932" on="0"/>
        <pt x="64" y="960" on="1"/>
        <pt x="107" y="960" on="1"/>
        <pt x="116" y="941" on="0"/>
        <pt x="174" y="919" on="0"/>
        <pt x="213" y="919" on="1"/>
        <pt x="252" y="919" on="0"/>
        <pt x="311" y="941" on="0"/>
        <pt x="320" y="960" on="1"/>
      </contour>
    </TTGlyph>
    <TTGlyph name="Icircumflex" xMin="32" yMin="0" xMax="396" yMax="960">
      <contour>
        <pt x="393" y="0" on="1"/>
        <pt x="36" y="0" on="1"/>
        <pt x="36" y="40" on="1"/>
        <pt x="70" y="41" on="0"/>
        <pt x="111" y="52" on="0"/>
        <pt x="133" y="82" on="0"/>
        <pt x="141" y="137" on="0"/>
        <pt x="141" y="184" on="1"/>
        <pt x="141" y="586" on="1"/>
        <pt x="141" y="628" on="0"/>
        <pt x="134" y="683" on="0"/>
        <pt x="114" y="715" on="0"/>
        <pt x="77" y="728" on="0"/>
        <pt x="46" y="730" on="1"/>
        <pt x="46" y="770" on="1"/>
        <pt x="383" y="770" on="1"/>
        <pt x="383" y="730" on="1"/>
        <pt x="352" y="728" on="0"/>
        <pt x="315" y="715" on="0"/>
        <pt x="295" y="683" on="0"/>
        <pt x="288" y="628" on="0"/>
        <pt x="288" y="586" on="1"/>
        <pt x="288" y="184" on="1"/>
        <pt x="288" y="137" on="0"/>
        <pt x="295" y="82" on="0"/>
        <pt x="318" y="52" on="0"/>
        <pt x="359" y="41" on="0"/>
        <pt x="393" y="40" on="1"/>
      </contour>
      <contour>
        <pt x="272" y="960" on="1"/>
        <pt x="396" y="830" on="1"/>
        <pt x="329" y="830" on="1"/>
        <pt x="214" y="879" on="1"/>
        <pt x="99" y="830" on="1"/>
        <pt x="32" y="830" on="1"/>
        <pt x="156" y="960" on="1"/>
      </contour>
    </TTGlyph>
    <TTGlyph name="Idieresis" xMin="36" yMin="0" xMax="393" yMax="960">
      <contour>
        <pt x="393" y="0" on="1"/>
        <pt x="36" y="0" on="1"/>
        <pt x="36" y="40" on="1"/>
        <pt x="70" y="41" on="0"/>
        <pt x="111" y="52" on="0"/>
        <pt x="133" y="82" on="0"/>
        <pt x="141" y="137" on="0"/>
        <pt x="141" y="184" on="1"/>
        <pt x="141" y="586" on="1"/>
        <pt x="141" y="628" on="0"/>
        <pt x="134" y="683" on="0"/>
        <pt x="114" y="715" on="0"/>
        <pt x="77" y="728" on="0"/>
        <pt x="46" y="730" on="1"/>
        <pt x="46" y="770" on="1"/>
        <pt x="383" y="770" on="1"/>
        <pt x="383" y="730" on="1"/>
        <pt x="352" y="728" on="0"/>
        <pt x="315" y="715" on="0"/>
        <pt x="295" y="683" on="0"/>
        <pt x="288" y="628" on="0"/>
        <pt x="288" y="586" on="1"/>
        <pt x="288" y="184" on="1"/>
        <pt x="288" y="137" on="0"/>
        <pt x="295" y="82" on="0"/>
        <pt x="318" y="52" on="0"/>
        <pt x="359" y="41" on="0"/>
        <pt x="393" y="40" on="1"/>
      </contour>
      <contour>
        <pt x="45" y="903" on="1"/>
        <pt x="45" y="928" on="0"/>
        <pt x="79" y="960" on="0"/>
        <pt x="105" y="960" on="1"/>
        <pt x="132" y="960" on="0"/>
        <pt x="167" y="928" on="0"/>
        <pt x="167" y="903" on="1"/>
        <pt x="167" y="877" on="0"/>
        <pt x="132" y="844" on="0"/>
        <pt x="105" y="844" on="1"/>
        <pt x="79" y="844" on="0"/>
        <pt x="45" y="877" on="0"/>
      </contour>
      <contour>
        <pt x="262" y="903" on="1"/>
        <pt x="262" y="928" on="0"/>
        <pt x="297" y="960" on="0"/>
        <pt x="324" y="960" on="1"/>
        <pt x="349" y="960" on="0"/>
        <pt x="384" y="928" on="0"/>
        <pt x="384" y="903" on="1"/>
        <pt x="384" y="877" on="0"/>
        <pt x="349" y="844" on="0"/>
        <pt x="324" y="844" on="1"/>
        <pt x="297" y="844" on="0"/>
        <pt x="262" y="877" on="0"/>
      </contour>
    </TTGlyph>
    <TTGlyph name="Idotaccent" xMin="36" yMin="0" xMax="393" yMax="959">
      <contour>
        <pt x="393" y="0" on="1"/>
        <pt x="36" y="0" on="1"/>
        <pt x="36" y="40" on="1"/>
        <pt x="70" y="41" on="0"/>
        <pt x="111" y="52" on="0"/>
        <pt x="133" y="82" on="0"/>
        <pt x="141" y="137" on="0"/>
        <pt x="141" y="184" on="1"/>
        <pt x="141" y="586" on="1"/>
        <pt x="141" y="628" on="0"/>
        <pt x="134" y="683" on="0"/>
        <pt x="114" y="715" on="0"/>
        <pt x="77" y="728" on="0"/>
        <pt x="46" y="730" on="1"/>
        <pt x="46" y="770" on="1"/>
        <pt x="383" y="770" on="1"/>
        <pt x="383" y="730" on="1"/>
        <pt x="352" y="728" on="0"/>
        <pt x="315" y="715" on="0"/>
        <pt x="295" y="683" on="0"/>
        <pt x="288" y="628" on="0"/>
        <pt x="288" y="586" on="1"/>
        <pt x="288" y="184" on="1"/>
        <pt x="288" y="137" on="0"/>
        <pt x="295" y="82" on="0"/>
        <pt x="318" y="52" on="0"/>
        <pt x="359" y="41" on="0"/>
        <pt x="393" y="40" on="1"/>
      </contour>
      <contour>
        <pt x="147" y="893" on="1"/>
        <pt x="147" y="921" on="0"/>
        <pt x="187" y="959" on="0"/>
        <pt x="213" y="959" on="1"/>
        <pt x="242" y="959" on="0"/>
        <pt x="283" y="921" on="0"/>
        <pt x="283" y="893" on="1"/>
        <pt x="283" y="867" on="0"/>
        <pt x="242" y="830" on="0"/>
        <pt x="213" y="830" on="1"/>
        <pt x="187" y="830" on="0"/>
        <pt x="147" y="867" on="0"/>
      </contour>
    </TTGlyph>
    <TTGlyph name="Idotbelow" xMin="36" yMin="-242" xMax="393" yMax="770">
      <contour>
        <pt x="393" y="0" on="1"/>
        <pt x="36" y="0" on="1"/>
        <pt x="36" y="40" on="1"/>
        <pt x="70" y="41" on="0"/>
        <pt x="111" y="52" on="0"/>
        <pt x="133" y="82" on="0"/>
        <pt x="141" y="137" on="0"/>
        <pt x="141" y="184" on="1"/>
        <pt x="141" y="586" on="1"/>
        <pt x="141" y="628" on="0"/>
        <pt x="134" y="683" on="0"/>
        <pt x="114" y="715" on="0"/>
        <pt x="77" y="728" on="0"/>
        <pt x="46" y="730" on="1"/>
        <pt x="46" y="770" on="1"/>
        <pt x="383" y="770" on="1"/>
        <pt x="383" y="730" on="1"/>
        <pt x="352" y="728" on="0"/>
        <pt x="315" y="715" on="0"/>
        <pt x="295" y="683" on="0"/>
        <pt x="288" y="628" on="0"/>
        <pt x="288" y="586" on="1"/>
        <pt x="288" y="184" on="1"/>
        <pt x="288" y="137" on="0"/>
        <pt x="295" y="82" on="0"/>
        <pt x="318" y="52" on="0"/>
        <pt x="359" y="41" on="0"/>
        <pt x="393" y="40" on="1"/>
      </contour>
      <contour>
        <pt x="136" y="-165" on="1"/>
        <pt x="136" y="-132" on="0"/>
        <pt x="181" y="-87" on="0"/>
        <pt x="213" y="-87" on="1"/>
        <pt x="246" y="-87" on="0"/>
        <pt x="291" y="-132" on="0"/>
        <pt x="291" y="-165" on="1"/>
        <pt x="291" y="-197" on="0"/>
        <pt x="246" y="-242" on="0"/>
        <pt x="213" y="-242" on="1"/>
        <pt x="181" y="-242" on="0"/>
        <pt x="136" y="-197" on="0"/>
      </contour>
    </TTGlyph>
    <TTGlyph name="Igrave" xMin="36" yMin="0" xMax="393" yMax="960">
      <contour>
        <pt x="393" y="0" on="1"/>
        <pt x="36" y="0" on="1"/>
        <pt x="36" y="40" on="1"/>
        <pt x="70" y="41" on="0"/>
        <pt x="111" y="52" on="0"/>
        <pt x="133" y="82" on="0"/>
        <pt x="141" y="137" on="0"/>
        <pt x="141" y="184" on="1"/>
        <pt x="141" y="586" on="1"/>
        <pt x="141" y="628" on="0"/>
        <pt x="134" y="683" on="0"/>
        <pt x="114" y="715" on="0"/>
        <pt x="77" y="728" on="0"/>
        <pt x="46" y="730" on="1"/>
        <pt x="46" y="770" on="1"/>
        <pt x="383" y="770" on="1"/>
        <pt x="383" y="730" on="1"/>
        <pt x="352" y="728" on="0"/>
        <pt x="315" y="715" on="0"/>
        <pt x="295" y="683" on="0"/>
        <pt x="288" y="628" on="0"/>
        <pt x="288" y="586" on="1"/>
        <pt x="288" y="184" on="1"/>
        <pt x="288" y="137" on="0"/>
        <pt x="295" y="82" on="0"/>
        <pt x="318" y="52" on="0"/>
        <pt x="359" y="41" on="0"/>
        <pt x="393" y="40" on="1"/>
      </contour>
      <contour>
        <pt x="273" y="830" on="1"/>
        <pt x="157" y="858" on="1"/>
        <pt x="105" y="871" on="0"/>
        <pt x="69" y="900" on="0"/>
        <pt x="69" y="923" on="1"/>
        <pt x="69" y="940" on="0"/>
        <pt x="98" y="960" on="0"/>
        <pt x="126" y="960" on="1"/>
        <pt x="152" y="960" on="0"/>
        <pt x="200" y="942" on="0"/>
        <pt x="220" y="927" on="1"/>
        <pt x="346" y="830" on="1"/>
      </contour>
    </TTGlyph>
    <TTGlyph name="Imacron" xMin="36" yMin="0" xMax="393" yMax="930">
      <contour>
        <pt x="393" y="0" on="1"/>
        <pt x="36" y="0" on="1"/>
        <pt x="36" y="40" on="1"/>
        <pt x="70" y="41" on="0"/>
        <pt x="111" y="52" on="0"/>
        <pt x="133" y="82" on="0"/>
        <pt x="141" y="137" on="0"/>
        <pt x="141" y="184" on="1"/>
        <pt x="141" y="586" on="1"/>
        <pt x="141" y="628" on="0"/>
        <pt x="134" y="683" on="0"/>
        <pt x="114" y="715" on="0"/>
        <pt x="77" y="728" on="0"/>
        <pt x="46" y="730" on="1"/>
        <pt x="46" y="770" on="1"/>
        <pt x="383" y="770" on="1"/>
        <pt x="383" y="730" on="1"/>
        <pt x="352" y="728" on="0"/>
        <pt x="315" y="715" on="0"/>
        <pt x="295" y="683" on="0"/>
        <pt x="288" y="628" on="0"/>
        <pt x="288" y="586" on="1"/>
        <pt x="288" y="184" on="1"/>
        <pt x="288" y="137" on="0"/>
        <pt x="295" y="82" on="0"/>
        <pt x="318" y="52" on="0"/>
        <pt x="359" y="41" on="0"/>
        <pt x="393" y="40" on="1"/>
      </contour>
      <contour>
        <pt x="73" y="865" on="1"/>
        <pt x="73" y="930" on="1"/>
        <pt x="357" y="930" on="1"/>
        <pt x="357" y="865" on="1"/>
      </contour>
    </TTGlyph>
    <TTGlyph name="Iogonek" xMin="31" yMin="-239" xMax="393" yMax="770">
      <contour>
        <pt x="307" y="-152" on="1"/>
        <pt x="275" y="-194" on="0"/>
        <pt x="189" y="-239" on="0"/>
        <pt x="141" y="-239" on="1"/>
        <pt x="31" y="-239" on="0"/>
        <pt x="31" y="-151" on="1"/>
        <pt x="31" y="-106" on="0"/>
        <pt x="110" y="-29" on="0"/>
        <pt x="183" y="0" on="1"/>
        <pt x="36" y="0" on="1"/>
        <pt x="36" y="40" on="1"/>
        <pt x="70" y="41" on="0"/>
        <pt x="111" y="52" on="0"/>
        <pt x="133" y="82" on="0"/>
        <pt x="141" y="137" on="0"/>
        <pt x="141" y="184" on="1"/>
        <pt x="141" y="586" on="1"/>
        <pt x="141" y="628" on="0"/>
        <pt x="134" y="683" on="0"/>
        <pt x="114" y="715" on="0"/>
        <pt x="77" y="728" on="0"/>
        <pt x="46" y="730" on="1"/>
        <pt x="46" y="770" on="1"/>
        <pt x="383" y="770" on="1"/>
        <pt x="383" y="730" on="1"/>
        <pt x="352" y="728" on="0"/>
        <pt x="315" y="715" on="0"/>
        <pt x="295" y="683" on="0"/>
        <pt x="288" y="628" on="0"/>
        <pt x="288" y="586" on="1"/>
        <pt x="288" y="184" on="1"/>
        <pt x="288" y="137" on="0"/>
        <pt x="295" y="82" on="0"/>
        <pt x="318" y="52" on="0"/>
        <pt x="359" y="41" on="0"/>
        <pt x="393" y="40" on="1"/>
        <pt x="393" y="0" on="1"/>
        <pt x="258" y="0" on="1"/>
        <pt x="203" y="-24" on="0"/>
        <pt x="134" y="-93" on="0"/>
        <pt x="134" y="-124" on="1"/>
        <pt x="134" y="-144" on="0"/>
        <pt x="161" y="-169" on="0"/>
        <pt x="183" y="-169" on="1"/>
        <pt x="205" y="-169" on="0"/>
        <pt x="252" y="-141" on="0"/>
        <pt x="272" y="-116" on="1"/>
      </contour>
    </TTGlyph>
    <TTGlyph name="Itilde" xMin="27" yMin="0" xMax="406" yMax="962">
      <contour>
        <pt x="393" y="0" on="1"/>
        <pt x="36" y="0" on="1"/>
        <pt x="36" y="40" on="1"/>
        <pt x="70" y="41" on="0"/>
        <pt x="111" y="52" on="0"/>
        <pt x="133" y="82" on="0"/>
        <pt x="141" y="137" on="0"/>
        <pt x="141" y="184" on="1"/>
        <pt x="141" y="586" on="1"/>
        <pt x="141" y="628" on="0"/>
        <pt x="134" y="683" on="0"/>
        <pt x="114" y="715" on="0"/>
        <pt x="77" y="728" on="0"/>
        <pt x="46" y="730" on="1"/>
        <pt x="46" y="770" on="1"/>
        <pt x="383" y="770" on="1"/>
        <pt x="383" y="730" on="1"/>
        <pt x="352" y="728" on="0"/>
        <pt x="315" y="715" on="0"/>
        <pt x="295" y="683" on="0"/>
        <pt x="288" y="628" on="0"/>
        <pt x="288" y="586" on="1"/>
        <pt x="288" y="184" on="1"/>
        <pt x="288" y="137" on="0"/>
        <pt x="295" y="82" on="0"/>
        <pt x="318" y="52" on="0"/>
        <pt x="359" y="41" on="0"/>
        <pt x="393" y="40" on="1"/>
      </contour>
      <contour>
        <pt x="27" y="828" on="1"/>
        <pt x="37" y="887" on="0"/>
        <pt x="103" y="962" on="0"/>
        <pt x="146" y="962" on="1"/>
        <pt x="153" y="962" on="0"/>
        <pt x="168" y="960" on="0"/>
        <pt x="188" y="954" on="0"/>
        <pt x="214" y="945" on="0"/>
        <pt x="233" y="938" on="1"/>
        <pt x="264" y="926" on="0"/>
        <pt x="298" y="916" on="0"/>
        <pt x="312" y="916" on="1"/>
        <pt x="331" y="916" on="0"/>
        <pt x="353" y="935" on="0"/>
        <pt x="361" y="958" on="1"/>
        <pt x="406" y="958" on="1"/>
        <pt x="402" y="932" on="0"/>
        <pt x="378" y="876" on="0"/>
        <pt x="362" y="856" on="1"/>
        <pt x="332" y="820" on="0"/>
        <pt x="289" y="820" on="1"/>
        <pt x="271" y="820" on="0"/>
        <pt x="233" y="831" on="0"/>
        <pt x="204" y="845" on="1"/>
        <pt x="181" y="856" on="0"/>
        <pt x="134" y="868" on="0"/>
        <pt x="117" y="868" on="1"/>
        <pt x="100" y="868" on="0"/>
        <pt x="81" y="851" on="0"/>
        <pt x="73" y="828" on="1"/>
      </contour>
    </TTGlyph>
    <TTGlyph name="J" xMin="-168" yMin="-260" xMax="372" yMax="770">
      <contour>
        <pt x="130" y="616" on="1"/>
        <pt x="130" y="651" on="0"/>
        <pt x="123" y="694" on="0"/>
        <pt x="103" y="719" on="0"/>
        <pt x="66" y="728" on="0"/>
        <pt x="35" y="730" on="1"/>
        <pt x="35" y="770" on="1"/>
        <pt x="372" y="770" on="1"/>
        <pt x="372" y="730" on="1"/>
        <pt x="341" y="729" on="0"/>
        <pt x="303" y="719" on="0"/>
        <pt x="283" y="693" on="0"/>
        <pt x="277" y="647" on="0"/>
        <pt x="277" y="609" on="1"/>
        <pt x="277" y="-2" on="1"/>
        <pt x="277" y="-128" on="0"/>
        <pt x="149" y="-260" on="0"/>
        <pt x="22" y="-260" on="1"/>
        <pt x="-69" y="-260" on="0"/>
        <pt x="-168" y="-198" on="0"/>
        <pt x="-168" y="-150" on="1"/>
        <pt x="-168" y="-121" on="0"/>
        <pt x="-131" y="-90" on="0"/>
        <pt x="-104" y="-90" on="1"/>
        <pt x="-81" y="-90" on="0"/>
        <pt x="-54" y="-114" on="0"/>
        <pt x="-34" y="-147" on="1"/>
        <pt x="-14" y="-180" on="0"/>
        <pt x="18" y="-202" on="0"/>
        <pt x="41" y="-202" on="1"/>
        <pt x="84" y="-202" on="0"/>
        <pt x="130" y="-108" on="0"/>
        <pt x="130" y="-23" on="1"/>
      </contour>
    </TTGlyph>
    <TTGlyph name="Jcircumflex" xMin="-168" yMin="-260" xMax="385" yMax="960">
      <contour>
        <pt x="130" y="616" on="1"/>
        <pt x="130" y="651" on="0"/>
        <pt x="123" y="694" on="0"/>
        <pt x="103" y="719" on="0"/>
        <pt x="66" y="728" on="0"/>
        <pt x="35" y="730" on="1"/>
        <pt x="35" y="770" on="1"/>
        <pt x="372" y="770" on="1"/>
        <pt x="372" y="730" on="1"/>
        <pt x="341" y="729" on="0"/>
        <pt x="303" y="719" on="0"/>
        <pt x="283" y="693" on="0"/>
        <pt x="277" y="647" on="0"/>
        <pt x="277" y="609" on="1"/>
        <pt x="277" y="-2" on="1"/>
        <pt x="277" y="-128" on="0"/>
        <pt x="149" y="-260" on="0"/>
        <pt x="22" y="-260" on="1"/>
        <pt x="-69" y="-260" on="0"/>
        <pt x="-168" y="-198" on="0"/>
        <pt x="-168" y="-150" on="1"/>
        <pt x="-168" y="-121" on="0"/>
        <pt x="-131" y="-90" on="0"/>
        <pt x="-104" y="-90" on="1"/>
        <pt x="-81" y="-90" on="0"/>
        <pt x="-54" y="-114" on="0"/>
        <pt x="-34" y="-147" on="1"/>
        <pt x="-14" y="-180" on="0"/>
        <pt x="18" y="-202" on="0"/>
        <pt x="41" y="-202" on="1"/>
        <pt x="84" y="-202" on="0"/>
        <pt x="130" y="-108" on="0"/>
        <pt x="130" y="-23" on="1"/>
      </contour>
      <contour>
        <pt x="261" y="960" on="1"/>
        <pt x="385" y="830" on="1"/>
        <pt x="318" y="830" on="1"/>
        <pt x="203" y="879" on="1"/>
        <pt x="88" y="830" on="1"/>
        <pt x="21" y="830" on="1"/>
        <pt x="145" y="960" on="1"/>
      </contour>
    </TTGlyph>
    <TTGlyph name="K" xMin="35" yMin="0" xMax="843" yMax="770">
      <contour>
        <pt x="287" y="161" on="1"/>
        <pt x="287" y="123" on="0"/>
        <pt x="294" y="77" on="0"/>
        <pt x="314" y="51" on="0"/>
        <pt x="351" y="41" on="0"/>
        <pt x="382" y="40" on="1"/>
        <pt x="382" y="0" on="1"/>
        <pt x="35" y="0" on="1"/>
        <pt x="35" y="40" on="1"/>
        <pt x="68" y="41" on="0"/>
        <pt x="110" y="51" on="0"/>
        <pt x="132" y="75" on="0"/>
        <pt x="140" y="119" on="0"/>
        <pt x="140" y="154" on="1"/>
        <pt x="140" y="616" on="1"/>
        <pt x="140" y="650" on="0"/>
        <pt x="133" y="694" on="0"/>
        <pt x="113" y="718" on="0"/>
        <pt x="76" y="728" on="0"/>
        <pt x="46" y="730" on="1"/>
        <pt x="46" y="770" on="1"/>
        <pt x="391" y="770" on="1"/>
        <pt x="391" y="730" on="1"/>
        <pt x="357" y="729" on="0"/>
        <pt x="316" y="719" on="0"/>
        <pt x="294" y="693" on="0"/>
        <pt x="287" y="647" on="0"/>
        <pt x="287" y="609" on="1"/>
        <pt x="287" y="387" on="1"/>
        <pt x="546" y="665" on="1"/>
        <pt x="569" y="690" on="0"/>
        <pt x="569" y="707" on="1"/>
        <pt x="569" y="718" on="0"/>
        <pt x="540" y="730" on="0"/>
        <pt x="501" y="730" on="1"/>
        <pt x="501" y="770" on="1"/>
        <pt x="774" y="770" on="1"/>
        <pt x="774" y="731" on="1"/>
        <pt x="752" y="730" on="0"/>
        <pt x="719" y="724" on="0"/>
        <pt x="686" y="704" on="0"/>
        <pt x="645" y="667" on="0"/>
        <pt x="615" y="636" on="1"/>
        <pt x="437" y="450" on="1"/>
        <pt x="731" y="92" on="1"/>
        <pt x="752" y="66" on="0"/>
        <pt x="803" y="42" on="0"/>
        <pt x="843" y="40" on="1"/>
        <pt x="843" y="0" on="1"/>
        <pt x="473" y="0" on="1"/>
        <pt x="473" y="40" on="1"/>
        <pt x="514" y="41" on="0"/>
        <pt x="550" y="53" on="0"/>
        <pt x="550" y="67" on="1"/>
        <pt x="550" y="72" on="0"/>
        <pt x="547" y="81" on="0"/>
        <pt x="540" y="94" on="0"/>
        <pt x="526" y="113" on="0"/>
        <pt x="514" y="127" on="1"/>
        <pt x="337" y="345" on="1"/>
        <pt x="287" y="293" on="1"/>
      </contour>
    </TTGlyph>
    <TTGlyph name="Kcommaaccent" xMin="35" yMin="-250" xMax="843" yMax="770">
      <contour>
        <pt x="287" y="161" on="1"/>
        <pt x="287" y="123" on="0"/>
        <pt x="294" y="77" on="0"/>
        <pt x="314" y="51" on="0"/>
        <pt x="351" y="41" on="0"/>
        <pt x="382" y="40" on="1"/>
        <pt x="382" y="0" on="1"/>
        <pt x="35" y="0" on="1"/>
        <pt x="35" y="40" on="1"/>
        <pt x="68" y="41" on="0"/>
        <pt x="110" y="51" on="0"/>
        <pt x="132" y="75" on="0"/>
        <pt x="140" y="119" on="0"/>
        <pt x="140" y="154" on="1"/>
        <pt x="140" y="616" on="1"/>
        <pt x="140" y="650" on="0"/>
        <pt x="133" y="694" on="0"/>
        <pt x="113" y="718" on="0"/>
        <pt x="76" y="728" on="0"/>
        <pt x="46" y="730" on="1"/>
        <pt x="46" y="770" on="1"/>
        <pt x="391" y="770" on="1"/>
        <pt x="391" y="730" on="1"/>
        <pt x="357" y="729" on="0"/>
        <pt x="316" y="719" on="0"/>
        <pt x="294" y="693" on="0"/>
        <pt x="287" y="647" on="0"/>
        <pt x="287" y="609" on="1"/>
        <pt x="287" y="387" on="1"/>
        <pt x="546" y="665" on="1"/>
        <pt x="569" y="690" on="0"/>
        <pt x="569" y="707" on="1"/>
        <pt x="569" y="718" on="0"/>
        <pt x="540" y="730" on="0"/>
        <pt x="501" y="730" on="1"/>
        <pt x="501" y="770" on="1"/>
        <pt x="774" y="770" on="1"/>
        <pt x="774" y="731" on="1"/>
        <pt x="752" y="730" on="0"/>
        <pt x="719" y="724" on="0"/>
        <pt x="686" y="704" on="0"/>
        <pt x="645" y="667" on="0"/>
        <pt x="615" y="636" on="1"/>
        <pt x="437" y="450" on="1"/>
        <pt x="731" y="92" on="1"/>
        <pt x="752" y="66" on="0"/>
        <pt x="803" y="42" on="0"/>
        <pt x="843" y="40" on="1"/>
        <pt x="843" y="0" on="1"/>
        <pt x="473" y="0" on="1"/>
        <pt x="473" y="40" on="1"/>
        <pt x="514" y="41" on="0"/>
        <pt x="550" y="53" on="0"/>
        <pt x="550" y="67" on="1"/>
        <pt x="550" y="72" on="0"/>
        <pt x="547" y="81" on="0"/>
        <pt x="540" y="94" on="0"/>
        <pt x="526" y="113" on="0"/>
        <pt x="514" y="127" on="1"/>
        <pt x="337" y="345" on="1"/>
        <pt x="287" y="293" on="1"/>
      </contour>
      <contour>
        <pt x="378" y="-219" on="1"/>
        <pt x="436" y="-187" on="0"/>
        <pt x="436" y="-147" on="1"/>
        <pt x="426" y="-155" on="0"/>
        <pt x="409" y="-155" on="1"/>
        <pt x="390" y="-155" on="0"/>
        <pt x="363" y="-128" on="0"/>
        <pt x="363" y="-105" on="1"/>
        <pt x="363" y="-82" on="0"/>
        <pt x="403" y="-45" on="0"/>
        <pt x="435" y="-45" on="1"/>
        <pt x="467" y="-45" on="0"/>
        <pt x="501" y="-86" on="0"/>
        <pt x="501" y="-124" on="1"/>
        <pt x="501" y="-158" on="0"/>
        <pt x="458" y="-221" on="0"/>
        <pt x="406" y="-250" on="1"/>
      </contour>
    </TTGlyph>
    <TTGlyph name="L" xMin="35" yMin="0" xMax="740" yMax="770">
      <contour>
        <pt x="724" y="0" on="1"/>
        <pt x="35" y="0" on="1"/>
        <pt x="35" y="40" on="1"/>
        <pt x="68" y="41" on="0"/>
        <pt x="110" y="51" on="0"/>
        <pt x="132" y="75" on="0"/>
        <pt x="140" y="119" on="0"/>
        <pt x="140" y="154" on="1"/>
        <pt x="140" y="616" on="1"/>
        <pt x="140" y="651" on="0"/>
        <pt x="133" y="694" on="0"/>
        <pt x="113" y="719" on="0"/>
        <pt x="76" y="728" on="0"/>
        <pt x="46" y="730" on="1"/>
        <pt x="46" y="770" on="1"/>
        <pt x="391" y="770" on="1"/>
        <pt x="391" y="730" on="1"/>
        <pt x="357" y="729" on="0"/>
        <pt x="316" y="719" on="0"/>
        <pt x="294" y="693" on="0"/>
        <pt x="287" y="647" on="0"/>
        <pt x="287" y="609" on="1"/>
        <pt x="287" y="190" on="1"/>
        <pt x="287" y="148" on="0"/>
        <pt x="304" y="95" on="0"/>
        <pt x="346" y="66" on="0"/>
        <pt x="416" y="55" on="0"/>
        <pt x="468" y="55" on="1"/>
        <pt x="526" y="55" on="0"/>
        <pt x="604" y="69" on="0"/>
        <pt x="657" y="108" on="0"/>
        <pt x="689" y="174" on="0"/>
        <pt x="700" y="227" on="1"/>
        <pt x="740" y="227" on="1"/>
      </contour>
    </TTGlyph>
    <TTGlyph name="Lacute" xMin="35" yMin="0" xMax="740" yMax="960">
      <contour>
        <pt x="724" y="0" on="1"/>
        <pt x="35" y="0" on="1"/>
        <pt x="35" y="40" on="1"/>
        <pt x="68" y="41" on="0"/>
        <pt x="110" y="51" on="0"/>
        <pt x="132" y="75" on="0"/>
        <pt x="140" y="119" on="0"/>
        <pt x="140" y="154" on="1"/>
        <pt x="140" y="616" on="1"/>
        <pt x="140" y="651" on="0"/>
        <pt x="133" y="694" on="0"/>
        <pt x="113" y="719" on="0"/>
        <pt x="76" y="728" on="0"/>
        <pt x="46" y="730" on="1"/>
        <pt x="46" y="770" on="1"/>
        <pt x="391" y="770" on="1"/>
        <pt x="391" y="730" on="1"/>
        <pt x="357" y="729" on="0"/>
        <pt x="316" y="719" on="0"/>
        <pt x="294" y="693" on="0"/>
        <pt x="287" y="647" on="0"/>
        <pt x="287" y="609" on="1"/>
        <pt x="287" y="190" on="1"/>
        <pt x="287" y="148" on="0"/>
        <pt x="304" y="95" on="0"/>
        <pt x="346" y="66" on="0"/>
        <pt x="416" y="55" on="0"/>
        <pt x="468" y="55" on="1"/>
        <pt x="526" y="55" on="0"/>
        <pt x="604" y="69" on="0"/>
        <pt x="657" y="108" on="0"/>
        <pt x="689" y="174" on="0"/>
        <pt x="700" y="227" on="1"/>
        <pt x="740" y="227" on="1"/>
      </contour>
      <contour>
        <pt x="120" y="830" on="1"/>
        <pt x="246" y="927" on="1"/>
        <pt x="266" y="942" on="0"/>
        <pt x="314" y="960" on="0"/>
        <pt x="340" y="960" on="1"/>
        <pt x="368" y="960" on="0"/>
        <pt x="397" y="940" on="0"/>
        <pt x="397" y="923" on="1"/>
        <pt x="397" y="900" on="0"/>
        <pt x="361" y="871" on="0"/>
        <pt x="309" y="858" on="1"/>
        <pt x="193" y="830" on="1"/>
      </contour>
    </TTGlyph>
    <TTGlyph name="Lcaron" xMin="35" yMin="0" xMax="740" yMax="960">
      <contour>
        <pt x="724" y="0" on="1"/>
        <pt x="35" y="0" on="1"/>
        <pt x="35" y="40" on="1"/>
        <pt x="68" y="41" on="0"/>
        <pt x="110" y="51" on="0"/>
        <pt x="132" y="75" on="0"/>
        <pt x="140" y="119" on="0"/>
        <pt x="140" y="154" on="1"/>
        <pt x="140" y="616" on="1"/>
        <pt x="140" y="651" on="0"/>
        <pt x="133" y="694" on="0"/>
        <pt x="113" y="719" on="0"/>
        <pt x="76" y="728" on="0"/>
        <pt x="46" y="730" on="1"/>
        <pt x="46" y="770" on="1"/>
        <pt x="391" y="770" on="1"/>
        <pt x="391" y="730" on="1"/>
        <pt x="357" y="729" on="0"/>
        <pt x="316" y="719" on="0"/>
        <pt x="294" y="693" on="0"/>
        <pt x="287" y="647" on="0"/>
        <pt x="287" y="609" on="1"/>
        <pt x="287" y="190" on="1"/>
        <pt x="287" y="148" on="0"/>
        <pt x="304" y="95" on="0"/>
        <pt x="346" y="66" on="0"/>
        <pt x="416" y="55" on="0"/>
        <pt x="468" y="55" on="1"/>
        <pt x="526" y="55" on="0"/>
        <pt x="604" y="69" on="0"/>
        <pt x="657" y="108" on="0"/>
        <pt x="689" y="174" on="0"/>
        <pt x="700" y="227" on="1"/>
        <pt x="740" y="227" on="1"/>
      </contour>
      <contour>
        <pt x="168" y="830" on="1"/>
        <pt x="44" y="960" on="1"/>
        <pt x="111" y="960" on="1"/>
        <pt x="226" y="911" on="1"/>
        <pt x="341" y="960" on="1"/>
        <pt x="408" y="960" on="1"/>
        <pt x="284" y="830" on="1"/>
      </contour>
    </TTGlyph>
    <TTGlyph name="Lcommaaccent" xMin="35" yMin="-250" xMax="740" yMax="770">
      <contour>
        <pt x="724" y="0" on="1"/>
        <pt x="35" y="0" on="1"/>
        <pt x="35" y="40" on="1"/>
        <pt x="68" y="41" on="0"/>
        <pt x="110" y="51" on="0"/>
        <pt x="132" y="75" on="0"/>
        <pt x="140" y="119" on="0"/>
        <pt x="140" y="154" on="1"/>
        <pt x="140" y="616" on="1"/>
        <pt x="140" y="651" on="0"/>
        <pt x="133" y="694" on="0"/>
        <pt x="113" y="719" on="0"/>
        <pt x="76" y="728" on="0"/>
        <pt x="46" y="730" on="1"/>
        <pt x="46" y="770" on="1"/>
        <pt x="391" y="770" on="1"/>
        <pt x="391" y="730" on="1"/>
        <pt x="357" y="729" on="0"/>
        <pt x="316" y="719" on="0"/>
        <pt x="294" y="693" on="0"/>
        <pt x="287" y="647" on="0"/>
        <pt x="287" y="609" on="1"/>
        <pt x="287" y="190" on="1"/>
        <pt x="287" y="148" on="0"/>
        <pt x="304" y="95" on="0"/>
        <pt x="346" y="66" on="0"/>
        <pt x="416" y="55" on="0"/>
        <pt x="468" y="55" on="1"/>
        <pt x="526" y="55" on="0"/>
        <pt x="604" y="69" on="0"/>
        <pt x="657" y="108" on="0"/>
        <pt x="689" y="174" on="0"/>
        <pt x="700" y="227" on="1"/>
        <pt x="740" y="227" on="1"/>
      </contour>
      <contour>
        <pt x="350" y="-219" on="1"/>
        <pt x="408" y="-187" on="0"/>
        <pt x="408" y="-147" on="1"/>
        <pt x="398" y="-155" on="0"/>
        <pt x="381" y="-155" on="1"/>
        <pt x="362" y="-155" on="0"/>
        <pt x="335" y="-128" on="0"/>
        <pt x="335" y="-105" on="1"/>
        <pt x="335" y="-82" on="0"/>
        <pt x="375" y="-45" on="0"/>
        <pt x="407" y="-45" on="1"/>
        <pt x="439" y="-45" on="0"/>
        <pt x="473" y="-86" on="0"/>
        <pt x="473" y="-124" on="1"/>
        <pt x="473" y="-158" on="0"/>
        <pt x="430" y="-221" on="0"/>
        <pt x="378" y="-250" on="1"/>
      </contour>
    </TTGlyph>
    <TTGlyph name="Ldot" xMin="35" yMin="0" xMax="740" yMax="770">
      <contour>
        <pt x="724" y="0" on="1"/>
        <pt x="35" y="0" on="1"/>
        <pt x="35" y="40" on="1"/>
        <pt x="68" y="41" on="0"/>
        <pt x="110" y="51" on="0"/>
        <pt x="132" y="75" on="0"/>
        <pt x="140" y="119" on="0"/>
        <pt x="140" y="154" on="1"/>
        <pt x="140" y="616" on="1"/>
        <pt x="140" y="651" on="0"/>
        <pt x="133" y="694" on="0"/>
        <pt x="113" y="719" on="0"/>
        <pt x="76" y="728" on="0"/>
        <pt x="46" y="730" on="1"/>
        <pt x="46" y="770" on="1"/>
        <pt x="391" y="770" on="1"/>
        <pt x="391" y="730" on="1"/>
        <pt x="357" y="729" on="0"/>
        <pt x="316" y="719" on="0"/>
        <pt x="294" y="693" on="0"/>
        <pt x="287" y="647" on="0"/>
        <pt x="287" y="609" on="1"/>
        <pt x="287" y="190" on="1"/>
        <pt x="287" y="148" on="0"/>
        <pt x="304" y="95" on="0"/>
        <pt x="346" y="66" on="0"/>
        <pt x="416" y="55" on="0"/>
        <pt x="468" y="55" on="1"/>
        <pt x="526" y="55" on="0"/>
        <pt x="604" y="69" on="0"/>
        <pt x="657" y="108" on="0"/>
        <pt x="689" y="174" on="0"/>
        <pt x="700" y="227" on="1"/>
        <pt x="740" y="227" on="1"/>
      </contour>
      <contour>
        <pt x="415" y="401" on="1"/>
        <pt x="415" y="433" on="0"/>
        <pt x="458" y="478" on="0"/>
        <pt x="490" y="478" on="1"/>
        <pt x="523" y="478" on="0"/>
        <pt x="567" y="433" on="0"/>
        <pt x="567" y="401" on="1"/>
        <pt x="567" y="370" on="0"/>
        <pt x="523" y="327" on="0"/>
        <pt x="490" y="327" on="1"/>
        <pt x="458" y="327" on="0"/>
        <pt x="415" y="370" on="0"/>
      </contour>
    </TTGlyph>
    <TTGlyph name="Lslash" xMin="37" yMin="0" xMax="742" yMax="770">
      <contour>
        <pt x="726" y="0" on="1"/>
        <pt x="37" y="0" on="1"/>
        <pt x="37" y="40" on="1"/>
        <pt x="70" y="41" on="0"/>
        <pt x="112" y="51" on="0"/>
        <pt x="134" y="75" on="0"/>
        <pt x="142" y="119" on="0"/>
        <pt x="142" y="154" on="1"/>
        <pt x="142" y="305" on="1"/>
        <pt x="67" y="260" on="1"/>
        <pt x="67" y="334" on="1"/>
        <pt x="142" y="379" on="1"/>
        <pt x="142" y="616" on="1"/>
        <pt x="142" y="651" on="0"/>
        <pt x="135" y="694" on="0"/>
        <pt x="115" y="719" on="0"/>
        <pt x="78" y="728" on="0"/>
        <pt x="48" y="730" on="1"/>
        <pt x="48" y="770" on="1"/>
        <pt x="393" y="770" on="1"/>
        <pt x="393" y="730" on="1"/>
        <pt x="359" y="729" on="0"/>
        <pt x="318" y="719" on="0"/>
        <pt x="296" y="693" on="0"/>
        <pt x="289" y="647" on="0"/>
        <pt x="289" y="609" on="1"/>
        <pt x="289" y="466" on="1"/>
        <pt x="407" y="537" on="1"/>
        <pt x="407" y="463" on="1"/>
        <pt x="289" y="392" on="1"/>
        <pt x="289" y="190" on="1"/>
        <pt x="289" y="148" on="0"/>
        <pt x="306" y="95" on="0"/>
        <pt x="348" y="66" on="0"/>
        <pt x="418" y="55" on="0"/>
        <pt x="470" y="55" on="1"/>
        <pt x="528" y="55" on="0"/>
        <pt x="606" y="69" on="0"/>
        <pt x="659" y="108" on="0"/>
        <pt x="691" y="174" on="0"/>
        <pt x="702" y="227" on="1"/>
        <pt x="742" y="227" on="1"/>
      </contour>
    </TTGlyph>
    <TTGlyph name="M" xMin="30" yMin="-10" xMax="1115" yMax="770">
      <contour>
        <pt x="581" y="187" on="1"/>
        <pt x="812" y="770" on="1"/>
        <pt x="1104" y="770" on="1"/>
        <pt x="1104" y="730" on="1"/>
        <pt x="1071" y="730" on="0"/>
        <pt x="1030" y="717" on="0"/>
        <pt x="1008" y="683" on="0"/>
        <pt x="1001" y="624" on="0"/>
        <pt x="1001" y="579" on="1"/>
        <pt x="1001" y="191" on="1"/>
        <pt x="1001" y="141" on="0"/>
        <pt x="1009" y="83" on="0"/>
        <pt x="1033" y="51" on="0"/>
        <pt x="1078" y="41" on="0"/>
        <pt x="1115" y="40" on="1"/>
        <pt x="1115" y="0" on="1"/>
        <pt x="739" y="0" on="1"/>
        <pt x="739" y="40" on="1"/>
        <pt x="776" y="41" on="0"/>
        <pt x="821" y="52" on="0"/>
        <pt x="846" y="82" on="0"/>
        <pt x="854" y="137" on="0"/>
        <pt x="854" y="184" on="1"/>
        <pt x="854" y="652" on="1"/>
        <pt x="849" y="652" on="1"/>
        <pt x="580" y="-10" on="1"/>
        <pt x="506" y="-10" on="1"/>
        <pt x="228" y="652" on="1"/>
        <pt x="224" y="652" on="1"/>
        <pt x="224" y="191" on="1"/>
        <pt x="224" y="141" on="0"/>
        <pt x="232" y="83" on="0"/>
        <pt x="256" y="51" on="0"/>
        <pt x="301" y="41" on="0"/>
        <pt x="338" y="40" on="1"/>
        <pt x="338" y="0" on="1"/>
        <pt x="30" y="0" on="1"/>
        <pt x="30" y="40" on="1"/>
        <pt x="67" y="41" on="0"/>
        <pt x="113" y="52" on="0"/>
        <pt x="138" y="82" on="0"/>
        <pt x="146" y="137" on="0"/>
        <pt x="146" y="184" on="1"/>
        <pt x="146" y="586" on="1"/>
        <pt x="146" y="628" on="0"/>
        <pt x="138" y="684" on="0"/>
        <pt x="116" y="717" on="0"/>
        <pt x="75" y="730" on="0"/>
        <pt x="41" y="730" on="1"/>
        <pt x="41" y="770" on="1"/>
        <pt x="344" y="770" on="1"/>
        <pt x="577" y="187" on="1"/>
      </contour>
    </TTGlyph>
    <TTGlyph name="N" xMin="30" yMin="-10" xMax="919" yMax="770">
      <contour>
        <pt x="670" y="-10" on="1"/>
        <pt x="227" y="621" on="1"/>
        <pt x="223" y="621" on="1"/>
        <pt x="223" y="191" on="1"/>
        <pt x="223" y="141" on="0"/>
        <pt x="230" y="83" on="0"/>
        <pt x="253" y="51" on="0"/>
        <pt x="294" y="41" on="0"/>
        <pt x="327" y="40" on="1"/>
        <pt x="327" y="0" on="1"/>
        <pt x="30" y="0" on="1"/>
        <pt x="30" y="40" on="1"/>
        <pt x="67" y="41" on="0"/>
        <pt x="112" y="52" on="0"/>
        <pt x="137" y="82" on="0"/>
        <pt x="145" y="137" on="0"/>
        <pt x="145" y="184" on="1"/>
        <pt x="145" y="586" on="1"/>
        <pt x="145" y="628" on="0"/>
        <pt x="137" y="683" on="0"/>
        <pt x="115" y="715" on="0"/>
        <pt x="74" y="728" on="0"/>
        <pt x="40" y="730" on="1"/>
        <pt x="40" y="770" on="1"/>
        <pt x="319" y="770" on="1"/>
        <pt x="722" y="192" on="1"/>
        <pt x="726" y="192" on="1"/>
        <pt x="726" y="579" on="1"/>
        <pt x="726" y="628" on="0"/>
        <pt x="719" y="687" on="0"/>
        <pt x="696" y="719" on="0"/>
        <pt x="655" y="729" on="0"/>
        <pt x="622" y="730" on="1"/>
        <pt x="622" y="770" on="1"/>
        <pt x="919" y="770" on="1"/>
        <pt x="919" y="730" on="1"/>
        <pt x="882" y="729" on="0"/>
        <pt x="837" y="718" on="0"/>
        <pt x="812" y="688" on="0"/>
        <pt x="804" y="632" on="0"/>
        <pt x="804" y="586" on="1"/>
        <pt x="804" y="-10" on="1"/>
      </contour>
    </TTGlyph>
    <TTGlyph name="Nacute" xMin="30" yMin="-10" xMax="919" yMax="960">
      <contour>
        <pt x="670" y="-10" on="1"/>
        <pt x="227" y="621" on="1"/>
        <pt x="223" y="621" on="1"/>
        <pt x="223" y="191" on="1"/>
        <pt x="223" y="141" on="0"/>
        <pt x="230" y="83" on="0"/>
        <pt x="253" y="51" on="0"/>
        <pt x="294" y="41" on="0"/>
        <pt x="327" y="40" on="1"/>
        <pt x="327" y="0" on="1"/>
        <pt x="30" y="0" on="1"/>
        <pt x="30" y="40" on="1"/>
        <pt x="67" y="41" on="0"/>
        <pt x="112" y="52" on="0"/>
        <pt x="137" y="82" on="0"/>
        <pt x="145" y="137" on="0"/>
        <pt x="145" y="184" on="1"/>
        <pt x="145" y="586" on="1"/>
        <pt x="145" y="628" on="0"/>
        <pt x="137" y="683" on="0"/>
        <pt x="115" y="715" on="0"/>
        <pt x="74" y="728" on="0"/>
        <pt x="40" y="730" on="1"/>
        <pt x="40" y="770" on="1"/>
        <pt x="319" y="770" on="1"/>
        <pt x="722" y="192" on="1"/>
        <pt x="726" y="192" on="1"/>
        <pt x="726" y="579" on="1"/>
        <pt x="726" y="628" on="0"/>
        <pt x="719" y="687" on="0"/>
        <pt x="696" y="719" on="0"/>
        <pt x="655" y="729" on="0"/>
        <pt x="622" y="730" on="1"/>
        <pt x="622" y="770" on="1"/>
        <pt x="919" y="770" on="1"/>
        <pt x="919" y="730" on="1"/>
        <pt x="882" y="729" on="0"/>
        <pt x="837" y="718" on="0"/>
        <pt x="812" y="688" on="0"/>
        <pt x="804" y="632" on="0"/>
        <pt x="804" y="586" on="1"/>
        <pt x="804" y="-10" on="1"/>
      </contour>
      <contour>
        <pt x="371" y="830" on="1"/>
        <pt x="497" y="927" on="1"/>
        <pt x="517" y="942" on="0"/>
        <pt x="565" y="960" on="0"/>
        <pt x="591" y="960" on="1"/>
        <pt x="619" y="960" on="0"/>
        <pt x="648" y="940" on="0"/>
        <pt x="648" y="923" on="1"/>
        <pt x="648" y="900" on="0"/>
        <pt x="612" y="871" on="0"/>
        <pt x="560" y="858" on="1"/>
        <pt x="444" y="830" on="1"/>
      </contour>
    </TTGlyph>
    <TTGlyph name="Ncaron" xMin="30" yMin="-10" xMax="919" yMax="960">
      <contour>
        <pt x="670" y="-10" on="1"/>
        <pt x="227" y="621" on="1"/>
        <pt x="223" y="621" on="1"/>
        <pt x="223" y="191" on="1"/>
        <pt x="223" y="141" on="0"/>
        <pt x="230" y="83" on="0"/>
        <pt x="253" y="51" on="0"/>
        <pt x="294" y="41" on="0"/>
        <pt x="327" y="40" on="1"/>
        <pt x="327" y="0" on="1"/>
        <pt x="30" y="0" on="1"/>
        <pt x="30" y="40" on="1"/>
        <pt x="67" y="41" on="0"/>
        <pt x="112" y="52" on="0"/>
        <pt x="137" y="82" on="0"/>
        <pt x="145" y="137" on="0"/>
        <pt x="145" y="184" on="1"/>
        <pt x="145" y="586" on="1"/>
        <pt x="145" y="628" on="0"/>
        <pt x="137" y="683" on="0"/>
        <pt x="115" y="715" on="0"/>
        <pt x="74" y="728" on="0"/>
        <pt x="40" y="730" on="1"/>
        <pt x="40" y="770" on="1"/>
        <pt x="319" y="770" on="1"/>
        <pt x="722" y="192" on="1"/>
        <pt x="726" y="192" on="1"/>
        <pt x="726" y="579" on="1"/>
        <pt x="726" y="628" on="0"/>
        <pt x="719" y="687" on="0"/>
        <pt x="696" y="719" on="0"/>
        <pt x="655" y="729" on="0"/>
        <pt x="622" y="730" on="1"/>
        <pt x="622" y="770" on="1"/>
        <pt x="919" y="770" on="1"/>
        <pt x="919" y="730" on="1"/>
        <pt x="882" y="729" on="0"/>
        <pt x="837" y="718" on="0"/>
        <pt x="812" y="688" on="0"/>
        <pt x="804" y="632" on="0"/>
        <pt x="804" y="586" on="1"/>
        <pt x="804" y="-10" on="1"/>
      </contour>
      <contour>
        <pt x="412" y="830" on="1"/>
        <pt x="288" y="960" on="1"/>
        <pt x="355" y="960" on="1"/>
        <pt x="470" y="911" on="1"/>
        <pt x="585" y="960" on="1"/>
        <pt x="652" y="960" on="1"/>
        <pt x="528" y="830" on="1"/>
      </contour>
    </TTGlyph>
    <TTGlyph name="Ncommaaccent" xMin="30" yMin="-250" xMax="919" yMax="770">
      <contour>
        <pt x="670" y="-10" on="1"/>
        <pt x="227" y="621" on="1"/>
        <pt x="223" y="621" on="1"/>
        <pt x="223" y="191" on="1"/>
        <pt x="223" y="141" on="0"/>
        <pt x="230" y="83" on="0"/>
        <pt x="253" y="51" on="0"/>
        <pt x="294" y="41" on="0"/>
        <pt x="327" y="40" on="1"/>
        <pt x="327" y="0" on="1"/>
        <pt x="30" y="0" on="1"/>
        <pt x="30" y="40" on="1"/>
        <pt x="67" y="41" on="0"/>
        <pt x="112" y="52" on="0"/>
        <pt x="137" y="82" on="0"/>
        <pt x="145" y="137" on="0"/>
        <pt x="145" y="184" on="1"/>
        <pt x="145" y="586" on="1"/>
        <pt x="145" y="628" on="0"/>
        <pt x="137" y="683" on="0"/>
        <pt x="115" y="715" on="0"/>
        <pt x="74" y="728" on="0"/>
        <pt x="40" y="730" on="1"/>
        <pt x="40" y="770" on="1"/>
        <pt x="319" y="770" on="1"/>
        <pt x="722" y="192" on="1"/>
        <pt x="726" y="192" on="1"/>
        <pt x="726" y="579" on="1"/>
        <pt x="726" y="628" on="0"/>
        <pt x="719" y="687" on="0"/>
        <pt x="696" y="719" on="0"/>
        <pt x="655" y="729" on="0"/>
        <pt x="622" y="730" on="1"/>
        <pt x="622" y="770" on="1"/>
        <pt x="919" y="770" on="1"/>
        <pt x="919" y="730" on="1"/>
        <pt x="882" y="729" on="0"/>
        <pt x="837" y="718" on="0"/>
        <pt x="812" y="688" on="0"/>
        <pt x="804" y="632" on="0"/>
        <pt x="804" y="586" on="1"/>
        <pt x="804" y="-10" on="1"/>
      </contour>
      <contour>
        <pt x="432" y="-219" on="1"/>
        <pt x="490" y="-187" on="0"/>
        <pt x="490" y="-147" on="1"/>
        <pt x="480" y="-155" on="0"/>
        <pt x="463" y="-155" on="1"/>
        <pt x="444" y="-155" on="0"/>
        <pt x="417" y="-128" on="0"/>
        <pt x="417" y="-105" on="1"/>
        <pt x="417" y="-82" on="0"/>
        <pt x="457" y="-45" on="0"/>
        <pt x="489" y="-45" on="1"/>
        <pt x="521" y="-45" on="0"/>
        <pt x="555" y="-86" on="0"/>
        <pt x="555" y="-124" on="1"/>
        <pt x="555" y="-158" on="0"/>
        <pt x="512" y="-221" on="0"/>
        <pt x="460" y="-250" on="1"/>
      </contour>
    </TTGlyph>
    <TTGlyph name="Ndotaccent" xMin="30" yMin="-10" xMax="919" yMax="959">
      <contour>
        <pt x="670" y="-10" on="1"/>
        <pt x="227" y="621" on="1"/>
        <pt x="223" y="621" on="1"/>
        <pt x="223" y="191" on="1"/>
        <pt x="223" y="141" on="0"/>
        <pt x="230" y="83" on="0"/>
        <pt x="253" y="51" on="0"/>
        <pt x="294" y="41" on="0"/>
        <pt x="327" y="40" on="1"/>
        <pt x="327" y="0" on="1"/>
        <pt x="30" y="0" on="1"/>
        <pt x="30" y="40" on="1"/>
        <pt x="67" y="41" on="0"/>
        <pt x="112" y="52" on="0"/>
        <pt x="137" y="82" on="0"/>
        <pt x="145" y="137" on="0"/>
        <pt x="145" y="184" on="1"/>
        <pt x="145" y="586" on="1"/>
        <pt x="145" y="628" on="0"/>
        <pt x="137" y="683" on="0"/>
        <pt x="115" y="715" on="0"/>
        <pt x="74" y="728" on="0"/>
        <pt x="40" y="730" on="1"/>
        <pt x="40" y="770" on="1"/>
        <pt x="319" y="770" on="1"/>
        <pt x="722" y="192" on="1"/>
        <pt x="726" y="192" on="1"/>
        <pt x="726" y="579" on="1"/>
        <pt x="726" y="628" on="0"/>
        <pt x="719" y="687" on="0"/>
        <pt x="696" y="719" on="0"/>
        <pt x="655" y="729" on="0"/>
        <pt x="622" y="730" on="1"/>
        <pt x="622" y="770" on="1"/>
        <pt x="919" y="770" on="1"/>
        <pt x="919" y="730" on="1"/>
        <pt x="882" y="729" on="0"/>
        <pt x="837" y="718" on="0"/>
        <pt x="812" y="688" on="0"/>
        <pt x="804" y="632" on="0"/>
        <pt x="804" y="586" on="1"/>
        <pt x="804" y="-10" on="1"/>
      </contour>
      <contour>
        <pt x="422" y="893" on="1"/>
        <pt x="422" y="921" on="0"/>
        <pt x="462" y="959" on="0"/>
        <pt x="488" y="959" on="1"/>
        <pt x="517" y="959" on="0"/>
        <pt x="558" y="921" on="0"/>
        <pt x="558" y="893" on="1"/>
        <pt x="558" y="867" on="0"/>
        <pt x="517" y="830" on="0"/>
        <pt x="488" y="830" on="1"/>
        <pt x="462" y="830" on="0"/>
        <pt x="422" y="867" on="0"/>
      </contour>
    </TTGlyph>
    <TTGlyph name="Ntilde" xMin="30" yMin="-10" xMax="919" yMax="962">
      <contour>
        <pt x="670" y="-10" on="1"/>
        <pt x="227" y="621" on="1"/>
        <pt x="223" y="621" on="1"/>
        <pt x="223" y="191" on="1"/>
        <pt x="223" y="141" on="0"/>
        <pt x="230" y="83" on="0"/>
        <pt x="253" y="51" on="0"/>
        <pt x="294" y="41" on="0"/>
        <pt x="327" y="40" on="1"/>
        <pt x="327" y="0" on="1"/>
        <pt x="30" y="0" on="1"/>
        <pt x="30" y="40" on="1"/>
        <pt x="67" y="41" on="0"/>
        <pt x="112" y="52" on="0"/>
        <pt x="137" y="82" on="0"/>
        <pt x="145" y="137" on="0"/>
        <pt x="145" y="184" on="1"/>
        <pt x="145" y="586" on="1"/>
        <pt x="145" y="628" on="0"/>
        <pt x="137" y="683" on="0"/>
        <pt x="115" y="715" on="0"/>
        <pt x="74" y="728" on="0"/>
        <pt x="40" y="730" on="1"/>
        <pt x="40" y="770" on="1"/>
        <pt x="319" y="770" on="1"/>
        <pt x="722" y="192" on="1"/>
        <pt x="726" y="192" on="1"/>
        <pt x="726" y="579" on="1"/>
        <pt x="726" y="628" on="0"/>
        <pt x="719" y="687" on="0"/>
        <pt x="696" y="719" on="0"/>
        <pt x="655" y="729" on="0"/>
        <pt x="622" y="730" on="1"/>
        <pt x="622" y="770" on="1"/>
        <pt x="919" y="770" on="1"/>
        <pt x="919" y="730" on="1"/>
        <pt x="882" y="729" on="0"/>
        <pt x="837" y="718" on="0"/>
        <pt x="812" y="688" on="0"/>
        <pt x="804" y="632" on="0"/>
        <pt x="804" y="586" on="1"/>
        <pt x="804" y="-10" on="1"/>
      </contour>
      <contour>
        <pt x="307" y="828" on="1"/>
        <pt x="317" y="887" on="0"/>
        <pt x="383" y="962" on="0"/>
        <pt x="426" y="962" on="1"/>
        <pt x="433" y="962" on="0"/>
        <pt x="448" y="960" on="0"/>
        <pt x="468" y="954" on="0"/>
        <pt x="494" y="945" on="0"/>
        <pt x="513" y="938" on="1"/>
        <pt x="544" y="926" on="0"/>
        <pt x="578" y="916" on="0"/>
        <pt x="592" y="916" on="1"/>
        <pt x="611" y="916" on="0"/>
        <pt x="633" y="935" on="0"/>
        <pt x="641" y="958" on="1"/>
        <pt x="686" y="958" on="1"/>
        <pt x="682" y="932" on="0"/>
        <pt x="658" y="876" on="0"/>
        <pt x="642" y="856" on="1"/>
        <pt x="612" y="820" on="0"/>
        <pt x="569" y="820" on="1"/>
        <pt x="551" y="820" on="0"/>
        <pt x="513" y="831" on="0"/>
        <pt x="484" y="845" on="1"/>
        <pt x="461" y="856" on="0"/>
        <pt x="414" y="868" on="0"/>
        <pt x="397" y="868" on="1"/>
        <pt x="380" y="868" on="0"/>
        <pt x="361" y="851" on="0"/>
        <pt x="353" y="828" on="1"/>
      </contour>
    </TTGlyph>
    <TTGlyph name="O" xMin="45" yMin="-10" xMax="899" yMax="780">
      <contour>
        <pt x="472" y="780" on="1"/>
        <pt x="562" y="780" on="0"/>
        <pt x="718" y="718" on="0"/>
        <pt x="833" y="610" on="0"/>
        <pt x="899" y="464" on="0"/>
        <pt x="899" y="379" on="1"/>
        <pt x="899" y="298" on="0"/>
        <pt x="832" y="156" on="0"/>
        <pt x="717" y="51" on="0"/>
        <pt x="561" y="-10" on="0"/>
        <pt x="472" y="-10" on="1"/>
        <pt x="383" y="-10" on="0"/>
        <pt x="227" y="51" on="0"/>
        <pt x="111" y="156" on="0"/>
        <pt x="45" y="298" on="0"/>
        <pt x="45" y="379" on="1"/>
        <pt x="45" y="464" on="0"/>
        <pt x="111" y="610" on="0"/>
        <pt x="226" y="718" on="0"/>
        <pt x="382" y="780" on="0"/>
      </contour>
      <contour>
        <pt x="472" y="55" on="1"/>
        <pt x="530" y="55" on="0"/>
        <pt x="624" y="100" on="0"/>
        <pt x="690" y="183" on="0"/>
        <pt x="725" y="302" on="0"/>
        <pt x="725" y="376" on="1"/>
        <pt x="725" y="454" on="0"/>
        <pt x="690" y="579" on="0"/>
        <pt x="624" y="668" on="0"/>
        <pt x="530" y="715" on="0"/>
        <pt x="472" y="715" on="1"/>
        <pt x="413" y="715" on="0"/>
        <pt x="320" y="668" on="0"/>
        <pt x="254" y="579" on="0"/>
        <pt x="219" y="454" on="0"/>
        <pt x="219" y="376" on="1"/>
        <pt x="219" y="302" on="0"/>
        <pt x="254" y="183" on="0"/>
        <pt x="320" y="100" on="0"/>
        <pt x="413" y="55" on="0"/>
      </contour>
    </TTGlyph>
    <TTGlyph name="OE" xMin="45" yMin="0" xMax="1151" yMax="770">
      <contour>
        <pt x="1096" y="770" on="1"/>
        <pt x="1105" y="574" on="1"/>
        <pt x="1063" y="574" on="1"/>
        <pt x="1057" y="614" on="0"/>
        <pt x="1030" y="668" on="0"/>
        <pt x="982" y="702" on="0"/>
        <pt x="909" y="717" on="0"/>
        <pt x="855" y="717" on="1"/>
        <pt x="722" y="717" on="1"/>
        <pt x="704" y="717" on="0"/>
        <pt x="704" y="700" on="1"/>
        <pt x="704" y="423" on="1"/>
        <pt x="762" y="423" on="0"/>
        <pt x="837" y="433" on="0"/>
        <pt x="882" y="461" on="0"/>
        <pt x="904" y="509" on="0"/>
        <pt x="908" y="548" on="1"/>
        <pt x="949" y="548" on="1"/>
        <pt x="949" y="255" on="1"/>
        <pt x="908" y="255" on="1"/>
        <pt x="902" y="293" on="0"/>
        <pt x="880" y="342" on="0"/>
        <pt x="836" y="371" on="0"/>
        <pt x="762" y="383" on="0"/>
        <pt x="704" y="383" on="1"/>
        <pt x="704" y="169" on="1"/>
        <pt x="704" y="136" on="0"/>
        <pt x="721" y="93" on="0"/>
        <pt x="762" y="66" on="0"/>
        <pt x="828" y="55" on="0"/>
        <pt x="878" y="55" on="1"/>
        <pt x="938" y="55" on="0"/>
        <pt x="1018" y="74" on="0"/>
        <pt x="1070" y="115" on="0"/>
        <pt x="1100" y="181" on="0"/>
        <pt x="1111" y="229" on="1"/>
        <pt x="1151" y="229" on="1"/>
        <pt x="1130" y="0" on="1"/>
        <pt x="478" y="0" on="1"/>
        <pt x="387" y="0" on="0"/>
        <pt x="229" y="59" on="0"/>
        <pt x="112" y="162" on="0"/>
        <pt x="45" y="300" on="0"/>
        <pt x="45" y="379" on="1"/>
        <pt x="45" y="461" on="0"/>
        <pt x="112" y="604" on="0"/>
        <pt x="230" y="710" on="0"/>
        <pt x="390" y="770" on="0"/>
        <pt x="482" y="770" on="1"/>
      </contour>
      <contour>
        <pt x="482" y="705" on="1"/>
        <pt x="420" y="705" on="0"/>
        <pt x="323" y="660" on="0"/>
        <pt x="255" y="575" on="0"/>
        <pt x="219" y="453" on="0"/>
        <pt x="219" y="376" on="1"/>
        <pt x="219" y="304" on="0"/>
        <pt x="255" y="189" on="0"/>
        <pt x="323" y="108" on="0"/>
        <pt x="420" y="65" on="0"/>
        <pt x="482" y="65" on="1"/>
        <pt x="524" y="65" on="0"/>
        <pt x="557" y="103" on="0"/>
        <pt x="557" y="152" on="1"/>
        <pt x="557" y="618" on="1"/>
        <pt x="557" y="668" on="0"/>
        <pt x="523" y="705" on="0"/>
      </contour>
    </TTGlyph>
    <TTGlyph name="Oacute" xMin="45" yMin="-10" xMax="899" yMax="960">
      <contour>
        <pt x="472" y="780" on="1"/>
        <pt x="562" y="780" on="0"/>
        <pt x="718" y="718" on="0"/>
        <pt x="833" y="610" on="0"/>
        <pt x="899" y="464" on="0"/>
        <pt x="899" y="379" on="1"/>
        <pt x="899" y="298" on="0"/>
        <pt x="832" y="156" on="0"/>
        <pt x="717" y="51" on="0"/>
        <pt x="561" y="-10" on="0"/>
        <pt x="472" y="-10" on="1"/>
        <pt x="383" y="-10" on="0"/>
        <pt x="227" y="51" on="0"/>
        <pt x="111" y="156" on="0"/>
        <pt x="45" y="298" on="0"/>
        <pt x="45" y="379" on="1"/>
        <pt x="45" y="464" on="0"/>
        <pt x="111" y="610" on="0"/>
        <pt x="226" y="718" on="0"/>
        <pt x="382" y="780" on="0"/>
      </contour>
      <contour>
        <pt x="472" y="55" on="1"/>
        <pt x="530" y="55" on="0"/>
        <pt x="624" y="100" on="0"/>
        <pt x="690" y="183" on="0"/>
        <pt x="725" y="302" on="0"/>
        <pt x="725" y="376" on="1"/>
        <pt x="725" y="454" on="0"/>
        <pt x="690" y="579" on="0"/>
        <pt x="624" y="668" on="0"/>
        <pt x="530" y="715" on="0"/>
        <pt x="472" y="715" on="1"/>
        <pt x="413" y="715" on="0"/>
        <pt x="320" y="668" on="0"/>
        <pt x="254" y="579" on="0"/>
        <pt x="219" y="454" on="0"/>
        <pt x="219" y="376" on="1"/>
        <pt x="219" y="302" on="0"/>
        <pt x="254" y="183" on="0"/>
        <pt x="320" y="100" on="0"/>
        <pt x="413" y="55" on="0"/>
      </contour>
      <contour>
        <pt x="346" y="830" on="1"/>
        <pt x="472" y="927" on="1"/>
        <pt x="492" y="942" on="0"/>
        <pt x="540" y="960" on="0"/>
        <pt x="566" y="960" on="1"/>
        <pt x="594" y="960" on="0"/>
        <pt x="623" y="940" on="0"/>
        <pt x="623" y="923" on="1"/>
        <pt x="623" y="900" on="0"/>
        <pt x="587" y="871" on="0"/>
        <pt x="535" y="858" on="1"/>
        <pt x="419" y="830" on="1"/>
      </contour>
    </TTGlyph>
    <TTGlyph name="Obreve" xMin="45" yMin="-10" xMax="899" yMax="960">
      <contour>
        <pt x="472" y="780" on="1"/>
        <pt x="562" y="780" on="0"/>
        <pt x="718" y="718" on="0"/>
        <pt x="833" y="610" on="0"/>
        <pt x="899" y="464" on="0"/>
        <pt x="899" y="379" on="1"/>
        <pt x="899" y="298" on="0"/>
        <pt x="832" y="156" on="0"/>
        <pt x="717" y="51" on="0"/>
        <pt x="561" y="-10" on="0"/>
        <pt x="472" y="-10" on="1"/>
        <pt x="383" y="-10" on="0"/>
        <pt x="227" y="51" on="0"/>
        <pt x="111" y="156" on="0"/>
        <pt x="45" y="298" on="0"/>
        <pt x="45" y="379" on="1"/>
        <pt x="45" y="464" on="0"/>
        <pt x="111" y="610" on="0"/>
        <pt x="226" y="718" on="0"/>
        <pt x="382" y="780" on="0"/>
      </contour>
      <contour>
        <pt x="472" y="55" on="1"/>
        <pt x="530" y="55" on="0"/>
        <pt x="624" y="100" on="0"/>
        <pt x="690" y="183" on="0"/>
        <pt x="725" y="302" on="0"/>
        <pt x="725" y="376" on="1"/>
        <pt x="725" y="454" on="0"/>
        <pt x="690" y="579" on="0"/>
        <pt x="624" y="668" on="0"/>
        <pt x="530" y="715" on="0"/>
        <pt x="472" y="715" on="1"/>
        <pt x="413" y="715" on="0"/>
        <pt x="320" y="668" on="0"/>
        <pt x="254" y="579" on="0"/>
        <pt x="219" y="454" on="0"/>
        <pt x="219" y="376" on="1"/>
        <pt x="219" y="302" on="0"/>
        <pt x="254" y="183" on="0"/>
        <pt x="320" y="100" on="0"/>
        <pt x="413" y="55" on="0"/>
      </contour>
      <contour>
        <pt x="624" y="960" on="1"/>
        <pt x="622" y="931" on="0"/>
        <pt x="598" y="884" on="0"/>
        <pt x="558" y="849" on="0"/>
        <pt x="505" y="830" on="0"/>
        <pt x="474" y="830" on="1"/>
        <pt x="442" y="830" on="0"/>
        <pt x="389" y="850" on="0"/>
        <pt x="349" y="884" on="0"/>
        <pt x="325" y="932" on="0"/>
        <pt x="324" y="960" on="1"/>
        <pt x="367" y="960" on="1"/>
        <pt x="376" y="941" on="0"/>
        <pt x="434" y="919" on="0"/>
        <pt x="473" y="919" on="1"/>
        <pt x="512" y="919" on="0"/>
        <pt x="571" y="941" on="0"/>
        <pt x="580" y="960" on="1"/>
      </contour>
    </TTGlyph>
    <TTGlyph name="Ocircumflex" xMin="45" yMin="-10" xMax="899" yMax="960">
      <contour>
        <pt x="472" y="780" on="1"/>
        <pt x="562" y="780" on="0"/>
        <pt x="718" y="718" on="0"/>
        <pt x="833" y="610" on="0"/>
        <pt x="899" y="464" on="0"/>
        <pt x="899" y="379" on="1"/>
        <pt x="899" y="298" on="0"/>
        <pt x="832" y="156" on="0"/>
        <pt x="717" y="51" on="0"/>
        <pt x="561" y="-10" on="0"/>
        <pt x="472" y="-10" on="1"/>
        <pt x="383" y="-10" on="0"/>
        <pt x="227" y="51" on="0"/>
        <pt x="111" y="156" on="0"/>
        <pt x="45" y="298" on="0"/>
        <pt x="45" y="379" on="1"/>
        <pt x="45" y="464" on="0"/>
        <pt x="111" y="610" on="0"/>
        <pt x="226" y="718" on="0"/>
        <pt x="382" y="780" on="0"/>
      </contour>
      <contour>
        <pt x="472" y="55" on="1"/>
        <pt x="530" y="55" on="0"/>
        <pt x="624" y="100" on="0"/>
        <pt x="690" y="183" on="0"/>
        <pt x="725" y="302" on="0"/>
        <pt x="725" y="376" on="1"/>
        <pt x="725" y="454" on="0"/>
        <pt x="690" y="579" on="0"/>
        <pt x="624" y="668" on="0"/>
        <pt x="530" y="715" on="0"/>
        <pt x="472" y="715" on="1"/>
        <pt x="413" y="715" on="0"/>
        <pt x="320" y="668" on="0"/>
        <pt x="254" y="579" on="0"/>
        <pt x="219" y="454" on="0"/>
        <pt x="219" y="376" on="1"/>
        <pt x="219" y="302" on="0"/>
        <pt x="254" y="183" on="0"/>
        <pt x="320" y="100" on="0"/>
        <pt x="413" y="55" on="0"/>
      </contour>
      <contour>
        <pt x="529" y="960" on="1"/>
        <pt x="653" y="830" on="1"/>
        <pt x="586" y="830" on="1"/>
        <pt x="471" y="879" on="1"/>
        <pt x="356" y="830" on="1"/>
        <pt x="289" y="830" on="1"/>
        <pt x="413" y="960" on="1"/>
      </contour>
    </TTGlyph>
    <TTGlyph name="Odieresis" xMin="45" yMin="-10" xMax="899" yMax="960">
      <contour>
        <pt x="472" y="780" on="1"/>
        <pt x="562" y="780" on="0"/>
        <pt x="718" y="718" on="0"/>
        <pt x="833" y="610" on="0"/>
        <pt x="899" y="464" on="0"/>
        <pt x="899" y="379" on="1"/>
        <pt x="899" y="298" on="0"/>
        <pt x="832" y="156" on="0"/>
        <pt x="717" y="51" on="0"/>
        <pt x="561" y="-10" on="0"/>
        <pt x="472" y="-10" on="1"/>
        <pt x="383" y="-10" on="0"/>
        <pt x="227" y="51" on="0"/>
        <pt x="111" y="156" on="0"/>
        <pt x="45" y="298" on="0"/>
        <pt x="45" y="379" on="1"/>
        <pt x="45" y="464" on="0"/>
        <pt x="111" y="610" on="0"/>
        <pt x="226" y="718" on="0"/>
        <pt x="382" y="780" on="0"/>
      </contour>
      <contour>
        <pt x="472" y="55" on="1"/>
        <pt x="530" y="55" on="0"/>
        <pt x="624" y="100" on="0"/>
        <pt x="690" y="183" on="0"/>
        <pt x="725" y="302" on="0"/>
        <pt x="725" y="376" on="1"/>
        <pt x="725" y="454" on="0"/>
        <pt x="690" y="579" on="0"/>
        <pt x="624" y="668" on="0"/>
        <pt x="530" y="715" on="0"/>
        <pt x="472" y="715" on="1"/>
        <pt x="413" y="715" on="0"/>
        <pt x="320" y="668" on="0"/>
        <pt x="254" y="579" on="0"/>
        <pt x="219" y="454" on="0"/>
        <pt x="219" y="376" on="1"/>
        <pt x="219" y="302" on="0"/>
        <pt x="254" y="183" on="0"/>
        <pt x="320" y="100" on="0"/>
        <pt x="413" y="55" on="0"/>
      </contour>
      <contour>
        <pt x="297" y="903" on="1"/>
        <pt x="297" y="928" on="0"/>
        <pt x="331" y="960" on="0"/>
        <pt x="357" y="960" on="1"/>
        <pt x="384" y="960" on="0"/>
        <pt x="419" y="928" on="0"/>
        <pt x="419" y="903" on="1"/>
        <pt x="419" y="877" on="0"/>
        <pt x="384" y="844" on="0"/>
        <pt x="357" y="844" on="1"/>
        <pt x="331" y="844" on="0"/>
        <pt x="297" y="877" on="0"/>
      </contour>
      <contour>
        <pt x="514" y="903" on="1"/>
        <pt x="514" y="928" on="0"/>
        <pt x="549" y="960" on="0"/>
        <pt x="576" y="960" on="1"/>
        <pt x="601" y="960" on="0"/>
        <pt x="636" y="928" on="0"/>
        <pt x="636" y="903" on="1"/>
        <pt x="636" y="877" on="0"/>
        <pt x="601" y="844" on="0"/>
        <pt x="576" y="844" on="1"/>
        <pt x="549" y="844" on="0"/>
        <pt x="514" y="877" on="0"/>
      </contour>
    </TTGlyph>
    <TTGlyph name="Odotbelow" xMin="45" yMin="-242" xMax="899" yMax="780">
      <contour>
        <pt x="472" y="780" on="1"/>
        <pt x="562" y="780" on="0"/>
        <pt x="718" y="718" on="0"/>
        <pt x="833" y="610" on="0"/>
        <pt x="899" y="464" on="0"/>
        <pt x="899" y="379" on="1"/>
        <pt x="899" y="298" on="0"/>
        <pt x="832" y="156" on="0"/>
        <pt x="717" y="51" on="0"/>
        <pt x="561" y="-10" on="0"/>
        <pt x="472" y="-10" on="1"/>
        <pt x="383" y="-10" on="0"/>
        <pt x="227" y="51" on="0"/>
        <pt x="111" y="156" on="0"/>
        <pt x="45" y="298" on="0"/>
        <pt x="45" y="379" on="1"/>
        <pt x="45" y="464" on="0"/>
        <pt x="111" y="610" on="0"/>
        <pt x="226" y="718" on="0"/>
        <pt x="382" y="780" on="0"/>
      </contour>
      <contour>
        <pt x="472" y="55" on="1"/>
        <pt x="530" y="55" on="0"/>
        <pt x="624" y="100" on="0"/>
        <pt x="690" y="183" on="0"/>
        <pt x="725" y="302" on="0"/>
        <pt x="725" y="376" on="1"/>
        <pt x="725" y="454" on="0"/>
        <pt x="690" y="579" on="0"/>
        <pt x="624" y="668" on="0"/>
        <pt x="530" y="715" on="0"/>
        <pt x="472" y="715" on="1"/>
        <pt x="413" y="715" on="0"/>
        <pt x="320" y="668" on="0"/>
        <pt x="254" y="579" on="0"/>
        <pt x="219" y="454" on="0"/>
        <pt x="219" y="376" on="1"/>
        <pt x="219" y="302" on="0"/>
        <pt x="254" y="183" on="0"/>
        <pt x="320" y="100" on="0"/>
        <pt x="413" y="55" on="0"/>
      </contour>
      <contour>
        <pt x="405" y="-165" on="1"/>
        <pt x="405" y="-132" on="0"/>
        <pt x="450" y="-87" on="0"/>
        <pt x="482" y="-87" on="1"/>
        <pt x="515" y="-87" on="0"/>
        <pt x="560" y="-132" on="0"/>
        <pt x="560" y="-165" on="1"/>
        <pt x="560" y="-197" on="0"/>
        <pt x="515" y="-242" on="0"/>
        <pt x="482" y="-242" on="1"/>
        <pt x="450" y="-242" on="0"/>
        <pt x="405" y="-197" on="0"/>
      </contour>
    </TTGlyph>
    <TTGlyph name="Ograve" xMin="45" yMin="-10" xMax="899" yMax="960">
      <contour>
        <pt x="472" y="780" on="1"/>
        <pt x="562" y="780" on="0"/>
        <pt x="718" y="718" on="0"/>
        <pt x="833" y="610" on="0"/>
        <pt x="899" y="464" on="0"/>
        <pt x="899" y="379" on="1"/>
        <pt x="899" y="298" on="0"/>
        <pt x="832" y="156" on="0"/>
        <pt x="717" y="51" on="0"/>
        <pt x="561" y="-10" on="0"/>
        <pt x="472" y="-10" on="1"/>
        <pt x="383" y="-10" on="0"/>
        <pt x="227" y="51" on="0"/>
        <pt x="111" y="156" on="0"/>
        <pt x="45" y="298" on="0"/>
        <pt x="45" y="379" on="1"/>
        <pt x="45" y="464" on="0"/>
        <pt x="111" y="610" on="0"/>
        <pt x="226" y="718" on="0"/>
        <pt x="382" y="780" on="0"/>
      </contour>
      <contour>
        <pt x="472" y="55" on="1"/>
        <pt x="530" y="55" on="0"/>
        <pt x="624" y="100" on="0"/>
        <pt x="690" y="183" on="0"/>
        <pt x="725" y="302" on="0"/>
        <pt x="725" y="376" on="1"/>
        <pt x="725" y="454" on="0"/>
        <pt x="690" y="579" on="0"/>
        <pt x="624" y="668" on="0"/>
        <pt x="530" y="715" on="0"/>
        <pt x="472" y="715" on="1"/>
        <pt x="413" y="715" on="0"/>
        <pt x="320" y="668" on="0"/>
        <pt x="254" y="579" on="0"/>
        <pt x="219" y="454" on="0"/>
        <pt x="219" y="376" on="1"/>
        <pt x="219" y="302" on="0"/>
        <pt x="254" y="183" on="0"/>
        <pt x="320" y="100" on="0"/>
        <pt x="413" y="55" on="0"/>
      </contour>
      <contour>
        <pt x="528" y="830" on="1"/>
        <pt x="412" y="858" on="1"/>
        <pt x="360" y="871" on="0"/>
        <pt x="324" y="900" on="0"/>
        <pt x="324" y="923" on="1"/>
        <pt x="324" y="940" on="0"/>
        <pt x="353" y="960" on="0"/>
        <pt x="381" y="960" on="1"/>
        <pt x="407" y="960" on="0"/>
        <pt x="455" y="942" on="0"/>
        <pt x="475" y="927" on="1"/>
        <pt x="601" y="830" on="1"/>
      </contour>
    </TTGlyph>
    <TTGlyph name="Ohungarumlaut" xMin="45" yMin="-10" xMax="899" yMax="960">
      <contour>
        <pt x="472" y="780" on="1"/>
        <pt x="562" y="780" on="0"/>
        <pt x="718" y="718" on="0"/>
        <pt x="833" y="610" on="0"/>
        <pt x="899" y="464" on="0"/>
        <pt x="899" y="379" on="1"/>
        <pt x="899" y="298" on="0"/>
        <pt x="832" y="156" on="0"/>
        <pt x="717" y="51" on="0"/>
        <pt x="561" y="-10" on="0"/>
        <pt x="472" y="-10" on="1"/>
        <pt x="383" y="-10" on="0"/>
        <pt x="227" y="51" on="0"/>
        <pt x="111" y="156" on="0"/>
        <pt x="45" y="298" on="0"/>
        <pt x="45" y="379" on="1"/>
        <pt x="45" y="464" on="0"/>
        <pt x="111" y="610" on="0"/>
        <pt x="226" y="718" on="0"/>
        <pt x="382" y="780" on="0"/>
      </contour>
      <contour>
        <pt x="472" y="55" on="1"/>
        <pt x="530" y="55" on="0"/>
        <pt x="624" y="100" on="0"/>
        <pt x="690" y="183" on="0"/>
        <pt x="725" y="302" on="0"/>
        <pt x="725" y="376" on="1"/>
        <pt x="725" y="454" on="0"/>
        <pt x="690" y="579" on="0"/>
        <pt x="624" y="668" on="0"/>
        <pt x="530" y="715" on="0"/>
        <pt x="472" y="715" on="1"/>
        <pt x="413" y="715" on="0"/>
        <pt x="320" y="668" on="0"/>
        <pt x="254" y="579" on="0"/>
        <pt x="219" y="454" on="0"/>
        <pt x="219" y="376" on="1"/>
        <pt x="219" y="302" on="0"/>
        <pt x="254" y="183" on="0"/>
        <pt x="320" y="100" on="0"/>
        <pt x="413" y="55" on="0"/>
      </contour>
      <contour>
        <pt x="271" y="830" on="1"/>
        <pt x="377" y="927" on="1"/>
        <pt x="395" y="944" on="0"/>
        <pt x="445" y="960" on="0"/>
        <pt x="471" y="960" on="1"/>
        <pt x="499" y="960" on="0"/>
        <pt x="528" y="940" on="0"/>
        <pt x="528" y="923" on="1"/>
        <pt x="528" y="900" on="0"/>
        <pt x="491" y="873" on="0"/>
        <pt x="440" y="858" on="1"/>
        <pt x="344" y="830" on="1"/>
      </contour>
      <contour>
        <pt x="495" y="830" on="1"/>
        <pt x="601" y="927" on="1"/>
        <pt x="619" y="944" on="0"/>
        <pt x="669" y="960" on="0"/>
        <pt x="695" y="960" on="1"/>
        <pt x="723" y="960" on="0"/>
        <pt x="752" y="940" on="0"/>
        <pt x="752" y="923" on="1"/>
        <pt x="752" y="900" on="0"/>
        <pt x="715" y="873" on="0"/>
        <pt x="664" y="858" on="1"/>
        <pt x="568" y="830" on="1"/>
      </contour>
    </TTGlyph>
    <TTGlyph name="Omacron" xMin="45" yMin="-10" xMax="899" yMax="930">
      <contour>
        <pt x="472" y="780" on="1"/>
        <pt x="562" y="780" on="0"/>
        <pt x="718" y="718" on="0"/>
        <pt x="833" y="610" on="0"/>
        <pt x="899" y="464" on="0"/>
        <pt x="899" y="379" on="1"/>
        <pt x="899" y="298" on="0"/>
        <pt x="832" y="156" on="0"/>
        <pt x="717" y="51" on="0"/>
        <pt x="561" y="-10" on="0"/>
        <pt x="472" y="-10" on="1"/>
        <pt x="383" y="-10" on="0"/>
        <pt x="227" y="51" on="0"/>
        <pt x="111" y="156" on="0"/>
        <pt x="45" y="298" on="0"/>
        <pt x="45" y="379" on="1"/>
        <pt x="45" y="464" on="0"/>
        <pt x="111" y="610" on="0"/>
        <pt x="226" y="718" on="0"/>
        <pt x="382" y="780" on="0"/>
      </contour>
      <contour>
        <pt x="472" y="55" on="1"/>
        <pt x="530" y="55" on="0"/>
        <pt x="624" y="100" on="0"/>
        <pt x="690" y="183" on="0"/>
        <pt x="725" y="302" on="0"/>
        <pt x="725" y="376" on="1"/>
        <pt x="725" y="454" on="0"/>
        <pt x="690" y="579" on="0"/>
        <pt x="624" y="668" on="0"/>
        <pt x="530" y="715" on="0"/>
        <pt x="472" y="715" on="1"/>
        <pt x="413" y="715" on="0"/>
        <pt x="320" y="668" on="0"/>
        <pt x="254" y="579" on="0"/>
        <pt x="219" y="454" on="0"/>
        <pt x="219" y="376" on="1"/>
        <pt x="219" y="302" on="0"/>
        <pt x="254" y="183" on="0"/>
        <pt x="320" y="100" on="0"/>
        <pt x="413" y="55" on="0"/>
      </contour>
      <contour>
        <pt x="329" y="865" on="1"/>
        <pt x="329" y="930" on="1"/>
        <pt x="613" y="930" on="1"/>
        <pt x="613" y="865" on="1"/>
      </contour>
    </TTGlyph>
    <TTGlyph name="Oogonek" xMin="45" yMin="-239" xMax="899" yMax="780">
      <contour>
        <pt x="590" y="-152" on="1"/>
        <pt x="558" y="-194" on="0"/>
        <pt x="472" y="-239" on="0"/>
        <pt x="424" y="-239" on="1"/>
        <pt x="314" y="-239" on="0"/>
        <pt x="314" y="-151" on="1"/>
        <pt x="314" y="-109" on="0"/>
        <pt x="381" y="-37" on="0"/>
        <pt x="444" y="-9" on="1"/>
        <pt x="360" y="-5" on="0"/>
        <pt x="214" y="59" on="0"/>
        <pt x="106" y="163" on="0"/>
        <pt x="45" y="301" on="0"/>
        <pt x="45" y="379" on="1"/>
        <pt x="45" y="464" on="0"/>
        <pt x="111" y="610" on="0"/>
        <pt x="226" y="718" on="0"/>
        <pt x="382" y="780" on="0"/>
        <pt x="472" y="780" on="1"/>
        <pt x="562" y="780" on="0"/>
        <pt x="718" y="718" on="0"/>
        <pt x="833" y="610" on="0"/>
        <pt x="899" y="464" on="0"/>
        <pt x="899" y="379" on="1"/>
        <pt x="899" y="304" on="0"/>
        <pt x="842" y="171" on="0"/>
        <pt x="742" y="69" on="0"/>
        <pt x="605" y="2" on="0"/>
        <pt x="526" y="-7" on="1"/>
        <pt x="477" y="-31" on="0"/>
        <pt x="417" y="-95" on="0"/>
        <pt x="417" y="-124" on="1"/>
        <pt x="417" y="-144" on="0"/>
        <pt x="444" y="-169" on="0"/>
        <pt x="466" y="-169" on="1"/>
        <pt x="488" y="-169" on="0"/>
        <pt x="535" y="-141" on="0"/>
        <pt x="555" y="-116" on="1"/>
      </contour>
      <contour>
        <pt x="472" y="55" on="1"/>
        <pt x="530" y="55" on="0"/>
        <pt x="624" y="100" on="0"/>
        <pt x="690" y="183" on="0"/>
        <pt x="725" y="302" on="0"/>
        <pt x="725" y="376" on="1"/>
        <pt x="725" y="454" on="0"/>
        <pt x="690" y="579" on="0"/>
        <pt x="624" y="668" on="0"/>
        <pt x="530" y="715" on="0"/>
        <pt x="472" y="715" on="1"/>
        <pt x="413" y="715" on="0"/>
        <pt x="320" y="668" on="0"/>
        <pt x="254" y="579" on="0"/>
        <pt x="219" y="454" on="0"/>
        <pt x="219" y="376" on="1"/>
        <pt x="219" y="302" on="0"/>
        <pt x="254" y="183" on="0"/>
        <pt x="320" y="100" on="0"/>
        <pt x="413" y="55" on="0"/>
      </contour>
    </TTGlyph>
    <TTGlyph name="Oslash" xMin="45" yMin="-81" xMax="899" yMax="830">
      <contour>
        <pt x="472" y="780" on="1"/>
        <pt x="538" y="780" on="0"/>
        <pt x="656" y="746" on="0"/>
        <pt x="707" y="716" on="1"/>
        <pt x="802" y="830" on="1"/>
        <pt x="891" y="830" on="1"/>
        <pt x="763" y="676" on="1"/>
        <pt x="826" y="621" on="0"/>
        <pt x="899" y="469" on="0"/>
        <pt x="899" y="379" on="1"/>
        <pt x="899" y="298" on="0"/>
        <pt x="832" y="156" on="0"/>
        <pt x="717" y="51" on="0"/>
        <pt x="561" y="-10" on="0"/>
        <pt x="472" y="-10" on="1"/>
        <pt x="408" y="-10" on="0"/>
        <pt x="293" y="21" on="0"/>
        <pt x="243" y="49" on="1"/>
        <pt x="135" y="-81" on="1"/>
        <pt x="47" y="-81" on="1"/>
        <pt x="187" y="88" on="1"/>
        <pt x="121" y="142" on="0"/>
        <pt x="45" y="291" on="0"/>
        <pt x="45" y="379" on="1"/>
        <pt x="45" y="464" on="0"/>
        <pt x="111" y="610" on="0"/>
        <pt x="226" y="718" on="0"/>
        <pt x="382" y="780" on="0"/>
      </contour>
      <contour>
        <pt x="219" y="376" on="1"/>
        <pt x="219" y="259" on="0"/>
        <pt x="262" y="179" on="1"/>
        <pt x="644" y="639" on="1"/>
        <pt x="612" y="676" on="0"/>
        <pt x="525" y="715" on="0"/>
        <pt x="472" y="715" on="1"/>
        <pt x="413" y="715" on="0"/>
        <pt x="320" y="668" on="0"/>
        <pt x="254" y="579" on="0"/>
        <pt x="219" y="454" on="0"/>
      </contour>
      <contour>
        <pt x="472" y="55" on="1"/>
        <pt x="530" y="55" on="0"/>
        <pt x="624" y="100" on="0"/>
        <pt x="690" y="183" on="0"/>
        <pt x="725" y="302" on="0"/>
        <pt x="725" y="376" on="1"/>
        <pt x="725" y="436" on="0"/>
        <pt x="703" y="538" on="0"/>
        <pt x="683" y="580" on="1"/>
        <pt x="304" y="122" on="1"/>
        <pt x="336" y="90" on="0"/>
        <pt x="420" y="55" on="0"/>
      </contour>
    </TTGlyph>
    <TTGlyph name="Oslashacute" xMin="45" yMin="-81" xMax="899" yMax="960">
      <contour>
        <pt x="472" y="780" on="1"/>
        <pt x="538" y="780" on="0"/>
        <pt x="656" y="746" on="0"/>
        <pt x="707" y="716" on="1"/>
        <pt x="802" y="830" on="1"/>
        <pt x="891" y="830" on="1"/>
        <pt x="763" y="676" on="1"/>
        <pt x="826" y="621" on="0"/>
        <pt x="899" y="469" on="0"/>
        <pt x="899" y="379" on="1"/>
        <pt x="899" y="298" on="0"/>
        <pt x="832" y="156" on="0"/>
        <pt x="717" y="51" on="0"/>
        <pt x="561" y="-10" on="0"/>
        <pt x="472" y="-10" on="1"/>
        <pt x="408" y="-10" on="0"/>
        <pt x="293" y="21" on="0"/>
        <pt x="243" y="49" on="1"/>
        <pt x="135" y="-81" on="1"/>
        <pt x="47" y="-81" on="1"/>
        <pt x="187" y="88" on="1"/>
        <pt x="121" y="142" on="0"/>
        <pt x="45" y="291" on="0"/>
        <pt x="45" y="379" on="1"/>
        <pt x="45" y="464" on="0"/>
        <pt x="111" y="610" on="0"/>
        <pt x="226" y="718" on="0"/>
        <pt x="382" y="780" on="0"/>
      </contour>
      <contour>
        <pt x="219" y="376" on="1"/>
        <pt x="219" y="259" on="0"/>
        <pt x="262" y="179" on="1"/>
        <pt x="644" y="639" on="1"/>
        <pt x="612" y="676" on="0"/>
        <pt x="525" y="715" on="0"/>
        <pt x="472" y="715" on="1"/>
        <pt x="413" y="715" on="0"/>
        <pt x="320" y="668" on="0"/>
        <pt x="254" y="579" on="0"/>
        <pt x="219" y="454" on="0"/>
      </contour>
      <contour>
        <pt x="472" y="55" on="1"/>
        <pt x="530" y="55" on="0"/>
        <pt x="624" y="100" on="0"/>
        <pt x="690" y="183" on="0"/>
        <pt x="725" y="302" on="0"/>
        <pt x="725" y="376" on="1"/>
        <pt x="725" y="436" on="0"/>
        <pt x="703" y="538" on="0"/>
        <pt x="683" y="580" on="1"/>
        <pt x="304" y="122" on="1"/>
        <pt x="336" y="90" on="0"/>
        <pt x="420" y="55" on="0"/>
      </contour>
      <contour>
        <pt x="383" y="830" on="1"/>
        <pt x="509" y="927" on="1"/>
        <pt x="529" y="942" on="0"/>
        <pt x="577" y="960" on="0"/>
        <pt x="603" y="960" on="1"/>
        <pt x="631" y="960" on="0"/>
        <pt x="660" y="940" on="0"/>
        <pt x="660" y="923" on="1"/>
        <pt x="660" y="900" on="0"/>
        <pt x="624" y="871" on="0"/>
        <pt x="572" y="858" on="1"/>
        <pt x="456" y="830" on="1"/>
      </contour>
    </TTGlyph>
    <TTGlyph name="Otilde" xMin="45" yMin="-10" xMax="899" yMax="962">
      <contour>
        <pt x="472" y="780" on="1"/>
        <pt x="562" y="780" on="0"/>
        <pt x="718" y="718" on="0"/>
        <pt x="833" y="610" on="0"/>
        <pt x="899" y="464" on="0"/>
        <pt x="899" y="379" on="1"/>
        <pt x="899" y="298" on="0"/>
        <pt x="832" y="156" on="0"/>
        <pt x="717" y="51" on="0"/>
        <pt x="561" y="-10" on="0"/>
        <pt x="472" y="-10" on="1"/>
        <pt x="383" y="-10" on="0"/>
        <pt x="227" y="51" on="0"/>
        <pt x="111" y="156" on="0"/>
        <pt x="45" y="298" on="0"/>
        <pt x="45" y="379" on="1"/>
        <pt x="45" y="464" on="0"/>
        <pt x="111" y="610" on="0"/>
        <pt x="226" y="718" on="0"/>
        <pt x="382" y="780" on="0"/>
      </contour>
      <contour>
        <pt x="472" y="55" on="1"/>
        <pt x="530" y="55" on="0"/>
        <pt x="624" y="100" on="0"/>
        <pt x="690" y="183" on="0"/>
        <pt x="725" y="302" on="0"/>
        <pt x="725" y="376" on="1"/>
        <pt x="725" y="454" on="0"/>
        <pt x="690" y="579" on="0"/>
        <pt x="624" y="668" on="0"/>
        <pt x="530" y="715" on="0"/>
        <pt x="472" y="715" on="1"/>
        <pt x="413" y="715" on="0"/>
        <pt x="320" y="668" on="0"/>
        <pt x="254" y="579" on="0"/>
        <pt x="219" y="454" on="0"/>
        <pt x="219" y="376" on="1"/>
        <pt x="219" y="302" on="0"/>
        <pt x="254" y="183" on="0"/>
        <pt x="320" y="100" on="0"/>
        <pt x="413" y="55" on="0"/>
      </contour>
      <contour>
        <pt x="280" y="828" on="1"/>
        <pt x="290" y="887" on="0"/>
        <pt x="356" y="962" on="0"/>
        <pt x="399" y="962" on="1"/>
        <pt x="406" y="962" on="0"/>
        <pt x="421" y="960" on="0"/>
        <pt x="441" y="954" on="0"/>
        <pt x="467" y="945" on="0"/>
        <pt x="486" y="938" on="1"/>
        <pt x="517" y="926" on="0"/>
        <pt x="551" y="916" on="0"/>
        <pt x="565" y="916" on="1"/>
        <pt x="584" y="916" on="0"/>
        <pt x="606" y="935" on="0"/>
        <pt x="614" y="958" on="1"/>
        <pt x="659" y="958" on="1"/>
        <pt x="655" y="932" on="0"/>
        <pt x="631" y="876" on="0"/>
        <pt x="615" y="856" on="1"/>
        <pt x="585" y="820" on="0"/>
        <pt x="542" y="820" on="1"/>
        <pt x="524" y="820" on="0"/>
        <pt x="486" y="831" on="0"/>
        <pt x="457" y="845" on="1"/>
        <pt x="434" y="856" on="0"/>
        <pt x="387" y="868" on="0"/>
        <pt x="370" y="868" on="1"/>
        <pt x="353" y="868" on="0"/>
        <pt x="334" y="851" on="0"/>
        <pt x="326" y="828" on="1"/>
      </contour>
    </TTGlyph>
</ttFont>
